<svg version="1.1" xmlns="http://www.w3.org/2000/svg" xmlns:xlink="http://www.w3.org/1999/xlink" x="0px" y="0px" width="22.02px"
	 height="28.59px" viewBox="0 0 22.02 28.59" style="enable-background:new 0 0 22.02 28.59;" xml:space="preserve">
<style type="text/css">
	.st0{fill:#404040;}
</style>
<defs>
</defs>
<g>
	<g>
		<path class="st0" d="M19.17,7.98L19.17,7.98c-0.01-0.02-0.01-0.04-0.02-0.06C19.11,7.83,19.06,7.76,19,7.7l-4.68-4.68
			c-0.06-0.06-0.13-0.11-0.22-0.15c-0.02-0.01-0.04-0.02-0.06-0.02c-0.06-0.02-0.11-0.03-0.17-0.03c-0.01,0-0.03,0-0.05,0H0.71
			C0.32,2.81,0,3.13,0,3.52v24.35c0,0.39,0.32,0.72,0.71,0.72H18.5c0.39,0,0.71-0.32,0.71-0.72V8.21c0-0.03,0-0.05-0.01-0.07
			C19.2,8.08,19.19,8.03,19.17,7.98z M14.53,5.25l2.24,2.24h-2.24V5.25z M17.78,27.16H1.43V4.24H13.1v3.97
			c0,0.39,0.32,0.72,0.71,0.72h3.97V27.16z M21.31,0H3.52C3.13,0,2.81,0.32,2.81,0.71v1.65h1.43V1.43h16.35v22.92h-0.94v1.43h1.65
			c0.39,0,0.71-0.32,0.71-0.71V0.71C22.02,0.32,21.7,0,21.31,0z M3.74,10.79h11.72V9.36H3.74V10.79z M7.98,6.55H3.74v1.43h4.24V6.55
			z M11.72,12.17H3.74v1.43h7.98V12.17z M12.17,13.6h3.3v-1.43h-3.3V13.6z M3.74,16.41h11.72v-1.43H3.74V16.41z M3.74,22.03h11.72
			V20.6H3.74V22.03z M7.96,19.22h7.51v-1.43H7.96V19.22z M7.51,17.79H3.74v1.43h3.77V17.79z M3.74,24.84h2.37v-1.43H3.74V24.84z
			 M6.55,24.84h8.92v-1.43H6.55V24.84z"/>
	</g>
</g>
</svg>