<!-- Generator: Adobe Illustrator 23.0.3, SVG Export Plug-In  -->
<svg version="1.1" xmlns="http://www.w3.org/2000/svg" xmlns:xlink="http://www.w3.org/1999/xlink" x="0px" y="0px" width="131px"
	 height="131px" viewBox="0 0 131 131" style="enable-background:new 0 0 131 131;" xml:space="preserve">
<style type="text/css">
	.st0{fill:#FFFFFF;}
</style>
<defs>
</defs>
<path d="M113.3,131H17.7C7.9,131,0,123.1,0,113.3V17.7C0,7.9,7.9,0,17.7,0h95.6c9.8,0,17.7,7.9,17.7,17.7v95.6
	C131,123.1,123.1,131,113.3,131z"/>
<g>
	<path class="st0" d="M57.4,97.3C47.5,97.2,39.3,77,39.3,66.7c0-16.8,12.6-20.5,17.5-20.5c2.2,0,4.5,0.9,6.6,1.6
		c1.4,0.5,2.9,1.1,3.8,1.1c0.5,0,1.7-0.5,2.7-0.9c2.2-0.9,4.9-2,8.1-2c0,0,0,0,0,0c2.4,0,9.6,0.5,14,7l1,1.5l-1.5,1.1
		c-2.1,1.6-5.9,4.5-5.9,10.2c0,6.8,4.3,9.4,6.4,10.6c0.9,0.6,1.9,1.1,1.9,2.4c0,0.8-6.5,18.3-15.9,18.3c-2.3,0-3.9-0.7-5.4-1.3
		c-1.5-0.6-2.7-1.2-4.8-1.2c-1.1,0-2.4,0.5-3.8,1C62.1,96.4,59.9,97.3,57.4,97.3L57.4,97.3z"/>
	<path class="st0" d="M79,30.8c0.2,8.8-6.1,15-12.4,14.6C65.5,38.3,72.9,30.8,79,30.8z"/>
</g>
</svg>
