<?xml version="1.0" encoding="utf-8"?>
<svg version="1.1" xmlns:xlink="http://www.w3.org/1999/xlink" width="13px" height="23px" xmlns="http://www.w3.org/2000/svg">
  <g transform="matrix(1 0 0 1 -155 -73 )">
    <path d="M 0.190798081116441 11.4949847361535  C 0.190798081116441 11.7858700392499  0.301133885739206 12.0566942869603  0.501744439598779 12.2573048408199  L 10.9635848233755 22.6790231138247  C 11.3848669864806 23.1003052769298  12.0669428696031 23.1003052769298  12.4882250327082 22.6790231138247  C 12.6888355865678 22.4784125599651  12.7991713911906 22.2075883122547  12.7991713911906 21.9167030091583  C 12.7991713911906 21.6258177060619  12.6888355865678 21.3650239860445  12.4781945050153 21.1543829044919  L 2.77867422590493 11.4949847361535  L 12.4781945050153 1.83558656781508  C 12.8994766681204 1.41430440470998  12.8994766681204 0.732228521587435  12.4781945050153 0.310946358482332  C 12.2876144788487 0.110335804622765  12.0167902311382 0  11.7359354557348 0  C 11.4450501526385 0  11.184256432621 0.110335804622765  10.9736153510685 0.310946358482338  L 0.511774967291758 10.7426951591801  C 0.301133885739206 10.9332751853467  0.190798081116441 11.2141299607501  0.190798081116441 11.4949847361535  Z " fill-rule="nonzero" fill="#ffffff" stroke="none" transform="matrix(1 0 0 1 155 73 )" />
  </g>
</svg>