<?xml version="1.0" encoding="utf-8"?>
<svg version="1.1" xmlns:xlink="http://www.w3.org/1999/xlink" width="13px" height="25px" xmlns="http://www.w3.org/2000/svg">
  <g transform="matrix(1 0 0 1 -25 -21 )">
    <path d="M 0 12.4947005829359  C 0 12.802066772655  0.113672496025437 13.0882352941176  0.320349761526232 13.3002119766826  L 11.0985691573927 24.31240063593  C 11.5325914149444 24.7575516693164  12.2352941176471 24.7575516693164  12.6693163751987 24.31240063593  C 12.8759936406995 24.1004239533651  12.989666136725 23.8142554319025  12.989666136725 23.5068892421834  C 12.989666136725 23.1995230524642  12.8759936406995 22.9239533651298  12.6589825119237 22.7013778484367  L 2.66613672496025 12.4947005829359  L 12.6589825119237 2.28802331743508  C 13.0930047694754 1.84287228404875  13.0930047694754 1.12215156332803  12.6589825119237 0.677000529941701  C 12.4626391096979 0.465023847376789  12.1836248012719 0.348436671966084  11.8942766295707 0.348436671966084  C 11.5945945945946 0.348436671966084  11.3259141494436 0.465023847376789  11.1089030206677 0.677000529941707  L 0.330683624801272 11.6997880233174  C 0.113672496025437 11.9011658717541  0 12.197933227345  0 12.4947005829359  Z " fill-rule="nonzero" fill="#333333" stroke="none" transform="matrix(1 0 0 1 25 21 )" />
  </g>
</svg>