<!-- Generator: Adobe Illustrator 23.0.2, SVG Export Plug-In  -->
<svg version="1.1" xmlns="http://www.w3.org/2000/svg" xmlns:xlink="http://www.w3.org/1999/xlink" x="0px" y="0px" width="25.23px"
	 height="25.24px" viewBox="0 0 25.23 25.24" style="enable-background:new 0 0 25.23 25.24;" xml:space="preserve">
<style type="text/css">
	.st0{fill:#1D1C1A;}
</style>
<defs>
</defs>
<path class="st0" d="M25.01,0.22c-0.21-0.21-0.52-0.27-0.8-0.16L0.46,9.56C0.19,9.66,0.01,9.92,0,10.22
	c-0.01,0.29,0.15,0.56,0.42,0.69l9.36,4.54l4.54,9.37c0.12,0.26,0.38,0.42,0.66,0.42c0.01,0,0.02,0,0.03,0
	c0.29-0.01,0.55-0.19,0.66-0.46l9.5-23.76C25.28,0.74,25.22,0.43,25.01,0.22z M2.57,10.31l18.85-7.54L10.18,14L2.57,10.31z
	 M14.92,22.67l-3.69-7.62L22.46,3.81L14.92,22.67z"/>
</svg>
