<!-- Generator: Adobe Illustrator 23.0.2, SVG Export Plug-In  -->
<svg version="1.1" xmlns="http://www.w3.org/2000/svg" xmlns:xlink="http://www.w3.org/1999/xlink" x="0px" y="0px" width="15.69px"
	 height="20.8px" viewBox="0 0 15.69 20.8" style="enable-background:new 0 0 15.69 20.8;" xml:space="preserve">
<style type="text/css">
	.st0{fill:#333333;}
</style>
<defs>
</defs>
<path class="st0" d="M8.89,20.8H0V0h8.51c4.31,0,6.71,2.26,6.71,5.36c0,2.53-1.51,4.11-3.52,4.77c2.33,0.42,3.99,2.59,3.99,5.04
	C15.69,18.47,13.18,20.8,8.89,20.8z M7.92,3.37H4.14v5.21h3.78c1.95,0,3.07-0.89,3.07-2.59C10.99,4.32,9.87,3.37,7.92,3.37z
	 M8.21,11.8H4.14v5.6H8.3c2.01,0,3.19-0.98,3.19-2.74C11.49,12.87,10.22,11.8,8.21,11.8z"/>
</svg>
