<!-- Generator: Adobe Illustrator 23.0.2, SVG Export Plug-In  -->
<svg version="1.1" xmlns="http://www.w3.org/2000/svg" xmlns:xlink="http://www.w3.org/1999/xlink" x="0px" y="0px" width="24.03px"
	 height="24.03px" viewBox="0 0 24.03 24.03" style="enable-background:new 0 0 24.03 24.03;" xml:space="preserve">
<style type="text/css">
	.st0{fill:#9B9B9B;}
</style>
<defs>
</defs>
<path class="st0" d="M17.27,24.03c-0.78,0-1.54-0.14-2.3-0.41c-3.31-1.2-6.39-3.16-8.89-5.67c-2.51-2.51-4.47-5.58-5.67-8.89
	c-0.39-1.06-0.5-2.16-0.34-3.27c0.15-1.03,0.55-2.04,1.16-2.9C1.84,2.02,2.65,1.3,3.57,0.8C4.56,0.27,5.64,0,6.78,0
	c0.35,0,0.66,0.25,0.73,0.59l1.18,5.5c0.05,0.25-0.02,0.51-0.2,0.69L6.47,8.8c1.9,3.78,4.98,6.86,8.76,8.76l2.01-2.01
	c0.18-0.18,0.44-0.26,0.69-0.2l5.5,1.18c0.35,0.07,0.59,0.38,0.59,0.73c0,1.14-0.27,2.22-0.8,3.2c-0.5,0.93-1.22,1.74-2.09,2.35
	c-0.86,0.61-1.87,1.01-2.9,1.16C17.92,24.01,17.6,24.03,17.27,24.03L17.27,24.03z M6.18,1.53C4.68,1.7,3.34,2.49,2.46,3.75
	c-1,1.42-1.23,3.17-0.64,4.79c2.31,6.37,7.3,11.35,13.67,13.66c1.63,0.59,3.37,0.36,4.79-0.64c1.26-0.89,2.05-2.22,2.22-3.72
	l-4.47-0.96l-2.1,2.1c-0.22,0.22-0.56,0.28-0.85,0.15c-4.47-2.1-8.09-5.72-10.18-10.18C4.75,8.68,4.81,8.34,5.03,8.11l2.1-2.1
	L6.18,1.53z"/>
</svg>
