<!-- Generator: Adobe Illustrator 23.0.2, SVG Export Plug-In  -->
<svg version="1.1" xmlns="http://www.w3.org/2000/svg" xmlns:xlink="http://www.w3.org/1999/xlink" x="0px" y="0px" width="25.35px"
	 height="24.11px" viewBox="0 0 25.35 24.11" style="enable-background:new 0 0 25.35 24.11;" xml:space="preserve">
<style type="text/css">
	.st0{fill:#333333;}
</style>
<defs>
</defs>
<g>
	<g>
		<path class="st0" d="M23.37,1.98c-2.63-2.64-6.92-2.64-9.56,0c-0.97,0.97-1.62,2.2-1.87,3.55c-0.21,1.15-0.13,2.31,0.24,3.41
			L0,21.13l2.08,2.08c0.59,0.6,1.37,0.89,2.16,0.89c0.78,0,1.56-0.3,2.16-0.89l0.17-0.17l0.24-1.59l1.52-0.17l2.75-2.75l0.4-2.05
			l2.05-0.39l2.91-2.91c1.09,0.37,2.26,0.46,3.4,0.24c1.35-0.25,2.57-0.9,3.54-1.87C26,8.91,26,4.62,23.37,1.98z M22.32,10.49
			c-1.01,1.01-2.35,1.55-3.72,1.55c-0.7,0-1.4-0.14-2.07-0.42l-0.46-0.2l-3.28,3.28l-2.59,0.5l-0.5,2.6l-2.06,2.06l-2.14,0.24
			l-0.33,2.21c-0.61,0.46-1.48,0.41-2.03-0.15l-1.02-1.02L13.94,9.29l-0.2-0.46c-0.85-1.99-0.4-4.26,1.12-5.79
			c2.05-2.06,5.4-2.06,7.45,0C24.37,5.09,24.37,8.44,22.32,10.49z M19.26,3.62c-0.66,0-1.28,0.26-1.75,0.73
			c-0.47,0.47-0.73,1.09-0.73,1.75c0,0.66,0.26,1.28,0.73,1.75c0.47,0.47,1.09,0.73,1.75,0.73c0.66,0,1.28-0.26,1.75-0.73
			c0.47-0.47,0.72-1.09,0.72-1.75c0-0.66-0.26-1.28-0.72-1.75C20.54,3.88,19.92,3.62,19.26,3.62z M19.95,6.79
			c-0.19,0.19-0.43,0.29-0.7,0.29c-0.26,0-0.51-0.1-0.69-0.29c-0.19-0.19-0.29-0.43-0.29-0.7c0-0.26,0.1-0.51,0.29-0.7
			c0.19-0.19,0.43-0.29,0.69-0.29c0.26,0,0.51,0.1,0.7,0.29c0.18,0.19,0.29,0.43,0.29,0.7C20.24,6.36,20.14,6.6,19.95,6.79z"/>
	</g>
</g>
</svg>
