<!-- Generator: Adobe Illustrator 23.0.2, SVG Export Plug-In  -->
<svg version="1.1" xmlns="http://www.w3.org/2000/svg" xmlns:xlink="http://www.w3.org/1999/xlink" x="0px" y="0px"
	 width="129.08px" height="103.02px" viewBox="0 0 129.08 103.02" style="enable-background:new 0 0 129.08 103.02;"
	 xml:space="preserve">
<style type="text/css">
	.st0{fill:#F1D000;}
	.st1{fill:#E7E7E7;}
	.st2{fill-rule:evenodd;clip-rule:evenodd;fill:#E7E7E7;}
</style>
<defs>
</defs>
<path class="st0" d="M69.62,5.7c-0.09,0-0.18,0-0.27,0C43.67,5.78,22.9,26.68,22.98,52.38c0,25.78,20.88,46.68,46.64,46.68
	c25.76,0,46.64-20.9,46.64-46.68C116.26,26.6,95.38,5.7,69.62,5.7z M62.33,72.67L43.78,54.24l7.55-7.43l11,10.87l25.57-25.6
	l7.55,7.43L62.33,72.67z"/>
<path class="st1" d="M24.77,16.99h-2.64v-2.64c0-0.97-0.79-1.76-1.76-1.76c-0.97,0-1.76,0.79-1.76,1.76v2.64h-2.64
	c-0.97,0-1.76,0.79-1.76,1.76c0,0.97,0.79,1.76,1.76,1.76h2.64v2.64c0,0.97,0.79,1.76,1.76,1.76c0.97,0,1.76-0.79,1.76-1.76V20.5
	h2.64c0.97,0,1.76-0.79,1.76-1.76C26.53,17.78,25.73,16.99,24.77,16.99z"/>
<g>
	<path class="st1" d="M10.19,103.02C4.57,103.02,0,98.45,0,92.83s4.57-10.19,10.19-10.19c5.62,0,10.19,4.57,10.19,10.19
		S15.81,103.02,10.19,103.02z M10.19,85.49c-4.05,0-7.34,3.29-7.34,7.34c0,4.05,3.29,7.34,7.34,7.34s7.34-3.29,7.34-7.34
		C17.53,88.79,14.23,85.49,10.19,85.49z"/>
</g>
<path class="st2" d="M119.65,4.41c-0.29,0.38-0.5,0.9-0.85,1.04c-0.41,0.15-1.1,0.13-1.4-0.12c-1.09-0.94-2.09-1.99-3.09-3.04
	c-0.57-0.6-0.53-1.3,0.06-1.87c0.59-0.57,1.26-0.55,1.86,0.04c0.99,0.97,1.97,1.93,2.92,2.93C119.37,3.62,119.44,3.98,119.65,4.41z"
	/>
<path class="st2" d="M129.02,13.88c-0.27,0.31-0.51,0.83-0.86,0.91c-0.49,0.11-1.21,0.09-1.56-0.2c-1.04-0.86-1.95-1.86-2.89-2.83
	c-0.47-0.49-0.46-1.52,0-1.92c0.58-0.5,1.29-0.54,1.84-0.05c1.05,0.94,2.03,1.96,2.99,2.99C128.77,13,128.82,13.39,129.02,13.88z"/>
<path class="st2" d="M115.47,14.99c-1.26-0.01-1.97-1.12-1.33-1.92c0.97-1.21,2.09-2.33,3.25-3.36c0.51-0.45,1.3-0.37,1.8,0.22
	c0.5,0.59,0.43,1.25-0.1,1.8c-0.93,0.96-1.87,1.91-2.83,2.83C116,14.8,115.62,14.91,115.47,14.99z"/>
<path class="st2" d="M129.08,1.23c-0.28,0.49-0.41,0.9-0.68,1.18c-0.89,0.95-1.83,1.86-2.76,2.77c-0.58,0.57-1.21,0.66-1.84,0.06
	c-0.55-0.53-0.6-1.37-0.07-1.94c0.9-0.96,1.79-1.94,2.79-2.79c0.37-0.31,1.07-0.44,1.55-0.33C128.45,0.26,128.72,0.83,129.08,1.23z"
	/>
<path class="st1" d="M126.74,84.8h-2.29v-2.29c0-0.84-0.69-1.53-1.53-1.53c-0.84,0-1.53,0.69-1.53,1.53v2.29h-2.29
	c-0.84,0-1.53,0.69-1.53,1.53c0,0.84,0.69,1.53,1.53,1.53h2.29v2.29c0,0.84,0.69,1.53,1.53,1.53c0.84,0,1.53-0.69,1.53-1.53v-2.29
	h2.29c0.84,0,1.53-0.69,1.53-1.53C128.27,85.49,127.58,84.8,126.74,84.8z"/>
</svg>
