<!-- Generator: Adobe Illustrator 23.0.2, SVG Export Plug-In  -->
<svg version="1.1" xmlns="http://www.w3.org/2000/svg" xmlns:xlink="http://www.w3.org/1999/xlink" x="0px" y="0px" width="19.87px"
	 height="19.87px" viewBox="0 0 19.87 19.87" style="enable-background:new 0 0 19.87 19.87;" xml:space="preserve">
<style type="text/css">
	.st0{fill:#333333;}
</style>
<defs>
</defs>
<path class="st0" d="M11.75,9.94l7.74-7.74c0.5-0.5,0.5-1.32,0-1.82c-0.5-0.5-1.32-0.5-1.82,0L9.93,8.12L2.2,0.38
	c-0.5-0.5-1.32-0.5-1.82,0c-0.5,0.5-0.5,1.32,0,1.82l7.74,7.74l-7.74,7.74c-0.5,0.5-0.5,1.32,0,1.82c0.25,0.25,0.58,0.38,0.91,0.38
	c0.33,0,0.66-0.13,0.91-0.38l7.74-7.74l7.74,7.74c0.25,0.25,0.58,0.38,0.91,0.38c0.33,0,0.66-0.13,0.91-0.38
	c0.5-0.5,0.5-1.32,0-1.82L11.75,9.94z"/>
</svg>
