<!-- Generator: Adobe Illustrator 23.0.2, SVG Export Plug-In  -->
<svg version="1.1" xmlns="http://www.w3.org/2000/svg" xmlns:xlink="http://www.w3.org/1999/xlink" x="0px" y="0px" width="27.31px"
	 height="34.14px" viewBox="0 0 27.31 34.14" style="enable-background:new 0 0 27.31 34.14;" xml:space="preserve">
<style type="text/css">
	.st0{fill:#333333;}
</style>
<defs>
</defs>
<path class="st0" d="M5.12,22.62h17.07c0.31,0,0.57-0.25,0.57-0.57V11.81c0-0.31-0.25-0.57-0.57-0.57H5.12
	c-0.31,0-0.57,0.25-0.57,0.57v10.24C4.55,22.36,4.81,22.62,5.12,22.62z M5.69,19.2h4.55v2.28H5.69V19.2z M15.93,15.79v2.28h-4.55
	v-2.28H15.93z M11.38,14.65v-2.28h4.55v2.28H11.38z M17.07,15.79h4.55v2.28h-4.55V15.79z M15.93,19.2v2.28h-4.55V19.2H15.93z
	 M10.24,18.07H5.69v-2.28h4.55V18.07z M17.07,21.48V19.2h4.55v2.28H17.07z M21.62,14.65h-4.55v-2.28h4.55V14.65z M10.24,12.38v2.28
	H5.69v-2.28H10.24z"/>
<g>
	<path class="st0" d="M27.15,6.99l-6.83-6.83C20.21,0.06,20.07,0,19.92,0H3.98C1.78,0,0,1.78,0,3.98v26.17
		c0,2.2,1.78,3.98,3.98,3.98h19.35c2.2,0,3.98-1.78,3.98-3.98V7.4C27.31,7.25,27.25,7.1,27.15,6.99z M20.48,1.94l4.89,4.89h-2.04
		c-1.57,0-2.84-1.27-2.85-2.85V1.94z M26.17,23.9h-0.11v1.14h0.11v5.12c0,1.57-1.27,2.84-2.85,2.85H3.98
		c-1.57,0-2.84-1.27-2.85-2.85v-5.12h0.03V23.9H1.14V3.98c0-1.57,1.27-2.84,2.85-2.85h15.36v2.85c0,2.2,1.78,3.98,3.98,3.98h2.85
		V23.9z"/>
</g>
</svg>
