<!-- Generator: Adobe Illustrator 23.0.2, SVG Export Plug-In  -->
<svg version="1.1" xmlns="http://www.w3.org/2000/svg" xmlns:xlink="http://www.w3.org/1999/xlink" x="0px" y="0px" width="51.2px"
	 height="52.6px" viewBox="0 0 51.2 52.6" style="enable-background:new 0 0 51.2 52.6;" xml:space="preserve">
<style type="text/css">
	.st0{fill:#333333;stroke:#333333;stroke-width:0.5;stroke-miterlimit:10;}
</style>
<defs>
</defs>
<g>
	<path class="st0" d="M47.06,6.83h-1.17c0.04-3.55-2.83-6.58-6.42-6.58H15c0,0-0.01,0-0.01,0s-0.01,0-0.01,0h-3.54
		c-3.52,0-6.38,2.84-6.42,6.35H3.11c-1.58,0-2.86,1.28-2.86,2.86s1.28,2.86,2.86,2.86h1.91v5.5H3.11c-1.58,0-2.86,1.28-2.86,2.86
		s1.28,2.86,2.86,2.86h1.91v5.5H3.11c-1.58,0-2.86,1.28-2.86,2.86c0,1.58,1.28,2.86,2.86,2.86h1.91v5.5H3.11
		c-1.58,0-2.86,1.28-2.86,2.86S1.53,46,3.11,46h1.91c0.04,3.51,2.9,6.35,6.42,6.35h3.54c0,0,0.01,0,0.01,0s0.01,0,0.01,0h24.47
		c3.6,0,6.46-3.04,6.42-6.6h1.17c2.15,0,3.89-1.75,3.89-3.89V10.72C50.95,8.58,49.2,6.83,47.06,6.83L47.06,6.83z M49.42,33.54
		c0,1.31-1.06,2.37-2.37,2.37h-1.17v-6.79h1.17c0.89,0,1.71-0.3,2.37-0.81V33.54z M49.42,25.22c0,1.31-1.06,2.37-2.37,2.37h-1.17
		v-6.93h1.17c0.89,0,1.71-0.3,2.37-0.81L49.42,25.22L49.42,25.22z M47.06,8.36c1.31,0,2.37,1.06,2.37,2.37v6.04
		c0,1.31-1.06,2.37-2.37,2.37h-1.17V8.36H47.06z M1.78,9.46c0-0.74,0.6-1.34,1.34-1.34h5.38c0.74,0,1.34,0.6,1.34,1.34
		c0,0.74-0.6,1.34-1.34,1.34H3.11C2.38,10.8,1.78,10.2,1.78,9.46z M1.78,20.69c0-0.74,0.6-1.34,1.34-1.34h5.38
		c0.74,0,1.34,0.6,1.34,1.34c0,0.74-0.6,1.34-1.34,1.34H3.11C2.38,22.02,1.78,21.42,1.78,20.69z M1.78,31.91
		c0-0.74,0.6-1.34,1.34-1.34h5.38c0.74,0,1.34,0.6,1.34,1.34c0,0.74-0.6,1.34-1.34,1.34H3.11C2.38,33.25,1.78,32.65,1.78,31.91z
		 M1.78,43.13c0-0.74,0.6-1.34,1.34-1.34h5.38c0.74,0,1.34,0.6,1.34,1.34c0,0.74-0.6,1.34-1.34,1.34H3.11
		C2.38,44.47,1.78,43.87,1.78,43.13z M47.06,44.23h-1.17v-1.09c0-0.99-1.53-0.99-1.53,0v2.8c0,2.7-2.19,4.89-4.89,4.89H15.75V11.56
		c0-0.99-1.53-0.99-1.53,0v39.26h-2.78c-2.68,0-4.85-2.16-4.89-4.83h1.94c1.58,0,2.86-1.28,2.86-2.86s-1.28-2.86-2.86-2.86H6.55
		v-5.5h1.94c1.58,0,2.86-1.28,2.86-2.86c0-1.58-1.28-2.86-2.86-2.86H6.55v-5.5h1.94c1.58,0,2.86-1.28,2.86-2.86
		s-1.28-2.86-2.86-2.86H6.55v-5.5h1.94c1.58,0,2.86-1.28,2.86-2.86S10.07,6.6,8.49,6.6H6.55c0.04-2.67,2.21-4.83,4.89-4.83h2.78
		v5.82c0,0.99,1.53,0.99,1.53,0V1.78h23.72c2.7,0,4.89,2.19,4.89,4.89v32.51c0,0.99,1.53,0.99,1.53,0v-1.74h1.17
		c0.89,0,1.71-0.3,2.37-0.81v5.23C49.42,43.17,48.36,44.23,47.06,44.23L47.06,44.23z"/>
	<path class="st0" d="M33.69,21.3c1.39-1.17,2.23-2.92,2.23-4.79c0-3.45-2.81-6.26-6.26-6.26c-3.45,0-6.26,2.81-6.26,6.26
		c0,1.86,0.84,3.61,2.23,4.79c-3.3,1.54-5.5,4.9-5.5,8.63c0,0.99,1.53,0.99,1.53,0c0-3.59,2.41-6.76,5.87-7.71
		c0.67-0.18,0.75-1.13,0.12-1.43c-1.65-0.78-2.72-2.46-2.72-4.28c0-2.61,2.12-4.73,4.73-4.73s4.73,2.12,4.73,4.73
		c0,1.82-1.07,3.51-2.72,4.28c-0.63,0.3-0.55,1.24,0.12,1.43c3.46,0.95,5.87,4.12,5.87,7.71c0,0.99,1.53,0.99,1.53,0
		C39.19,26.2,36.99,22.84,33.69,21.3L33.69,21.3z"/>
	<path class="st0" d="M38.43,35.76H20.9c-0.99,0-0.99,1.53,0,1.53h17.53C39.41,37.29,39.41,35.76,38.43,35.76z"/>
	<path class="st0" d="M35.36,40.8h-11.4c-0.99,0-0.99,1.53,0,1.53h11.4C36.35,42.33,36.35,40.8,35.36,40.8z"/>
</g>
</svg>
