<?xml version="1.0" encoding="utf-8"?>
<!-- Generator: Adobe Illustrator 23.0.2, SVG Export Plug-In . SVG Version: 6.00 Build 0)  -->
<svg version="1.1" id="Layer_1" xmlns="http://www.w3.org/2000/svg" xmlns:xlink="http://www.w3.org/1999/xlink" x="0px" y="0px"
	 viewBox="0 0 595.28 177" style="enable-background:new 0 0 595.28 177;" xml:space="preserve">
<style type="text/css">
	.st0{fill:#FFFFFF;}
	.st1{fill:#F2CC19;}
	.st2{fill:#F2CC1A;}
	.st3{fill:#209FDA;}
	.st4{fill:#22B892;}
	.st5{fill:#F37458;}
	.st6{fill:#F2CD18;}
</style>
<g>
	<path class="st0" d="M179.87,87.96c0.07,0.14,0.07,0.2,0.07,0.34v16.43c0,1.89-1.55,3.38-3.38,3.38c-1.83,0-3.31-1.49-3.31-3.38
		V88.3c0-0.14,0-0.2,0-0.34c0-0.07,0-0.14,0-0.27c0-3.79-3.11-6.83-6.9-6.83c-3.79,0-6.9,3.04-6.9,6.83v17.04
		c0,1.89-1.49,3.38-3.31,3.38s-3.38-1.49-3.38-3.38V87.69c0-3.79-3.04-6.83-6.83-6.83c-3.79,0-6.9,3.04-6.9,6.83v17.04
		c0,1.89-1.49,3.38-3.31,3.38c-1.89,0-3.38-1.49-3.38-3.38V87.69c0-7.44,6.09-13.52,13.59-13.52c4.06,0,7.71,1.76,10.21,4.67
		c2.5-2.91,6.15-4.67,10.21-4.67c7.51,0,13.59,6.09,13.59,13.52C179.94,87.82,179.94,87.89,179.87,87.96z"/>
	<path class="st0" d="M183.73,91c0-9.4,7.64-16.97,16.97-16.97c9.4,0,16.97,7.57,16.97,16.97c0,9.33-7.57,16.97-16.97,16.97
		C191.37,107.97,183.73,100.33,183.73,91z M190.42,91c0,5.61,4.6,10.28,10.28,10.28c5.68,0,10.28-4.67,10.28-10.28
		c0-5.68-4.6-10.28-10.28-10.28C195.02,80.72,190.42,85.32,190.42,91z"/>
	<path class="st0" d="M242.01,77.41c0,1.83-1.49,3.38-3.38,3.38c-5.68,0-10.28,4.6-10.28,10.28v13.59c0,1.83-1.49,3.38-3.31,3.38
		c-1.89,0-3.38-1.56-3.38-3.38V91.07c0-9.4,7.64-16.97,16.97-16.97C240.53,74.1,242.01,75.58,242.01,77.41z"/>
	<path class="st0" d="M275.75,91c0,1.83-1.49,3.31-3.38,3.31h-23.33c1.42,4.06,5.21,6.96,9.74,6.96c1.55,0,4.33-0.14,7.57-2.23
		c1.55-1.01,3.65-0.07,4.46,1.56c0.81,1.69-0.07,3.45-1.62,4.46c-4.46,2.98-7.91,2.91-10.41,2.91c-9.4,0-16.97-7.64-16.97-16.97
		c0-9.4,7.57-16.97,16.97-16.97C266.96,74.03,275.75,79.98,275.75,91z M249.05,87.62h19.54c-1.42-4.73-5.75-6.9-9.8-6.9
		C254.25,80.72,250.47,83.63,249.05,87.62z"/>
	<path class="st0" d="M307.06,77.61v33.34c0,7.64-6.29,13.93-14,13.93c-5.34,0-10.14-3.04-12.51-7.84
		c-0.81-1.62-0.14-3.65,1.55-4.46c1.62-0.81,3.65-0.07,4.4,1.55c1.28,2.5,3.79,4.06,6.56,4.06c4.06,0,7.3-3.25,7.3-7.24v-4.87
		c-2.03,1.22-4.4,1.89-6.96,1.89c-7.44,0-13.52-6.02-13.59-13.46c0-0.07,0-0.07,0-0.07V77.61c0-1.83,1.49-3.31,3.31-3.31
		c1.83,0,3.31,1.49,3.31,3.31v16.77c0,3.85,3.18,6.96,6.96,6.96c3.85,0,6.96-3.11,6.96-6.96V77.61c0-1.83,1.49-3.31,3.31-3.31
		C305.57,74.3,307.06,75.79,307.06,77.61z"/>
	<path class="st0" d="M311.05,91c0-9.4,7.64-16.97,16.97-16.97c9.4,0,16.97,7.57,16.97,16.97c0,9.33-7.57,16.97-16.97,16.97
		C318.69,107.97,311.05,100.33,311.05,91z M317.75,91c0,5.61,4.6,10.28,10.28,10.28c5.68,0,10.28-4.67,10.28-10.28
		c0-5.68-4.6-10.28-10.28-10.28C322.34,80.72,317.75,85.32,317.75,91z"/>
	<path class="st0" d="M376.24,77.41v16.97v0.07c-0.07,7.51-6.15,13.59-13.73,13.59c-7.51,0-13.59-6.09-13.66-13.59v-0.07V77.41
		c0-1.83,1.49-3.31,3.31-3.31c1.89,0,3.38,1.49,3.38,3.31v16.9c0,3.85,3.11,7.03,6.96,7.03c3.92,0,7.03-3.18,7.03-7.03v-16.9
		c0-1.83,1.49-3.31,3.38-3.31C374.75,74.1,376.24,75.58,376.24,77.41z"/>
	<path class="st0" d="M381.58,106.96c-0.61-0.61-0.95-1.49-0.95-2.37c0-0.88,0.34-1.69,0.95-2.37c0.68-0.61,1.49-0.95,2.37-0.95
		c0.88,0,1.76,0.34,2.37,0.95c0.68,0.68,1.01,1.49,1.01,2.37c0,0.88-0.34,1.76-1.01,2.37c-0.61,0.68-1.49,1.01-2.37,1.01
		C383.07,107.97,382.26,107.63,381.58,106.96z"/>
	<path class="st1" d="M391.65,104.66V60.64c0-1.83,1.49-3.31,3.38-3.31c1.83,0,3.31,1.49,3.31,3.31v44.02
		c0,1.89-1.49,3.38-3.31,3.38C393.14,108.04,391.65,106.55,391.65,104.66z"/>
	<path class="st1" d="M436.35,91c0,1.83-1.49,3.31-3.38,3.31h-23.33c1.42,4.06,5.21,6.96,9.74,6.96c1.55,0,4.33-0.14,7.57-2.23
		c1.55-1.01,3.65-0.07,4.46,1.56c0.81,1.69-0.07,3.45-1.62,4.46c-4.46,2.98-7.91,2.91-10.41,2.91c-9.4,0-16.97-7.64-16.97-16.97
		c0-9.4,7.57-16.97,16.97-16.97C427.56,74.03,436.35,79.98,436.35,91z M409.64,87.62h19.54c-1.42-4.73-5.75-6.9-9.8-6.9
		C414.85,80.72,411.06,83.63,409.64,87.62z"/>
	<path class="st1" d="M459.54,77.41c0,1.83-1.49,3.38-3.38,3.38h-4.8v23.87c0,1.83-1.49,3.38-3.38,3.38c-1.83,0-3.31-1.56-3.31-3.38
		V80.79h-4.87c-1.83,0-3.31-1.55-3.31-3.38s1.49-3.31,3.31-3.31h4.87V60.57c0-1.83,1.49-3.31,3.31-3.31c1.89,0,3.38,1.49,3.38,3.31
		V74.1h4.8C458.06,74.1,459.54,75.58,459.54,77.41z"/>
	<path class="st1" d="M486.73,77.41c0,1.83-1.49,3.38-3.38,3.38h-4.8v23.87c0,1.83-1.49,3.38-3.38,3.38c-1.83,0-3.31-1.56-3.31-3.38
		V80.79h-4.87c-1.83,0-3.31-1.55-3.31-3.38s1.49-3.31,3.31-3.31h4.87V60.57c0-1.83,1.49-3.31,3.31-3.31c1.89,0,3.38,1.49,3.38,3.31
		V74.1h4.8C485.24,74.1,486.73,75.58,486.73,77.41z"/>
	<path class="st1" d="M520.54,91c0,1.83-1.49,3.31-3.38,3.31h-23.33c1.42,4.06,5.21,6.96,9.74,6.96c1.55,0,4.33-0.14,7.57-2.23
		c1.55-1.01,3.65-0.07,4.46,1.56c0.81,1.69-0.07,3.45-1.62,4.46c-4.46,2.98-7.91,2.91-10.41,2.91c-9.4,0-16.97-7.64-16.97-16.97
		c0-9.4,7.57-16.97,16.97-16.97C511.75,74.03,520.54,79.98,520.54,91z M493.83,87.62h19.54c-1.42-4.73-5.75-6.9-9.8-6.9
		C499.04,80.72,495.25,83.63,493.83,87.62z"/>
	<path class="st1" d="M544.95,77.41c0,1.83-1.49,3.38-3.38,3.38c-5.68,0-10.28,4.6-10.28,10.28v13.59c0,1.83-1.49,3.38-3.31,3.38
		c-1.89,0-3.38-1.56-3.38-3.38V91.07c0-9.4,7.64-16.97,16.97-16.97C543.46,74.1,544.95,75.58,544.95,77.41z"/>
</g>
<g>
	<g>
		<path class="st1" d="M93.32,96.18c0,0.48-0.39,0.86-0.86,0.86h-5.92c-0.02,0-0.02,0-0.03,0h-0.02c-0.48,0-0.86-0.38-0.86-0.86
			V85.92c0-0.48,0.38-0.86,0.86-0.86c0.46,0,0.86,0.38,0.86,0.86v9.4h5.11C92.92,95.32,93.32,95.7,93.32,96.18z"/>
		<path class="st2" d="M92.46,97.41h-5.92c-0.74,0-1.29-0.54-1.29-1.23V85.92c0-0.69,0.54-1.23,1.23-1.23
			c0.68,0,1.23,0.55,1.23,1.23v9.02h4.74c0.68,0,1.23,0.55,1.23,1.23C93.69,96.86,93.14,97.41,92.46,97.41z M86.49,85.44
			c-0.27,0-0.48,0.21-0.48,0.48v10.26c0,0.27,0.21,0.48,0.48,0.48h5.97c0.27,0,0.48-0.22,0.48-0.48c0-0.27-0.22-0.48-0.48-0.48
			h-5.49v-9.78C86.97,85.66,86.76,85.44,86.49,85.44z"/>
	</g>
</g>
<g>
	<g>
		<g>
			<path class="st3" d="M89.32,68.82c-0.01,0-0.02,0-0.03,0c0.14,6.01,2.35,11.84,6.7,16.37c4.57,4.76,10.7,7.23,17.05,7.44
				c0-0.06,0-0.12,0-0.19C113.05,79.43,102.41,68.82,89.32,68.82z"/>
		</g>
	</g>
	<g>
		<g>
			<path class="st4" d="M113.05,92.67c0-0.01,0-0.02,0-0.03c-6.03,0.14-11.88,2.36-16.42,6.72c-4.78,4.58-7.26,10.72-7.47,17.09
				c0.06,0,0.12,0,0.19,0C102.41,116.46,113.05,105.78,113.05,92.67z"/>
		</g>
	</g>
	<g>
		<g>
			<path class="st5" d="M89.29,116.46c0.01,0,0.02,0,0.03,0c-0.14-6.03-2.35-11.88-6.7-16.42c-4.57-4.78-10.69-7.26-17.03-7.47
				c0,0.06,0,0.12,0,0.19C65.58,105.82,76.22,116.46,89.29,116.46z"/>
		</g>
	</g>
	<g>
		<g>
			<path class="st6" d="M65.58,92.53c0,0.01,0,0.02,0,0.03c6.03-0.14,11.88-2.35,16.42-6.7c4.78-4.57,7.26-10.69,7.47-17.03
				c-0.06,0-0.12,0-0.19,0C76.22,68.82,65.58,79.46,65.58,92.53z"/>
		</g>
	</g>
	<g>
		<path class="st3" d="M89.13,65.85c0.87,0,1.57-0.7,1.57-1.57V58c0-0.87-0.7-1.57-1.57-1.57c-0.87,0-1.57,0.7-1.57,1.57v6.28
			C87.56,65.15,88.26,65.85,89.13,65.85z"/>
	</g>
	<g>
		<path class="st5" d="M89.13,119.19c-0.87,0-1.57,0.7-1.57,1.57v6.28c0,0.87,0.7,1.57,1.57,1.57c0.87,0,1.57-0.7,1.57-1.57v-6.28
			C90.7,119.9,90,119.19,89.13,119.19z"/>
	</g>
	<g>
		<path class="st4" d="M123.65,90.95h-6.28c-0.87,0-1.57,0.7-1.57,1.57c0,0.87,0.7,1.57,1.57,1.57h6.28c0.87,0,1.57-0.7,1.57-1.57
			C125.22,91.65,124.51,90.95,123.65,90.95z"/>
	</g>
	<g>
		<path class="st6" d="M62.46,92.52c0-0.87-0.7-1.57-1.57-1.57h-6.28c-0.87,0-1.57,0.7-1.57,1.57c0,0.87,0.7,1.57,1.57,1.57h6.28
			C61.75,94.09,62.46,93.39,62.46,92.52z"/>
	</g>
	<g>
		<path class="st6" d="M73.65,68.85c0.28,0.49,0.8,0.79,1.36,0.78c0.28,0,0.55-0.07,0.78-0.21c0.75-0.43,1.01-1.39,0.57-2.14
			l-3.14-5.43c-0.44-0.75-1.4-1-2.15-0.56c-0.74,0.43-0.99,1.38-0.57,2.13L73.65,68.85z"/>
	</g>
	<g>
		<path class="st4" d="M104.61,116.19c-0.44-0.75-1.4-1-2.15-0.56c-0.74,0.43-0.99,1.38-0.57,2.13l3.14,5.43
			c0.28,0.49,0.8,0.79,1.36,0.78c0.28,0,0.55-0.07,0.78-0.21c0.75-0.43,1.01-1.39,0.57-2.14L104.61,116.19z"/>
	</g>
	<g>
		<path class="st3" d="M113.59,79.97c0.28,0,0.55-0.07,0.78-0.21l5.43-3.14c0.77-0.4,1.06-1.35,0.66-2.12
			c-0.4-0.77-1.35-1.06-2.12-0.66c-0.04,0.02-0.08,0.04-0.11,0.07l-5.43,3.14c-0.75,0.43-1.01,1.39-0.57,2.14
			C112.51,79.67,113.03,79.97,113.59,79.97L113.59,79.97L113.59,79.97z"/>
	</g>
	<g>
		<path class="st5" d="M63.89,105.28l-5.43,3.14c-0.75,0.43-1.01,1.39-0.57,2.14c0.28,0.49,0.8,0.78,1.36,0.78
			c0.28,0,0.55-0.07,0.78-0.21l5.43-3.14c0.77-0.4,1.06-1.35,0.66-2.12c-0.4-0.77-1.35-1.06-2.12-0.66
			C63.96,105.24,63.92,105.26,63.89,105.28L63.89,105.28z"/>
	</g>
	<g>
		<path class="st6" d="M58.45,76.62l5.43,3.14c0.24,0.14,0.51,0.21,0.78,0.21c0.87,0,1.57-0.7,1.57-1.57c0-0.56-0.3-1.08-0.78-1.36
			l-5.43-3.14c-0.73-0.46-1.7-0.25-2.17,0.48c-0.46,0.73-0.25,1.7,0.48,2.17C58.37,76.57,58.41,76.6,58.45,76.62L58.45,76.62z"/>
	</g>
	<g>
		<path class="st4" d="M119.81,108.42l-5.43-3.14c-0.73-0.46-1.7-0.25-2.17,0.48c-0.46,0.73-0.25,1.7,0.48,2.17
			c0.04,0.02,0.08,0.05,0.11,0.07l5.43,3.14c0.24,0.14,0.51,0.21,0.78,0.21c0.87,0,1.57-0.7,1.57-1.57
			C120.59,109.22,120.29,108.7,119.81,108.42L119.81,108.42L119.81,108.42z"/>
	</g>
	<g>
		<path class="st3" d="M102.47,69.42c0.24,0.14,0.51,0.21,0.78,0.21c0.56,0,1.08-0.3,1.36-0.78l3.14-5.43
			c0.43-0.75,0.16-1.71-0.59-2.14c-0.75-0.42-1.69-0.17-2.13,0.57l-3.14,5.43C101.46,68.03,101.72,68.99,102.47,69.42z"/>
	</g>
	<g>
		<path class="st5" d="M75.79,115.62c-0.75-0.43-1.71-0.18-2.14,0.57l-3.14,5.43c-0.43,0.75-0.18,1.71,0.57,2.14
			c0.24,0.14,0.51,0.21,0.78,0.21c0.56,0,1.08-0.3,1.36-0.78l3.14-5.43C76.8,117.01,76.55,116.05,75.79,115.62
			C75.79,115.62,75.79,115.62,75.79,115.62z"/>
	</g>
</g>
</svg>
