<!-- Generator: Adobe Illustrator 23.0.2, SVG Export Plug-In  -->
<svg version="1.1" xmlns="http://www.w3.org/2000/svg" xmlns:xlink="http://www.w3.org/1999/xlink" x="0px" y="0px" width="26.54px"
	 height="24.84px" viewBox="0 0 26.54 24.84" style="enable-background:new 0 0 26.54 24.84;" xml:space="preserve">
<style type="text/css">
	.st0{fill:#333333;}
</style>
<defs>
</defs>
<g>
	<g>
		<path class="st0" d="M11.44,8.52c0.15,0.12,0.34,0.18,0.53,0.18c0.02,0,0.04,0,0.06,0h3.19c0.19,0.01,0.37-0.04,0.52-0.15
			l0.01-0.01c0.12-0.11,0.19-0.26,0.19-0.43c0.01-0.17-0.06-0.33-0.19-0.44l-0.01-0.01c-0.14-0.12-0.33-0.17-0.51-0.16h-1.99
			l1.96-2.19l0.2-0.22l0.11-0.14l0-0.01c0.04-0.06,0.08-0.13,0.1-0.19c0.03-0.08,0.05-0.16,0.05-0.24c0.02-0.21-0.09-0.41-0.27-0.52
			l-0.01-0.01c-0.2-0.09-0.42-0.13-0.64-0.12h-2.69c-0.17-0.01-0.35,0.04-0.49,0.15l-0.01,0c-0.13,0.11-0.2,0.27-0.19,0.43
			c0,0.31,0.15,0.43,0.29,0.47c0.19,0.05,0.39,0.08,0.59,0.07h1.48c-0.03,0.04-0.07,0.09-0.11,0.13l-0.45,0.5l-0.61,0.66l-0.71,0.78
			c-0.25,0.28-0.41,0.46-0.49,0.55c-0.22,0.27-0.19,0.66,0.06,0.89L11.44,8.52z M18.5,8.82l-0.47,0.55l-0.55,0.62
			c-0.2,0.22-0.33,0.37-0.4,0.46c-0.17,0.22-0.15,0.53,0.05,0.73l0.01,0.01c0.13,0.09,0.28,0.14,0.44,0.14c0.02,0,0.03,0,0.05,0
			h2.53c0.15,0.01,0.31-0.03,0.43-0.13l0.01-0.01c0.1-0.09,0.16-0.22,0.15-0.36c0-0.14-0.06-0.28-0.16-0.37l-0.01-0.01
			c-0.12-0.1-0.27-0.14-0.43-0.13h-1.53l1.52-1.7l0.17-0.19l0.1-0.13l0.01-0.01c0.04-0.05,0.07-0.11,0.09-0.16
			c0.03-0.06,0.04-0.13,0.04-0.2c0.02-0.18-0.07-0.35-0.23-0.44L20.33,7.5c-0.16-0.07-0.34-0.11-0.52-0.1h-2.16
			c-0.15-0.01-0.29,0.04-0.41,0.13c-0.11,0.09-0.17,0.22-0.16,0.36c0,0.27,0.15,0.37,0.24,0.4l0.01,0c0.16,0.04,0.32,0.06,0.48,0.05
			h1.12c-0.02,0.02-0.03,0.04-0.05,0.06L18.5,8.82z M26.36,7.39L26.36,7.39c-0.15-0.12-0.33-0.18-0.52-0.17h-2.01l1.96-2.19L26,4.81
			l0.13-0.16l0.01-0.01c0.04-0.06,0.08-0.13,0.1-0.19c0.03-0.08,0.05-0.16,0.05-0.24C26.3,4,26.2,3.79,26.01,3.69L26,3.68
			c-0.2-0.09-0.42-0.13-0.64-0.12h-2.71c-0.17-0.01-0.35,0.04-0.49,0.15l-0.01,0c-0.13,0.11-0.2,0.27-0.19,0.43
			c0,0.31,0.15,0.43,0.29,0.47c0.19,0.05,0.39,0.08,0.59,0.07h1.48c-0.03,0.04-0.07,0.09-0.11,0.13l-0.45,0.51l-1.3,1.44
			c-0.25,0.28-0.41,0.46-0.49,0.55c-0.22,0.27-0.19,0.66,0.06,0.89l0.01,0.01c0.17,0.13,0.38,0.19,0.59,0.18h3.18
			c0.03,0,0.06,0.01,0.09,0.01c0.16,0,0.31-0.05,0.44-0.14l0.01-0.01c0.12-0.11,0.19-0.26,0.19-0.43
			C26.55,7.66,26.48,7.5,26.36,7.39z M24.47,16.62c-0.2-0.2-0.49-0.26-0.75-0.16c-5.87,2.42-12.61-0.37-15.04-6.22
			C7.44,7.26,7.52,3.89,8.88,0.98c0.16-0.34,0.02-0.75-0.33-0.91C8.38-0.02,8.17-0.02,8,0.05c-6.58,2.7-9.73,10.23-7.03,16.8
			c2.05,4.97,6.87,7.98,11.94,7.98c1.63,0,3.29-0.31,4.88-0.97c3.01-1.24,5.43-3.54,6.8-6.49C24.71,17.12,24.67,16.82,24.47,16.62
			L24.47,16.62z M12.9,23.48c-6.36,0-11.53-5.17-11.53-11.51c0-4.05,2.14-7.81,5.61-9.88C6.61,3.3,6.43,4.55,6.43,5.81
			c0,3.44,1.34,6.67,3.78,9.11c2.44,2.43,5.68,3.77,9.12,3.77c1.08,0,2.15-0.13,3.19-0.4C20.38,21.53,16.81,23.46,12.9,23.48z"/>
	</g>
</g>
</svg>
