<?xml version="1.0" encoding="utf-8"?>
<!-- Generator: Adobe Illustrator 25.2.1, SVG Export Plug-In . SVG Version: 6.00 Build 0)  -->
<svg version="1.1" id="Layer_1" xmlns="http://www.w3.org/2000/svg" xmlns:xlink="http://www.w3.org/1999/xlink" x="0px" y="0px"
	 viewBox="0 0 493.1 76" style="enable-background:new 0 0 493.1 76;" xml:space="preserve">
<style type="text/css">
	.st0{fill:#FFFFFF;}
	.st1{fill:#F2CC19;}
	.st2{fill:#F2CC1A;}
	.st3{fill:#209FDA;}
	.st4{fill:#22B892;}
	.st5{fill:#F37458;}
	.st6{fill:#F2CD18;}
</style>
<path class="st0" d="M127.4,33.4c0.1,0.1,0.1,0.2,0.1,0.3v16.4c0,1.9-1.6,3.4-3.4,3.4s-3.3-1.5-3.3-3.4V33.8c0-0.1,0-0.2,0-0.3
	s0-0.1,0-0.3c0-3.8-3.1-6.8-6.9-6.8s-6.9,3-6.9,6.8v17c0,1.9-1.5,3.4-3.3,3.4s-3.4-1.5-3.4-3.4v-17c0-3.8-3-6.8-6.8-6.8
	s-6.9,3-6.9,6.8v17c0,1.9-1.5,3.4-3.3,3.4c-1.9,0-3.4-1.5-3.4-3.4v-17c0-7.4,6.1-13.5,13.6-13.5c4.1,0,7.7,1.8,10.2,4.7
	c2.5-2.9,6.1-4.7,10.2-4.7c7.5,0,13.6,6.1,13.6,13.5C127.5,33.3,127.5,33.4,127.4,33.4z"/>
<path class="st0" d="M131.3,36.5c0-9.4,7.6-17,17-17s17,7.6,17,17c0,9.3-7.6,17-17,17C138.9,53.5,131.3,45.8,131.3,36.5z M138,36.5
	c0,5.6,4.6,10.3,10.3,10.3s10.3-4.7,10.3-10.3c0-5.7-4.6-10.3-10.3-10.3S138,30.8,138,36.5z"/>
<path class="st0" d="M189.6,22.9c0,1.8-1.5,3.4-3.4,3.4c-5.7,0-10.3,4.6-10.3,10.3v13.6c0,1.8-1.5,3.4-3.3,3.4
	c-1.9,0-3.4-1.6-3.4-3.4V36.5c0-9.4,7.6-17,17-17C188.1,19.6,189.6,21.1,189.6,22.9z"/>
<path class="st0" d="M223.3,36.5c0,1.8-1.5,3.3-3.4,3.3h-23.3c1.4,4.1,5.2,7,9.7,7c1.5,0,4.3-0.1,7.6-2.2c1.5-1,3.6-0.1,4.5,1.6
	c0.8,1.7-0.1,3.4-1.6,4.5c-4.5,3-7.9,2.9-10.4,2.9c-9.4,0-17-7.6-17-17s7.6-17,17-17C214.5,19.5,223.3,25.5,223.3,36.5z M196.6,33.1
	h19.5c-1.4-4.7-5.8-6.9-9.8-6.9C201.8,26.2,198,29.1,196.6,33.1z"/>
<path class="st0" d="M254.6,23.1v33.3c0,7.6-6.3,13.9-14,13.9c-5.3,0-10.1-3-12.5-7.8c-0.8-1.6-0.1-3.7,1.5-4.5s3.6-0.1,4.4,1.6
	c1.3,2.5,3.8,4.1,6.6,4.1c4.1,0,7.3-3.2,7.3-7.2v-4.9c-2,1.2-4.4,1.9-7,1.9c-7.4,0-13.5-6-13.6-13.5c0-0.1,0-0.1,0-0.1V23.1
	c0-1.8,1.5-3.3,3.3-3.3s3.3,1.5,3.3,3.3v16.8c0,3.8,3.2,7,7,7c3.9,0,7-3.1,7-7V23.1c0-1.8,1.5-3.3,3.3-3.3
	C253.1,19.8,254.6,21.3,254.6,23.1z"/>
<path class="st0" d="M258.6,36.5c0-9.4,7.6-17,17-17s17,7.6,17,17c0,9.3-7.6,17-17,17C266.3,53.5,258.6,45.8,258.6,36.5z
	 M265.3,36.5c0,5.6,4.6,10.3,10.3,10.3s10.3-4.7,10.3-10.3c0-5.7-4.6-10.3-10.3-10.3S265.3,30.8,265.3,36.5z"/>
<path class="st0" d="M323.8,22.9v17V40c-0.1,7.5-6.1,13.6-13.7,13.6c-7.5,0-13.6-6.1-13.7-13.6v-0.1v-17c0-1.8,1.5-3.3,3.3-3.3
	c1.9,0,3.4,1.5,3.4,3.3v16.9c0,3.8,3.1,7,7,7s7-3.2,7-7V22.9c0-1.8,1.5-3.3,3.4-3.3C322.3,19.6,323.8,21.1,323.8,22.9z"/>
<path class="st0" d="M329.2,52.4c-0.6-0.6-1-1.5-1-2.4s0.3-1.7,1-2.4c0.7-0.6,1.5-0.9,2.4-0.9s1.8,0.3,2.4,0.9c0.7,0.7,1,1.5,1,2.4
	s-0.3,1.8-1,2.4c-0.6,0.7-1.5,1-2.4,1C330.6,53.5,329.8,53.1,329.2,52.4z"/>
<path class="st1" d="M339.2,50.1v-44c0-1.8,1.5-3.3,3.4-3.3c1.8,0,3.3,1.5,3.3,3.3v44c0,1.9-1.5,3.4-3.3,3.4
	C340.7,53.5,339.2,52,339.2,50.1z"/>
<path class="st1" d="M383.9,36.5c0,1.8-1.5,3.3-3.4,3.3h-23.3c1.4,4.1,5.2,7,9.7,7c1.5,0,4.3-0.1,7.6-2.2c1.5-1,3.6-0.1,4.5,1.6
	c0.8,1.7-0.1,3.4-1.6,4.5c-4.5,3-7.9,2.9-10.4,2.9c-9.4,0-17-7.6-17-17s7.6-17,17-17C375.1,19.5,383.9,25.5,383.9,36.5z M357.2,33.1
	h19.5c-1.4-4.7-5.8-6.9-9.8-6.9C362.4,26.2,358.6,29.1,357.2,33.1z"/>
<path class="st1" d="M407.1,22.9c0,1.8-1.5,3.4-3.4,3.4h-4.8v23.9c0,1.8-1.5,3.4-3.4,3.4c-1.8,0-3.3-1.6-3.3-3.4V26.3h-4.9
	c-1.8,0-3.3-1.6-3.3-3.4s1.5-3.3,3.3-3.3h4.9V6c0-1.8,1.5-3.3,3.3-3.3c1.9,0,3.4,1.5,3.4,3.3v13.5h4.8
	C405.6,19.6,407.1,21.1,407.1,22.9z"/>
<path class="st1" d="M434.3,22.9c0,1.8-1.5,3.4-3.4,3.4h-4.8v23.9c0,1.8-1.5,3.4-3.4,3.4c-1.8,0-3.3-1.6-3.3-3.4V26.3h-4.9
	c-1.8,0-3.3-1.6-3.3-3.4s1.5-3.3,3.3-3.3h4.9V6c0-1.8,1.5-3.3,3.3-3.3c1.9,0,3.4,1.5,3.4,3.3v13.5h4.8
	C432.8,19.6,434.3,21.1,434.3,22.9z"/>
<path class="st1" d="M468.1,36.5c0,1.8-1.5,3.3-3.4,3.3h-23.3c1.4,4.1,5.2,7,9.7,7c1.5,0,4.3-0.1,7.6-2.2c1.6-1,3.6-0.1,4.5,1.6
	c0.8,1.7-0.1,3.4-1.6,4.5c-4.5,3-7.9,2.9-10.4,2.9c-9.4,0-17-7.6-17-17s7.6-17,17-17C459.3,19.5,468.1,25.5,468.1,36.5z M441.4,33.1
	h19.5c-1.4-4.7-5.8-6.9-9.8-6.9C446.6,26.2,442.8,29.1,441.4,33.1z"/>
<path class="st1" d="M492.5,22.9c0,1.8-1.5,3.4-3.4,3.4c-5.7,0-10.3,4.6-10.3,10.3v13.6c0,1.8-1.5,3.4-3.3,3.4
	c-1.9,0-3.4-1.6-3.4-3.4V36.5c0-9.4,7.6-17,17-17C491,19.6,492.5,21.1,492.5,22.9z"/>
<g>
	<g>
		<path class="st1" d="M40.9,41.7c0,0.5-0.4,0.9-0.9,0.9h-5.9l0,0l0,0c-0.5,0-0.9-0.4-0.9-0.9V31.4c0-0.5,0.4-0.9,0.9-0.9
			s0.9,0.4,0.9,0.9v9.4h5C40.5,40.8,40.9,41.2,40.9,41.7z"/>
		<path class="st2" d="M40,42.9h-5.9c-0.7,0-1.3-0.5-1.3-1.2V31.4c0-0.7,0.5-1.2,1.2-1.2s1.2,0.6,1.2,1.2v9H40
			c0.7,0,1.2,0.6,1.2,1.2C41.3,42.3,40.7,42.9,40,42.9z M34.1,30.9c-0.3,0-0.5,0.2-0.5,0.5v10.3c0,0.3,0.2,0.5,0.5,0.5h6
			c0.3,0,0.5-0.2,0.5-0.5s-0.2-0.5-0.5-0.5h-5.5v-9.8C34.5,31.1,34.3,30.9,34.1,30.9z"/>
	</g>
</g>
<g>
	<g>
		<g>
			<path class="st3" d="M36.9,14.3L36.9,14.3c0.1,6,2.3,11.8,6.7,16.4c4.6,4.8,10.7,7.2,17,7.4c0-0.1,0-0.1,0-0.2
				C60.6,24.9,50,14.3,36.9,14.3z"/>
		</g>
	</g>
	<g>
		<g>
			<path class="st4" d="M60.6,38.1L60.6,38.1c-6,0.1-11.9,2.3-16.4,6.7c-4.8,4.6-7.3,10.7-7.5,17.1c0.1,0,0.1,0,0.2,0
				C50,61.9,60.6,51.3,60.6,38.1z"/>
		</g>
	</g>
	<g>
		<g>
			<path class="st5" d="M36.9,61.9L36.9,61.9c-0.1-6-2.3-11.9-6.7-16.4c-4.6-4.8-10.7-7.3-17-7.5c0,0.1,0,0.1,0,0.2
				C13.2,51.3,23.8,61.9,36.9,61.9z"/>
		</g>
	</g>
	<g>
		<g>
			<path class="st6" d="M13.2,38L13.2,38c6-0.1,11.9-2.3,16.4-6.7c4.8-4.6,7.3-10.7,7.5-17c-0.1,0-0.1,0-0.2,0
				C23.8,14.3,13.2,24.9,13.2,38z"/>
		</g>
	</g>
	<g>
		<path class="st3" d="M36.7,11.3c0.9,0,1.6-0.7,1.6-1.6V3.5c0-0.9-0.7-1.6-1.6-1.6s-1.6,0.7-1.6,1.6v6.3
			C35.1,10.6,35.8,11.3,36.7,11.3z"/>
	</g>
	<g>
		<path class="st5" d="M36.7,64.7c-0.9,0-1.6,0.7-1.6,1.6v6.3c0,0.9,0.7,1.6,1.6,1.6s1.6-0.7,1.6-1.6v-6.3
			C38.3,65.4,37.6,64.7,36.7,64.7z"/>
	</g>
	<g>
		<path class="st4" d="M71.2,36.4h-6.3c-0.9,0-1.6,0.7-1.6,1.6s0.7,1.6,1.6,1.6h6.3c0.9,0,1.6-0.7,1.6-1.6
			C72.8,37.1,72.1,36.4,71.2,36.4z"/>
	</g>
	<g>
		<path class="st6" d="M10,38c0-0.9-0.7-1.6-1.6-1.6H2.2c-0.9,0-1.6,0.7-1.6,1.6s0.7,1.6,1.6,1.6h6.3C9.3,39.6,10,38.9,10,38z"/>
	</g>
	<g>
		<path class="st6" d="M21.2,14.3c0.3,0.5,0.8,0.8,1.4,0.8c0.3,0,0.6-0.1,0.8-0.2c0.8-0.4,1-1.4,0.6-2.1l-3.1-5.4
			c-0.4-0.8-1.4-1-2.2-0.6c-0.7,0.4-1,1.4-0.6,2.1L21.2,14.3z"/>
	</g>
	<g>
		<path class="st4" d="M52.2,61.7c-0.4-0.8-1.4-1-2.2-0.6c-0.7,0.4-1,1.4-0.6,2.1l3.1,5.4c0.3,0.5,0.8,0.8,1.4,0.8
			c0.3,0,0.6-0.1,0.8-0.2c0.8-0.4,1-1.4,0.6-2.1L52.2,61.7z"/>
	</g>
	<g>
		<path class="st3" d="M61.2,25.5c0.3,0,0.6-0.1,0.8-0.2l5.4-3.1c0.8-0.4,1.1-1.3,0.7-2.1c-0.4-0.8-1.3-1.1-2.1-0.7
			c0,0-0.1,0-0.1,0.1l-5.4,3.1c-0.8,0.4-1,1.4-0.6,2.1C60.1,25.1,60.6,25.5,61.2,25.5L61.2,25.5L61.2,25.5z"/>
	</g>
	<g>
		<path class="st5" d="M11.5,50.8L6,53.9c-0.8,0.4-1,1.4-0.6,2.1c0.3,0.5,0.8,0.8,1.4,0.8c0.3,0,0.5-0.1,0.8-0.2l5.4-3.1
			c0.8-0.4,1.1-1.3,0.7-2.1c-0.4-0.8-1.3-1.1-2.1-0.7C11.5,50.7,11.5,50.7,11.5,50.8L11.5,50.8z"/>
	</g>
	<g>
		<path class="st6" d="M6,22.1l5.4,3.1c0.2,0.1,0.5,0.2,0.8,0.2c0.9,0,1.6-0.7,1.6-1.6c0-0.6-0.3-1.1-0.8-1.4l-5.4-3.1
			c-0.7-0.5-1.7-0.2-2.2,0.5C5,20.6,5.2,21.6,5.9,22L6,22.1L6,22.1z"/>
	</g>
	<g>
		<path class="st4" d="M67.4,53.9L62,50.8c-0.7-0.5-1.7-0.2-2.2,0.5s-0.2,1.7,0.5,2.2l0.1,0.1l5.4,3.1c0.2,0.1,0.5,0.2,0.8,0.2
			c0.9,0,1.6-0.7,1.6-1.6C68.2,54.7,67.9,54.2,67.4,53.9L67.4,53.9L67.4,53.9z"/>
	</g>
	<g>
		<path class="st3" d="M50,14.9c0.2,0.1,0.5,0.2,0.8,0.2c0.6,0,1.1-0.3,1.4-0.8l3.1-5.4c0.4-0.8,0.2-1.7-0.6-2.1
			C54,6.3,53,6.6,52.6,7.3l-3.1,5.4C49,13.5,49.3,14.5,50,14.9z"/>
	</g>
	<g>
		<path class="st5" d="M23.4,61.1c-0.8-0.4-1.7-0.2-2.1,0.6l-3.1,5.4c-0.4,0.8-0.2,1.7,0.6,2.1c0.2,0.1,0.5,0.2,0.8,0.2
			c0.6,0,1.1-0.3,1.4-0.8l3.1-5.4C24.4,62.5,24.1,61.5,23.4,61.1L23.4,61.1z"/>
	</g>
</g>
</svg>
