<?xml version="1.0" encoding="utf-8"?>
<svg version="1.1" xmlns:xlink="http://www.w3.org/1999/xlink" width="17px" height="22px" xmlns="http://www.w3.org/2000/svg">
  <g transform="matrix(1 0 0 1 -292 -398 )">
    <path d="M 10.8972820331804 18.1195199435228  C 10.9032827391458 18.39908224497  11.1193081539005 18.6227320861278  11.3893399223438 18.6227320861278  C 11.6593716907872 18.6227320861278  11.8813978115072 18.3928697493823  11.8813978115072 18.1133074479351  L 11.8813978115072 8.52742675608895  C 11.8813978115072 8.24786445464172  11.6593716907872 8.01800211789622  11.3893399223438 8.01800211789622  C 11.1193081539005 8.01800211789622  10.8972820331804 8.24786445464172  10.8972820331804 8.52742675608895  L 10.8972820331804 18.1195199435228  Z M 5.11860218849276 18.1195199435228  C 5.11860218849276 18.39908224497  5.33462760324744 18.6227320861278  5.61066007765619 18.6227320861278  C 5.88069184609954 18.6227320861278  6.10271796681963 18.3928697493823  6.10271796681963 18.1133074479351  L 6.10271796681963 8.52742675608895  C 6.10271796681963 8.24786445464172  5.88069184609954 8.01800211789622  5.61066007765619 8.01800211789622  C 5.34062830921285 8.01800211789622  5.11860218849276 8.24786445464172  5.11860218849276 8.52742675608895  L 5.11860218849276 18.1195199435228  Z M 15.6138369219908 6.62019061066008  C 16.513942816802 6.36547829156371  17.1020120014119 5.45845393575715  16.9819978821038 4.49551711966113  C 16.8619837627956 3.53258030356512  16.0638898693964 2.80571831980233  15.1277797387928 2.80571831980233  L 12.6194846452524 2.80571831980233  L 12.6194846452524 2.17204376985528  C 12.6194846452524 1.63776914931168  12.4214613483939 1.12834451111895  12.0554182845041 0.749382280268265  C 11.6833745146488 0.370420049417577  11.1913166254853 0.159195199435226  10.6752559124603 0.165407695022942  L 6.32474408753971 0.165407695022942  C 5.80868337451465 0.159195199435226  5.31062477938581 0.370420049417577  4.94458171549594 0.749382280268265  C 4.58453935757148 1.12213201553124  4.38051535474762 1.63776914931168  4.38051535474762 2.17204376985528  L 4.38051535474762 2.80571831980233  L 1.8722202612072 2.80571831980233  C 0.930109424638193 2.80571831980233  0.138016237204377 3.52636780797741  0.0180021178962232 4.49551711966114  C -0.102012001411931 5.45845393575715  0.486057183198023 6.37169078715143  1.39216378397459 6.62019061066008  L 1.39216378397459 19.1259442287328  C 1.39216378397459 19.865231203671  1.65619484645252 20.5610307094952  2.11224849982351 21.0580303565125  C 2.56830215319449 21.5550300035298  3.1983762795623 21.8408048005648  3.86445464172256 21.8408048005648  L 13.1415460642429 21.8408048005648  C 13.8016237204377 21.8408048005648  14.4376985527709 21.5550300035298  14.8937522061419 21.0580303565125  C 15.3498058595129 20.5610307094952  15.6138369219908 19.865231203671  15.6138369219908 19.1259442287328  L 15.6138369219908 6.62019061066008  Z M 5.36463113307448 2.80571831980233  L 5.36463113307448 2.17204376985528  C 5.35863042710907 1.90490645958348  5.460642428521 1.65019414048711  5.64066360748323 1.46381927285563  C 5.82068478644547 1.27744440522414  6.06671373102718 1.17183198023297  6.32474408753971 1.17804447582068  L 10.6752559124603 1.17804447582068  C 10.9332862689728 1.17183198023297  11.1793152135545 1.27744440522414  11.3593363925168 1.46381927285563  C 11.539357571479 1.65019414048711  11.6413695728909 1.90490645958348  11.6353688669255 2.17204376985528  L 11.6353688669255 2.80571831980233  L 5.36463113307448 2.80571831980233  Z M 14.629721143664 19.1197317331451  L 14.6237204376986 19.1197317331451  C 14.6237204376986 20.0764560536534  13.9696434874691 20.8219555241793  13.1355453582774 20.8219555241793  L 3.86445464172256 20.8219555241793  C 3.02435580656548 20.8219555241793  2.37627956230145 20.0764560536534  2.37627956230145 19.1197317331451  L 2.37627956230145 7  L 14.629721143664 7  L 14.629721143664 19.1197317331451  Z M 16.0098835157077 4.73159195199435  C 16.0098835157077 5.23480409459936  15.6138369219908 5.64482880338863  15.1277797387928 6  L 1.8722202612072 6  C 1.38616307800918 5.64482880338863  0.99011648429227 5.23480409459936  0.99011648429227 4.73159195199435  C 0.99011648429227 4.22837980938934  1.38616307800918 3.81835510060007  1.8722202612072 4  L 15.1277797387928 4  C 15.6138369219908 3.81835510060007  16.0098835157077 4.22837980938934  16.0098835157077 4.73159195199435  Z M 8.00494175785387 18.1195199435228  C 8.01094246381927 18.39908224497  8.22696787857395 18.6227320861278  8.4969996470173 18.6227320861278  C 8.76703141546064 18.6227320861278  8.98905753618073 18.3928697493823  8.98905753618073 18.1133074479351  L 8.98905753618073 8.52742675608895  C 8.98905753618073 8.24786445464172  8.76703141546064 8.01800211789622  8.4969996470173 8.01800211789622  C 8.22696787857395 8.01800211789622  8.00494175785387 8.24786445464172  8.00494175785387 8.52742675608895  L 8.00494175785387 18.1195199435228  Z " fill-rule="nonzero" fill="#333333" stroke="none" transform="matrix(1 0 0 1 292 398 )" />
  </g>
</svg>