<!-- Generator: Adobe Illustrator 23.0.2, SVG Export Plug-In  -->
<svg version="1.1" xmlns="http://www.w3.org/2000/svg" xmlns:xlink="http://www.w3.org/1999/xlink" x="0px" y="0px" width="28.33px"
	 height="34.88px" viewBox="0 0 28.33 34.88" style="enable-background:new 0 0 28.33 34.88;" xml:space="preserve">
<style type="text/css">
	.st0{fill:#FFFFFF;}
</style>
<defs>
</defs>
<g>
	<g>
		<path class="st0" d="M18.98,29.71c0.45,0,0.82-0.37,0.82-0.82V13.46c0-0.45-0.37-0.82-0.82-0.82c-0.45,0-0.82,0.37-0.82,0.82V28.9
			C18.17,29.35,18.53,29.71,18.98,29.71z M9.35,29.71c0.45,0,0.82-0.37,0.82-0.82V13.46c0-0.45-0.37-0.82-0.82-0.82
			c-0.45,0-0.82,0.37-0.82,0.82V28.9C8.53,29.35,8.89,29.71,9.35,29.71z M28.3,6.97c-0.2-1.55-1.53-2.72-3.09-2.72h-4.18V3.23
			c0-0.86-0.33-1.68-0.94-2.29C19.47,0.33,18.65-0.01,17.79,0h-7.25C9.68-0.01,8.85,0.33,8.24,0.94C7.64,1.54,7.3,2.37,7.3,3.23
			v1.02H3.12c-1.57,0-2.89,1.16-3.09,2.72c-0.2,1.55,0.78,3.02,2.29,3.42v20.13c0,1.19,0.44,2.31,1.2,3.11
			c0.76,0.8,1.81,1.26,2.92,1.26h15.46c1.1,0,2.16-0.46,2.92-1.26c0.76-0.8,1.2-1.92,1.2-3.11V10.39C27.52,9.98,28.5,8.52,28.3,6.97
			z M8.94,3.23C8.93,2.8,9.1,2.39,9.4,2.09c0.3-0.3,0.71-0.47,1.14-0.46h7.25c0.43-0.01,0.84,0.16,1.14,0.46
			c0.3,0.3,0.47,0.71,0.46,1.14v1.02H8.94V3.23z M24.37,30.51c0,1.54-1.09,2.74-2.48,2.74H6.44c-1.4,0-2.48-1.2-2.48-2.74V10.46
			h20.42V30.51z M25.21,8.82H3.12c-0.81,0-1.47-0.66-1.47-1.47c0-0.81,0.66-1.47,1.47-1.47h22.09c0.81,0,1.47,0.66,1.47,1.47
			C26.68,8.16,26.02,8.82,25.21,8.82z M14.16,29.71c0.45,0,0.82-0.37,0.82-0.82V13.46c0-0.45-0.37-0.82-0.82-0.82
			c-0.45,0-0.82,0.37-0.82,0.82V28.9C13.35,29.35,13.71,29.71,14.16,29.71z"/>
	</g>
</g>
</svg>
