<!-- Generator: Adobe Illustrator 23.0.2, SVG Export Plug-In  -->
<svg version="1.1" xmlns="http://www.w3.org/2000/svg" xmlns:xlink="http://www.w3.org/1999/xlink" x="0px" y="0px" width="27.31px"
	 height="34.14px" viewBox="0 0 27.31 34.14" style="enable-background:new 0 0 27.31 34.14;" xml:space="preserve">
<style type="text/css">
	.st0{fill:#333333;}
</style>
<defs>
</defs>
<g>
	<path class="st0" d="M27.15,6.99l-6.83-6.83C20.21,0.06,20.07,0,19.92,0H3.98C1.78,0,0,1.78,0,3.98v26.17
		c0,2.2,1.78,3.98,3.98,3.98h19.35c2.2,0,3.98-1.78,3.98-3.98V7.4C27.31,7.25,27.25,7.1,27.15,6.99z M20.48,1.94l4.89,4.89h-2.04
		c-1.57,0-2.84-1.27-2.85-2.85V1.94z M26.17,23.9h-0.11v1.14h0.11v5.12c0,1.57-1.27,2.84-2.85,2.85H3.98
		c-1.57,0-2.84-1.27-2.85-2.85v-5.12h0.03V23.9H1.14V3.98c0-1.57,1.27-2.84,2.85-2.85h15.36v2.85c0,2.2,1.78,3.98,3.98,3.98h2.85
		V23.9z"/>
</g>
<path class="st0" d="M20.51,18.66c-0.71,0-1.58,0.09-2.6,0.28c-1.41-1.5-2.89-3.69-3.93-5.85c1.03-4.35,0.52-4.97,0.29-5.26
	c-0.24-0.31-0.59-0.81-0.97-0.81c-0.16,0-0.61,0.07-0.79,0.13c-0.45,0.15-0.68,0.49-0.88,0.94c-0.55,1.28,0.2,3.46,0.97,5.14
	c-0.66,2.62-1.77,5.76-2.93,8.31c-2.93,1.34-4.49,2.66-4.63,3.92C5,25.91,5.11,26.59,5.91,27.19c0.22,0.16,0.48,0.25,0.75,0.25l0,0
	c0.68,0,1.36-0.52,2.15-1.63c0.58-0.81,1.2-1.91,1.84-3.29c2.07-0.91,4.63-1.72,6.82-2.18c1.22,1.17,2.32,1.77,3.26,1.77
	c0.69,0,1.29-0.32,1.72-0.92c0.45-0.63,0.55-1.19,0.3-1.67C22.45,18.94,21.72,18.66,20.51,18.66z M6.68,26.14
	c-0.36-0.28-0.34-0.46-0.33-0.53c0.05-0.43,0.72-1.19,2.37-2.12C7.47,25.79,6.79,26.1,6.68,26.14z M13.02,8.42
	c0.03-0.01,0.81,0.85,0.07,2.49C11.99,9.78,12.94,8.44,13.02,8.42z M11.42,20.81c0.78-1.87,1.51-3.93,2.07-5.85
	c0.87,1.56,1.91,3.07,2.95,4.29C14.79,19.63,13.04,20.18,11.42,20.81z M21.39,20.44c-0.24,0.33-0.75,0.34-0.94,0.34
	c-0.41,0-0.57-0.25-1.2-0.73c0.52-0.07,1.01-0.08,1.4-0.08c0.69,0,0.81,0.1,0.91,0.15C21.55,20.17,21.51,20.27,21.39,20.44z"/>
</svg>
