<svg version="1.1" xmlns="http://www.w3.org/2000/svg" xmlns:xlink="http://www.w3.org/1999/xlink" x="0px" y="0px" width="25.29px"
	 height="25.78px" viewBox="0 0 25.29 25.78" style="enable-background:new 0 0 25.29 25.78;" xml:space="preserve">
<style type="text/css">
	.st0{fill:#404040;}
	.st1{fill:#404040;stroke:#404040;stroke-width:0.5;stroke-miterlimit:10;}
</style>
<defs>
</defs>
<path class="st0" d="M3.74,7.99h11.72V6.55H3.74V7.99z"/>
<path class="st0" d="M7.98,3.75H3.74v1.43h4.24V3.75z"/>
<path class="st0" d="M11.72,9.36H3.74v1.43h7.98V9.36z"/>
<path class="st0" d="M12.17,10.79h3.3V9.36h-3.3V10.79z"/>
<path class="st0" d="M3.74,13.6h11.72v-1.43H3.74V13.6z"/>
<path class="st0" d="M3.74,19.22h8.72v-1.43H3.74V19.22z"/>
<path class="st0" d="M7.96,16.41h6.51v-1.43H7.96V16.41z"/>
<path class="st0" d="M7.51,14.98H3.74v1.43h3.77V14.98z"/>
<path class="st0" d="M3.74,22.03h2.37V20.6H3.74V22.03z"/>
<path class="st0" d="M6.55,22.03h4.92V20.6H6.55V22.03z"/>
<path class="st1" d="M24.05,11.11c-0.7-0.7-1.83-0.7-2.53,0l-7.09,7.09c-0.05,0.05-0.08,0.11-0.1,0.17l-0.93,3.37
	c-0.04,0.14,0,0.29,0.1,0.39c0.1,0.1,0.25,0.14,0.39,0.1l3.37-0.93c0.07-0.02,0.13-0.05,0.17-0.1l7.09-7.09c0.7-0.7,0.7-1.83,0-2.53
	L24.05,11.11z M15.3,18.46l5.8-5.8l1.87,1.87l-5.8,5.8L15.3,18.46z M14.92,19.21l1.5,1.5l-2.07,0.57L14.92,19.21z M23.96,13.54
	l-0.42,0.42l-1.87-1.87l0.42-0.42c0.39-0.39,1.02-0.39,1.41,0l0.47,0.47C24.34,12.52,24.34,13.15,23.96,13.54z"/>
<g>
	<path class="st0" d="M17.78,21.97v2.38H1.43V1.43H13.1V5.4c0,0.39,0.32,0.72,0.71,0.72h3.97v7.54l1.43-1.43V5.4
		c0-0.03,0-0.05-0.01-0.07c-0.01-0.06-0.02-0.11-0.03-0.16l0-0.01c0-0.01-0.01-0.03-0.02-0.06C19.11,5.02,19.06,4.95,19,4.89
		l-4.68-4.68c-0.06-0.06-0.13-0.11-0.22-0.15c-0.02-0.01-0.04-0.02-0.06-0.02C13.99,0.02,13.93,0.01,13.87,0c-0.01,0-0.03,0-0.05,0
		H0.71C0.32,0,0,0.32,0,0.71v24.35c0,0.39,0.32,0.72,0.71,0.72H18.5c0.39,0,0.71-0.32,0.71-0.72v-4.52L17.78,21.97z M14.53,2.44
		l2.24,2.24h-2.24V2.44z"/>
</g>
</svg>