<!-- Generator: Adobe Illustrator 23.0.2, SVG Export Plug-In  -->
<svg version="1.1" xmlns="http://www.w3.org/2000/svg" xmlns:xlink="http://www.w3.org/1999/xlink" x="0px" y="0px" width="31.46px"
	 height="31.46px" viewBox="0 0 31.46 31.46" style="enable-background:new 0 0 31.46 31.46;" xml:space="preserve">
<style type="text/css">
	.st0{fill:#606060;}
</style>
<defs>
</defs>
<path class="st0" d="M28.79,1.41c-1.88-1.88-4.94-1.88-6.83,0L2.83,20.54c-0.13,0.13-0.23,0.29-0.28,0.47L0.04,30.1
	c-0.1,0.37,0,0.77,0.27,1.04c0.27,0.27,0.67,0.38,1.04,0.28l9.08-2.52c0.18-0.05,0.34-0.14,0.47-0.28L30.05,9.5
	c1.88-1.89,1.88-4.94,0-6.82L28.79,1.41z M5.17,21.24L20.83,5.58l5.05,5.05L10.22,26.29L5.17,21.24z M4.16,23.27l4.03,4.03
	l-5.58,1.55L4.16,23.27z M28.53,7.98l-1.14,1.14l-5.05-5.05l1.14-1.14c1.05-1.05,2.74-1.05,3.79,0l1.26,1.26
	C29.58,5.24,29.58,6.93,28.53,7.98z"/>
</svg>
