<?xml version="1.0" encoding="utf-8"?>
<!-- Generator: Adobe Illustrator 16.0.0, SVG Export Plug-In . SVG Version: 6.00 Build 0)  -->
<!DOCTYPE svg PUBLIC "-//W3C//DTD SVG 1.1//EN" "http://www.w3.org/Graphics/SVG/1.1/DTD/svg11.dtd">
<svg version="1.1" id="Layer_1" xmlns="http://www.w3.org/2000/svg" xmlns:xlink="http://www.w3.org/1999/xlink" x="0px" y="0px"
	 width="30px" height="31px" viewBox="0 0 30 31" enable-background="new 0 0 30 31" xml:space="preserve">
<g transform="matrix(1 0 0 1 -465 -74 )">
	<path fill="#FFFFFF" d="M491.545,104.982c-3.849,0.018-7.697,0.009-11.554,0.009c-3.777,0-7.545,0-11.322,0
		c-2.303,0-3.669-1.403-3.669-3.767c0-7.824,0-15.651,0-23.486c0-2.307,1.384-3.738,3.625-3.738c5.044,0,10.098,0,15.143,0
		c0.179,0,0.366-0.028,0.536,0.009c0.589,0.12,1.018,0.489,1.009,1.107c-0.018,0.609-0.446,0.978-1.045,1.07
		c-0.196,0.028-0.41,0.009-0.607,0.009c-5.044,0-10.098,0-15.142,0c-1.089,0-1.384,0.314-1.384,1.458c0,7.909,0,15.818,0,23.718
		c0,1.09,0.313,1.412,1.348,1.412c7.679,0,15.348,0,23.027,0c1.054,0,1.349-0.305,1.349-1.402c0-5.196,0-10.383,0-15.579
		c0-0.185-0.01-0.369,0-0.554c0.035-0.72,0.545-1.311,1.107-1.283c0.526,0.028,1.018,0.6,1.018,1.283
		c0.009,5.482,0.035,10.964-0.018,16.446C494.946,103.635,493.465,104.972,491.545,104.982z"/>
</g>
<g transform="matrix(1 0 0 1 -470 -76 )">
	<path fill="#FFFFFF" d="M499.838,81.375c0.797-2.39-1.458-5.373-4.256-5.373c-0.874-0.049-1.719,0.438-2.448,1.166
		c-4.8,4.809-9.598,9.618-14.397,14.427c-0.213,0.214-0.428,0.428-0.544,0.719c-0.894,2.206-1.797,4.401-2.701,6.597
		c-0.213,0.524-0.262,1.02,0.146,1.466c0.427,0.468,0.933,0.37,1.447,0.155c1.914-0.795,3.828-1.563,5.742-2.369
		c0.554-0.234,1.136-0.428,1.583-0.884c4.857-4.867,9.715-9.735,14.582-14.593C499.371,82.308,499.672,81.881,499.838,81.375z
		 M497.583,79.54c0.399,0.612,0.264,1.156-0.232,1.651c-4.751,4.741-9.492,9.482-14.242,14.233
		c-0.223,0.212-0.457,0.378-0.748,0.495c-1.224,0.486-2.438,1.001-3.886,1.603c0.612-1.516,1.029-2.846,1.681-4.04
		c0.612-1.118,1.71-1.876,2.604-2.78c3.808-3.837,7.636-7.655,11.463-11.482c0.214-0.214,0.429-0.427,0.661-0.631
		c0.146-0.126,0.301-0.263,0.477-0.321C495.99,78.023,496.952,78.578,497.583,79.54z"/>
</g>
</svg>
