<!-- Generator: Adobe Illustrator 23.0.3, SVG Export Plug-In  -->
<svg version="1.1" xmlns="http://www.w3.org/2000/svg" xmlns:xlink="http://www.w3.org/1999/xlink" x="0px" y="0px" width="131px"
	 height="131px" viewBox="0 0 131 131" style="enable-background:new 0 0 131 131;" xml:space="preserve">
<style type="text/css">
	.st0{fill:#4167B2;}
	.st1{fill:#FFFFFF;}
</style>
<defs>
</defs>
<g>
	<path class="st0" d="M113.3,131H17.7C7.9,131,0,123.1,0,113.3V17.7C0,7.9,7.9,0,17.7,0h95.6c9.8,0,17.7,7.9,17.7,17.7v95.6
		C131,123.1,123.1,131,113.3,131z"/>
</g>
<g>
	<path class="st1" d="M81.5,31.8l-8.9,0c-10,0-16.4,6.6-16.4,16.8v7.8h-8.9c-0.8,0-1.4,0.6-1.4,1.4V69c0,0.8,0.6,1.4,1.4,1.4h8.9
		v28.4c0,0.8,0.6,1.4,1.4,1.4h11.6c0.8,0,1.4-0.6,1.4-1.4V70.4h10.4c0.8,0,1.4-0.6,1.4-1.4l0-11.2c0-0.4-0.1-0.7-0.4-1
		c-0.3-0.3-0.6-0.4-1-0.4H70.7v-6.6c0-3.2,0.8-4.8,4.9-4.8l6,0c0.8,0,1.4-0.6,1.4-1.4V33.2C82.9,32.4,82.3,31.8,81.5,31.8z"/>
</g>
</svg>
