<!-- Generator: Adobe Illustrator 23.0.2, SVG Export Plug-In  -->
<svg version="1.1" xmlns="http://www.w3.org/2000/svg" xmlns:xlink="http://www.w3.org/1999/xlink" x="0px" y="0px"
	 width="176.42px" height="176.4px" viewBox="0 0 176.42 176.4" style="enable-background:new 0 0 176.42 176.4;"
	 xml:space="preserve">
<style type="text/css">
	.st0{fill:#9B9B9B;}
</style>
<defs>
</defs>
<path class="st0" d="M88.18,36.46c-8.82,0-17.63-0.01-26.45,0c-2.86,0-5.52-0.36-5.64-4.03c-0.13-3.96,2.56-4.46,5.7-4.45
	c17.63,0.03,35.27,0.02,52.9,0c2.89,0,5.52,0.36,5.65,4.01c0.14,3.95-2.57,4.47-5.7,4.46c-8.82-0.04-17.63-0.01-26.45-0.01
	C88.18,36.44,88.18,36.45,88.18,36.46z"/>
<path class="st0" d="M176.37,51.5c-0.06-8.91-5.45-14.21-14.39-14.34c-4.83-0.07-9.67-0.16-14.49,0.04
	c-2.61,0.11-3.44-0.65-3.39-3.32c0.15-8.49,0.05-16.99,0.03-25.49c-0.02-7.66-0.75-8.4-8.16-8.4c-15.83,0-31.66,0-47.49,0
	c0,0.01,0,0.01,0,0.02C71.99,0.02,55.49,0,39,0.03c-5.36,0.01-6.74,1.41-6.77,6.8c-0.04,9-0.1,18,0.04,26.99
	c0.04,2.56-0.59,3.51-3.31,3.39c-4.99-0.22-10-0.16-14.99-0.05c-8.28,0.18-13.88,5.6-13.9,13.81c-0.09,27.99-0.09,55.98-0.02,83.97
	c0.02,7.85,5.25,13.1,13.08,13.4c3.66,0.14,7.33,0.08,11,0.06c2.14-0.01,2.89,0.67,2.43,3.03c-1.13,5.7-1.89,11.47-2.88,17.2
	c-1.08,6.3,0.08,7.74,6.59,7.75c20.59,0.02,41.17,0.01,61.76,0.01c18.29,0,36.58,0.02,54.87-0.01c5.57-0.01,6.89-1.59,6.05-6.97
	c-0.44-2.79-1-5.56-1.51-8.33c-2.34-12.51-2.34-12.51,10.53-12.69c9.28-0.13,14.39-5.24,14.43-14.64
	c0.06-13.62,0.02-27.25,0.02-40.87C176.39,79.09,176.46,65.3,176.37,51.5z M45.64,8.38C59.97,8.54,74.3,8.45,88.63,8.45
	c14.16,0,28.33,0.1,42.49-0.07c3.32-0.04,4.26,0.96,4.22,4.25c-0.18,13.16-0.16,26.33-0.01,39.49c0.04,3.14-1.04,3.93-4.04,3.92
	c-28.66-0.1-57.32-0.11-85.99-0.02c-3.1,0.01-4-0.98-3.97-4c0.13-13.16,0.16-26.33-0.02-39.49C41.28,9.15,42.44,8.35,45.64,8.38z
	 M138.94,168.11c-16.99-0.25-34-0.1-50.99-0.1c-16.83,0-33.67-0.14-50.49,0.1c-4.17,0.06-4.62-1.37-3.99-4.9
	c2.34-13.07,4.58-26.16,6.62-39.28c0.43-2.78,1.44-3.56,4.12-3.56c29.33,0.08,58.66,0.09,87.99,0.02c2.66-0.01,3.73,0.74,4.17,3.52
	c2.05,13.12,4.31,26.21,6.64,39.29C143.61,166.7,143.1,168.17,138.94,168.11z M168.06,59.03c-0.13,11.33-0.03,22.66-0.03,33.99
	c0,13.16,0.02,26.32-0.01,39.49c-0.01,5.65-1.83,7.44-7.43,7.52c-12.61,0.18-12.6,0.18-14.59-12.24c-0.53-3.28-1.46-6.53-1.64-9.82
	c-0.27-4.85-2.82-6.01-7.22-6c-32.66,0.11-65.31,0.11-97.97,0c-4.51-0.02-6.65,1.49-7.14,6.16c-0.63,6.11-2.05,12.13-2.85,18.23
	c-0.35,2.64-1.22,3.87-4.04,3.71c-3.49-0.19-7,0.02-10.49-0.07c-4-0.1-6.22-2.24-6.22-6.24c-0.01-14.79,0.11-29.58,0.12-44.36
	c0-11.63-0.13-23.25-0.13-34.88c0-7.13,1.3-8.36,8.38-8.37c0.67,0,1.33-0.01,2,0c4.3,0.09,9.73-1.36,12.59,0.72
	c2.74,2,0.71,7.76,0.89,11.86c0.2,4.26,2.33,5.74,6.42,5.71c13.79-0.12,27.58-0.05,41.37-0.05c18.95,0,37.91,0.01,56.86-0.01
	c6.17-0.01,7.19-1.07,7.23-7.3c0.08-10.93,0.08-10.86,11.08-10.95C167.52,46.03,168.22,45.13,168.06,59.03z"/>
<path class="st0" d="M139.25,88c-0.21,2.65-1.53,4.3-4.31,4.33c-2.73,0.03-4.49-1.63-4.52-4.16c-0.02-2.26,1.55-3.94,4.07-4.1
	C137.26,83.88,138.77,85.31,139.25,88z"/>
<path class="st0" d="M158.13,88.27c-0.72,2.54-2.09,4.25-4.91,4.06c-2.57-0.18-4.04-1.8-3.95-4.24c0.09-2.4,1.55-3.99,4.18-4.02
	C156.3,84.02,157.52,85.82,158.13,88.27z"/>
<path class="st0" d="M120.37,88.08c-0.11,2.52-1.3,4.11-3.85,4.23c-2.71,0.13-4.4-1.19-4.43-4.03c-0.03-2.79,1.5-4.24,4.28-4.19
	C118.95,84.13,120.15,85.65,120.37,88.08z"/>
</svg>
