<!-- Generator: Adobe Illustrator 23.0.3, SVG Export Plug-In  -->
<svg version="1.1" xmlns="http://www.w3.org/2000/svg" xmlns:xlink="http://www.w3.org/1999/xlink" x="0px" y="0px" width="131px"
	 height="131px" viewBox="0 0 131 131" style="enable-background:new 0 0 131 131;" xml:space="preserve">
<style type="text/css">
	.st0{fill:#DC3F1E;}
	.st1{fill:#FFFFFF;}
</style>
<defs>
</defs>
<path class="st0" d="M113.3,131H17.7C7.9,131,0,123.1,0,113.3V17.7C0,7.9,7.9,0,17.7,0h95.6c9.8,0,17.7,7.9,17.7,17.7v95.6
	C131,123.1,123.1,131,113.3,131z"/>
<g>
	<path class="st1" d="M47,72.8l-2.3,8.4l-8.2,0.2c-2.5-4.6-3.9-9.8-3.9-15.4c0-5.4,1.3-10.4,3.6-14.9h0l7.3,1.3l3.2,7.3
		c-0.7,2-1,4.1-1,6.3C45.7,68.4,46.2,70.7,47,72.8z"/>
	<path class="st1" d="M96.8,59.9c0.4,2,0.6,4,0.6,6.1c0,2.3-0.2,4.6-0.7,6.8c-1.6,7.4-5.7,13.9-11.4,18.5l0,0L76,90.8l-1.3-8.2
		c3.8-2.2,6.7-5.7,8.3-9.9H65.7V59.9h17.6H96.8L96.8,59.9z"/>
	<path class="st1" d="M85.3,91.3L85.3,91.3c-5.6,4.5-12.6,7.1-20.3,7.1c-12.3,0-23.1-6.9-28.5-17L47,72.8c2.7,7.3,9.8,12.5,18,12.5
		c3.5,0,6.9-1,9.7-2.6L85.3,91.3z"/>
	<path class="st1" d="M85.7,41.1l-10.5,8.6c-3-1.8-6.4-2.9-10.2-2.9c-8.4,0-15.6,5.4-18.2,13l-10.6-8.6h0
		C41.6,40.7,52.5,33.6,65,33.6C72.9,33.6,80.1,36.4,85.7,41.1z"/>
</g>
</svg>
