<!-- Generator: Adobe Illustrator 23.0.2, SVG Export Plug-In  -->
<svg version="1.1" xmlns="http://www.w3.org/2000/svg" xmlns:xlink="http://www.w3.org/1999/xlink" x="0px" y="0px" width="25.31px"
	 height="22.53px" viewBox="0 0 25.31 22.53" style="enable-background:new 0 0 25.31 22.53;" xml:space="preserve">
<style type="text/css">
	.st0{fill:#9B9B9B;}
</style>
<defs>
</defs>
<g>
	<g>
		<path class="st0" d="M25.04,8.9l-12-8.77c-0.23-0.17-0.55-0.17-0.78,0l-12,8.77c-0.29,0.21-0.36,0.63-0.14,0.92
			c0.21,0.29,0.63,0.36,0.92,0.14l11.61-8.49l11.61,8.49c0.12,0.09,0.25,0.13,0.39,0.13c0.2,0,0.4-0.09,0.53-0.27
			C25.4,9.52,25.34,9.11,25.04,8.9z M21.86,10.11c-0.36,0-0.66,0.29-0.66,0.66v10.45h-5.26v-5.71c0-1.81-1.48-3.28-3.29-3.28
			c-1.81,0-3.29,1.47-3.29,3.28v5.71H4.11V10.76c0-0.36-0.29-0.66-0.66-0.66c-0.36,0-0.66,0.29-0.66,0.66v11.11
			c0,0.36,0.29,0.66,0.66,0.66h6.58c0.35,0,0.63-0.27,0.66-0.61c0-0.02,0-0.03,0-0.05v-6.36c0-1.09,0.89-1.97,1.97-1.97
			c1.09,0,1.97,0.88,1.97,1.97v6.36c0,0.02,0,0.04,0,0.05c0.03,0.34,0.31,0.61,0.66,0.61h6.58c0.36,0,0.66-0.29,0.66-0.66V10.76
			C22.52,10.4,22.23,10.11,21.86,10.11z"/>
	</g>
</g>
</svg>
