<!-- Generator: Adobe Illustrator 23.0.2, SVG Export Plug-In  -->
<svg version="1.1" xmlns="http://www.w3.org/2000/svg" xmlns:xlink="http://www.w3.org/1999/xlink" x="0px" y="0px" width="21.75px"
	 height="21.75px" viewBox="0 0 21.75 21.75" style="enable-background:new 0 0 21.75 21.75;" xml:space="preserve">
<style type="text/css">
	.st0{fill:#FFFFFF;}
</style>
<defs>
</defs>
<g>
	<g>
		<path class="st0" d="M16.35,6.86c-2.19,0-3.67,1.2-4.27,2.34h-0.06V7.23H7.69v14.52h4.5v-7.19c0-1.89,0.36-3.72,2.7-3.72
			c2.31,0,2.34,2.16,2.34,3.85v7.07h4.5v0h0.01v-7.98C21.75,9.87,20.91,6.86,16.35,6.86z M0.36,21.75h4.51V7.23H0.36V21.75z M2.61,0
			C1.17,0,0,1.17,0,2.61c0,1.44,1.17,2.64,2.61,2.64s2.61-1.19,2.61-2.64C5.22,1.17,4.05,0,2.61,0z"/>
	</g>
</g>
</svg>
