<!-- Generator: Adobe Illustrator 23.0.2, SVG Export Plug-In  -->
<svg version="1.1" xmlns="http://www.w3.org/2000/svg" xmlns:xlink="http://www.w3.org/1999/xlink" x="0px" y="0px" width="25.11px"
	 height="28.92px" viewBox="0 0 25.11 28.92" style="enable-background:new 0 0 25.11 28.92;" xml:space="preserve">
<style type="text/css">
	.st0{fill:#333333;}
</style>
<defs>
</defs>
<g>
	<g>
		<path class="st0" d="M22.74,23.76V2.58C22.74,1.13,21.6,0,20.15,0H2.58C1.13,0,0,1.13,0,2.58v4.01h3.8v19.75
			c0,1.45,1.13,2.58,2.58,2.58h16.15c1.45,0,2.58-1.13,2.58-2.58v-2.58H22.74z M3.8,5.23H1.36V2.58c0-0.69,0.52-1.22,1.22-1.22
			c0.69,0,1.22,0.52,1.22,1.22V5.23z M7.6,26.34c0,0.69-0.52,1.22-1.22,1.22c-0.69,0-1.22-0.52-1.22-1.22V2.58
			c0-0.41-0.11-0.81-0.32-1.22h15.31c0.69,0,1.22,0.52,1.22,1.22v21.17H7.6V26.34z M23.75,26.34c0,0.69-0.52,1.22-1.22,1.22H8.66
			c0.2-0.36,0.3-0.77,0.3-1.22v-1.22h14.79V26.34z M16.62,16.57h4.21V15.2h-4.21V16.57z M16.09,15.2H5.7v1.36h10.39V15.2z
			 M10.92,18.47h9.91V17.1h-9.91V18.47z M10.39,17.1H5.7v1.36h4.69V17.1z M14.25,22.27h6.59v-1.36h-6.59V22.27z M5.7,22.27h8.01
			v-1.36H5.7V22.27z M12.35,10.07l0.68,0.46l0.68-0.46c1.76-1.17,2.85-3.2,2.85-5.3V3.05l-3.53-1.16L9.5,3.05v1.72
			C9.5,6.87,10.59,8.9,12.35,10.07z M10.86,4.01l2.17-0.74l2.17,0.74v0.76c0,1.66-0.78,3.16-2.13,4.13c-1.38-0.91-2.2-2.46-2.2-4.18
			V4.01z M12.96,7.93c0.98-0.72,1.6-1.78,1.7-2.9l0.02-0.2l-1.35-0.14l-0.02,0.2c-0.09,0.76-0.5,1.47-1.1,1.9L12.04,6.9l0.75,1.16
			L12.96,7.93z M8.55,20.37h12.29v-1.36H8.55V20.37z M8.01,19.01H5.7v1.36h2.31V19.01z M10.92,14.67h9.91V13.3h-9.91V14.67z
			 M10.39,13.3H5.7v1.36h4.69V13.3z M16.56,10.93H9.5v1.36h7.06V10.93z"/>
	</g>
</g>
</svg>
