<!-- Generator: Adobe Illustrator 23.0.2, SVG Export Plug-In  -->
<svg version="1.1" xmlns="http://www.w3.org/2000/svg" xmlns:xlink="http://www.w3.org/1999/xlink" x="0px" y="0px" width="23.53px"
	 height="23.44px" viewBox="0 0 23.53 23.44" style="enable-background:new 0 0 23.53 23.44;" xml:space="preserve">
<style type="text/css">
	.st0{fill:#333333;}
</style>
<defs>
</defs>
<g>
	<g>
		<path class="st0" d="M11.72,21.48H2.93c-0.54,0-0.98-0.44-0.98-0.98V2.93c0-0.54,0.44-0.98,0.98-0.98h8.79
			c0.54,0,0.98-0.44,0.98-0.98S12.26,0,11.72,0H2.93C1.31,0,0,1.31,0,2.93v17.58c0,1.61,1.31,2.93,2.93,2.93h8.79
			c0.54,0,0.98-0.44,0.98-0.98C12.7,21.92,12.26,21.48,11.72,21.48z M23.24,11.02L17.3,5.16c-0.38-0.38-1-0.37-1.38,0.01
			c-0.38,0.38-0.38,1,0.01,1.38l4.25,4.19H8.79c-0.54,0-0.98,0.44-0.98,0.98c0,0.54,0.44,0.98,0.98,0.98h11.38l-4.25,4.19
			c-0.39,0.38-0.39,1-0.01,1.38c0.19,0.19,0.44,0.29,0.7,0.29c0.25,0,0.5-0.09,0.69-0.28l5.94-5.86c0.19-0.18,0.29-0.43,0.29-0.7
			C23.53,11.46,23.42,11.21,23.24,11.02z"/>
	</g>
</g>
</svg>
