<!-- Generator: Adobe Illustrator 23.0.2, SVG Export Plug-In  -->
<svg version="1.1" xmlns="http://www.w3.org/2000/svg" xmlns:xlink="http://www.w3.org/1999/xlink" x="0px" y="0px" width="512px"
	 height="471.02px" viewBox="0 0 512 471.02" style="enable-background:new 0 0 512 471.02;" xml:space="preserve">
<defs>
</defs>
<g>
	<path d="M158.52,155.64c0.47,25.36,10.74,49.25,28.9,67.26c18.16,18.01,42.13,28.09,67.49,28.36c11.82,0.13,23.46-1.84,34.48-5.87
		c3.89-1.42,5.9-5.72,4.48-9.61s-5.72-5.9-9.61-4.48c-9.33,3.4-19.12,5.08-29.18,4.96c-44.14-0.48-80.73-36.78-81.56-80.97
		c-0.6-22.45,8.52-44.54,25.01-60.58c16.5-16.05,38.83-24.55,61.32-23.35c43,1.95,77.53,37.2,78.62,80.26
		c0.25,10.04-1.27,19.88-4.52,29.25c-2.16,6.22-8.1,10.4-14.77,10.4c0,0,0,0,0,0c-8.64,0-15.68-7.03-15.68-15.68v-61.82
		c0-4.14-3.36-7.5-7.5-7.5c-4.14,0-7.5,3.36-7.5,7.5v5.41c-8.5-7.99-19.94-12.91-32.5-12.91c-26.19,0-47.5,21.31-47.5,47.5
		s21.31,47.5,47.5,47.5c13.56,0,25.81-5.72,34.47-14.87c4.38,11.6,15.59,19.87,28.7,19.87h0c13.05,0,24.68-8.23,28.93-20.47
		c3.85-11.08,5.65-22.7,5.35-34.55c-1.29-50.89-42.11-92.56-92.87-94.86c-26.6-1.44-53.04,8.61-72.52,27.58
		C168.58,102.92,157.81,129.07,158.52,155.64L158.52,155.64z M256,186.27c-17.92,0-32.5-14.58-32.5-32.5s14.58-32.5,32.5-32.5
		s32.5,14.58,32.5,32.5S273.92,186.27,256,186.27z"/>
	<path d="M509.1,178.62L298.83,14.32c-24.32-19-58.37-19.1-82.81-0.24L2.94,178.58c-1.83,1.4-2.94,3.65-2.93,5.95v66
		c0,4.14,3.36,7.5,7.5,7.5s7.5-3.36,7.5-7.5v-53.22l188.59,105.35L15,448.25V285.53c0-4.14-3.36-7.5-7.5-7.5s-7.5,3.36-7.5,7.5
		v177.99c-0.07,4.03,3.47,7.57,7.5,7.5h496.98c4,0.05,7.58-3.48,7.5-7.5v-278.1C512.16,182.84,511.18,180.21,509.1,178.62
		L509.1,178.62z M29.49,456.02l195.7-151.08c19-14.67,45.49-14.59,64.4,0.19l3.61,2.82c0,0,94.02,73.46,94.03,73.47
		c3.27,2.55,7.98,1.97,10.53-1.29c2.55-3.26,1.97-7.98-1.29-10.53l-85.23-66.59l46.11-25.98c3.61-2.03,4.89-6.61,2.85-10.22
		c-2.03-3.61-6.6-4.88-10.22-2.85l-51.56,29.05c-24.13-18.57-57.64-18.69-81.91-0.31L21.08,183.52L225.19,25.95
		c19-14.67,45.49-14.59,64.4,0.19L491.74,184.1l-112.14,63.17c-3.61,2.03-4.89,6.61-2.85,10.22c2.04,3.64,6.67,4.87,10.22,2.85
		l110.01-61.98v249.78l-73.73-57.61c-3.26-2.55-7.98-1.97-10.53,1.29c-2.55,3.26-1.97,7.98,1.29,10.53l68.68,53.67L29.49,456.02
		L29.49,456.02z"/>
</g>
</svg>
