<!-- Generator: Adobe Illustrator 23.0.2, SVG Export Plug-In  -->
<svg version="1.1" xmlns="http://www.w3.org/2000/svg" xmlns:xlink="http://www.w3.org/1999/xlink" x="0px" y="0px" width="19.82px"
	 height="26.81px" viewBox="0 0 19.82 26.81" style="enable-background:new 0 0 19.82 26.81;" xml:space="preserve">
<style type="text/css">
	.st0{fill:#9B9B9B;}
</style>
<defs>
</defs>
<g>
	<g>
		<path class="st0" d="M9.91,0C4.45,0,0,4.44,0,9.91c0,1.8,0.81,3.73,0.84,3.81c0.26,0.62,0.77,1.58,1.14,2.14l6.79,10.29
			c0.28,0.42,0.69,0.66,1.13,0.66c0.44,0,0.85-0.24,1.13-0.66l6.79-10.29c0.37-0.56,0.89-1.52,1.15-2.14
			c0.03-0.08,0.84-2.02,0.84-3.81C19.82,4.44,15.37,0,9.91,0z M17.9,13.27c-0.23,0.55-0.71,1.45-1.04,1.95l-6.79,10.29
			c-0.13,0.2-0.18,0.2-0.31,0L2.96,15.22c-0.33-0.5-0.81-1.4-1.04-1.95c-0.01-0.02-0.75-1.8-0.75-3.36c0-4.82,3.92-8.74,8.74-8.74
			s8.74,3.92,8.74,8.74C18.65,11.46,17.91,13.25,17.9,13.27z M9.91,4.66c-2.89,0-5.25,2.35-5.25,5.24c0,2.89,2.35,5.24,5.25,5.24
			c2.89,0,5.25-2.35,5.25-5.24C15.16,7.01,12.8,4.66,9.91,4.66z M9.91,13.98c-2.25,0-4.08-1.83-4.08-4.08
			c0-2.25,1.83-4.08,4.08-4.08c2.25,0,4.08,1.83,4.08,4.08C13.99,12.15,12.16,13.98,9.91,13.98z"/>
	</g>
</g>
</svg>
