<?xml version="1.0" encoding="utf-8"?>
<svg version="1.1" xmlns:xlink="http://www.w3.org/1999/xlink" width="28px" height="21px" xmlns="http://www.w3.org/2000/svg">
  <g transform="matrix(1 0 0 1 -515 -73 )">
    <path d="M 27.8606030647553 10.9950568462679  C 27.8606030647553 10.3623331685615  27.3465150766189 9.84824518042511  26.7039050914483 10  L 1.29609490855166 10  C 0.653484923381119 9.84824518042511  0.139396935244688 10.3623331685615  0.139396935244688 10.9950568462679  C 0.139396935244688 11.6277805239743  0.653484923381119 12.1517548195749  1.29609490855166 12  L 26.7039050914483 12  C 27.3465150766189 12.1517548195749  27.8606030647553 11.6376668314385  27.8606030647553 10.9950568462679  Z M 0.139396935244688 2.15669797330697  C 0.139396935244688 2.78942165101335  0.653484923381119 3.30350963914978  1.29609490855166 3.30350963914978  L 26.7039050914483 3.30350963914978  C 27.3465150766189 3.30350963914978  27.8606030647553 2.78942165101335  27.8606030647553 2.14681166584281  C 27.8606030647553 1.51408798813643  27.3465150766189 0.990113692535838  26.7039050914483 1  L 1.29609490855166 1  C 0.653484923381119 1  0.139396935244688 1.51408798813643  0.139396935244688 2.15669797330697  Z M 27.8606030647553 19.843302026693  C 27.8606030647553 19.2006920415225  27.3465150766189 18.6866040533861  26.7039050914483 18.6866040533861  L 1.29609490855166 18.6866040533861  C 0.653484923381119 18.6866040533861  0.139396935244688 19.2006920415225  0.139396935244688 19.843302026693  C 0.139396935244688 20.4760257043994  0.653484923381119 21  1.29609490855166 21  L 26.7039050914483 21  C 27.3465150766189 21  27.8606030647553 20.4859120118636  27.8606030647553 19.843302026693  Z " fill-rule="nonzero" fill="#ffffff" stroke="none" transform="matrix(1 0 0 1 515 73 )" />
  </g>
</svg>