<!-- Generator: Adobe Illustrator 23.0.2, SVG Export Plug-In  -->
<svg version="1.1" xmlns="http://www.w3.org/2000/svg" xmlns:xlink="http://www.w3.org/1999/xlink" x="0px" y="0px" width="27.86px"
	 height="27.86px" viewBox="0 0 27.86 27.86" style="enable-background:new 0 0 27.86 27.86;" xml:space="preserve">
<style type="text/css">
	.st0{fill:#F2CD18;}
</style>
<defs>
</defs>
<g>
	<g>
		<path class="st0" d="M27.86,16.81v-5.76h-3.1c-0.24-0.97-0.61-1.9-1.1-2.77l2.16-2.16l-4.07-4.07l-2.11,2.11
			c-0.88-0.52-1.83-0.92-2.82-1.19V0h-5.76v2.97c-0.99,0.26-1.94,0.66-2.82,1.19L6.12,2.04L2.04,6.12L4.2,8.28
			c-0.49,0.87-0.86,1.8-1.1,2.77H0v5.76h3.2c0.26,0.92,0.65,1.8,1.14,2.64l-2.3,2.3l4.07,4.07l2.34-2.34
			c0.81,0.46,1.68,0.81,2.59,1.05v3.33h5.76v-3.33c0.91-0.24,1.78-0.59,2.59-1.05l2.34,2.34l3.99-3.99l0.08-0.08l-2.3-2.3
			c0.49-0.82,0.88-1.71,1.14-2.64H27.86z M23.39,16.36c-0.24,0.87-0.6,1.7-1.07,2.46l-0.5,0.82l2.09,2.09l-2.18,2.18l-2.12-2.12
			l-0.81,0.47c-0.75,0.43-1.57,0.76-2.42,0.98l-0.92,0.24v3.03h-3.08v-3.03l-0.92-0.24c-0.86-0.22-1.67-0.55-2.43-0.98L8.24,21.8
			l-0.66,0.66l-1.46,1.46l-2.18-2.18l2.09-2.09l-0.5-0.82c-0.46-0.76-0.82-1.59-1.07-2.46l-0.25-0.9H1.34v-3.08h2.82l0.23-0.94
			c0.22-0.91,0.56-1.78,1.02-2.59l0.47-0.81L5.21,7.39L3.94,6.12l2.18-2.18l1.91,1.91l0.82-0.5c0.81-0.49,1.7-0.87,2.63-1.11
			l0.92-0.24V1.34h3.08v2.67l0.92,0.24c0.93,0.24,1.81,0.61,2.63,1.11l0.82,0.5l1.91-1.91l2.18,2.18l-1.94,1.94l0.46,0.81
			c0.47,0.81,0.81,1.68,1.03,2.59l0.23,0.94h2.82v3.08h-2.88L23.39,16.36z M13.93,8.84c-2.81,0-5.09,2.28-5.09,5.09
			c0,2.81,2.28,5.09,5.09,5.09c2.81,0,5.09-2.28,5.09-5.09C19.02,11.12,16.73,8.84,13.93,8.84z M13.93,17.68
			c-2.07,0-3.75-1.68-3.75-3.75c0-2.07,1.68-3.75,3.75-3.75c2.07,0,3.75,1.68,3.75,3.75C17.68,16,16,17.68,13.93,17.68z"/>
	</g>
</g>
</svg>
