<!-- Generator: Adobe Illustrator 23.0.2, SVG Export Plug-In  -->
<svg version="1.1" xmlns="http://www.w3.org/2000/svg" xmlns:xlink="http://www.w3.org/1999/xlink" x="0px" y="0px" width="51.7px"
	 height="53.1px" viewBox="0 0 51.7 53.1" style="enable-background:new 0 0 51.7 53.1;" xml:space="preserve">
<style type="text/css">
	.st0{fill:#333333;}
</style>
<defs>
</defs>
<g>
	<path class="st0" d="M47.31,6.58h-0.69c-0.11-1.69-0.83-3.31-2.04-4.53C43.28,0.73,41.55,0,39.72,0H11.69
		C8.08,0,5.09,2.81,4.8,6.35H3.36C1.51,6.35,0,7.86,0,9.71s1.51,3.36,3.36,3.36h1.41v4.5H3.36C1.51,17.58,0,19.08,0,20.94
		c0,1.85,1.51,3.36,3.36,3.36h1.41v4.5H3.36C1.51,28.8,0,30.31,0,32.16c0,1.85,1.51,3.36,3.36,3.36h1.41v4.5H3.36
		C1.51,40.02,0,41.53,0,43.38s1.51,3.36,3.36,3.36H4.8c0.29,3.54,3.28,6.35,6.89,6.35h28.03c1.83,0,3.56-0.73,4.86-2.05
		c1.21-1.22,1.93-2.85,2.04-4.55h0.69c2.42,0,4.39-1.97,4.39-4.39V10.97C51.7,8.55,49.73,6.58,47.31,6.58z M45.37,42.14
		c-0.72,0-1.26,0.53-1.26,1.24v2.8c0,2.42-1.97,4.39-4.39,4.39H16.5V11.81c0-0.71-0.54-1.24-1.26-1.24s-1.26,0.53-1.26,1.24v38.76
		h-2.28c-2.22,0-4.07-1.67-4.35-3.83h1.41c1.85,0,3.36-1.51,3.36-3.36s-1.51-3.36-3.36-3.36H7.3v-4.5h1.44
		c1.85,0,3.36-1.51,3.36-3.36c0-1.85-1.51-3.36-3.36-3.36H7.3v-4.5h1.44c1.85,0,3.36-1.51,3.36-3.36c0-1.85-1.51-3.36-3.36-3.36H7.3
		v-4.5h1.44c1.85,0,3.36-1.51,3.36-3.36s-1.51-3.36-3.36-3.36H7.33c0.28-2.15,2.14-3.83,4.35-3.83h2.28v5.32
		c0,0.71,0.54,1.24,1.26,1.24s1.26-0.53,1.26-1.24V2.53h23.22c2.42,0,4.39,1.97,4.39,4.39v32.51c0,0.71,0.54,1.24,1.26,1.24
		s1.26-0.53,1.26-1.24v-1.24h0.67c0.66,0,1.29-0.14,1.87-0.42v4.34c0,1.03-0.84,1.87-1.87,1.87h-0.67v-0.59
		C46.63,42.68,46.09,42.14,45.37,42.14z M3.36,31.33h5.38c0.46,0,0.84,0.38,0.84,0.84C9.58,32.62,9.2,33,8.74,33H3.36
		c-0.46,0-0.84-0.38-0.84-0.84C2.53,31.7,2.9,31.33,3.36,31.33z M3.36,20.1h5.38c0.46,0,0.84,0.38,0.84,0.84
		c0,0.46-0.38,0.84-0.84,0.84H3.36c-0.46,0-0.84-0.38-0.84-0.84C2.53,20.48,2.9,20.1,3.36,20.1z M3.36,8.88h5.38
		c0.46,0,0.84,0.38,0.84,0.84s-0.38,0.84-0.84,0.84H3.36c-0.46,0-0.84-0.38-0.84-0.84S2.9,8.88,3.36,8.88z M3.36,42.55h5.38
		c0.46,0,0.84,0.38,0.84,0.84s-0.38,0.84-0.84,0.84H3.36c-0.46,0-0.84-0.38-0.84-0.84S2.9,42.55,3.36,42.55z M46.63,27.34v-5.93
		h0.67c0.66,0,1.29-0.14,1.87-0.42l0,4.48c0,1.03-0.84,1.87-1.87,1.87H46.63z M49.17,33.79c0,1.03-0.84,1.87-1.87,1.87h-0.67v-5.79
		h0.67c0.66,0,1.29-0.14,1.87-0.42V33.79z M47.31,18.88h-0.67V9.11h0.67c1.03,0,1.87,0.84,1.87,1.87v6.04
		C49.17,18.05,48.34,18.88,47.31,18.88z"/>
	<path class="st0" d="M34.79,21.43c1.2-1.25,1.87-2.92,1.87-4.66c0-3.73-3.03-6.76-6.76-6.76s-6.76,3.03-6.76,6.76
		c0,1.75,0.67,3.41,1.87,4.66c-3.15,1.76-5.14,5.12-5.14,8.76c0,0.71,0.54,1.24,1.26,1.24s1.26-0.53,1.26-1.24
		c0-3.36,2.26-6.34,5.5-7.23c0.51-0.14,0.87-0.58,0.91-1.11c0.05-0.53-0.23-1.02-0.71-1.25c-1.48-0.69-2.43-2.2-2.43-3.83
		c0-2.33,1.9-4.23,4.23-4.23s4.23,1.9,4.23,4.23c0,1.63-0.96,3.14-2.43,3.83c-0.48,0.22-0.76,0.71-0.71,1.25
		c0.05,0.53,0.4,0.97,0.91,1.11c3.24,0.89,5.5,3.87,5.5,7.23c0,0.71,0.54,1.24,1.26,1.24s1.26-0.53,1.26-1.24
		C39.94,26.55,37.94,23.19,34.79,21.43z"/>
	<path class="st0" d="M38.68,35.51H21.15c-0.71,0-1.24,0.54-1.24,1.26s0.53,1.26,1.24,1.26h17.53c0.71,0,1.24-0.54,1.24-1.26
		S39.38,35.51,38.68,35.51z"/>
	<path class="st0" d="M35.61,40.55h-11.4c-0.71,0-1.24,0.54-1.24,1.26s0.53,1.26,1.24,1.26h11.4c0.71,0,1.24-0.54,1.24-1.26
		S36.32,40.55,35.61,40.55z"/>
</g>
</svg>
