<!-- Generator: Adobe Illustrator 23.0.2, SVG Export Plug-In  -->
<svg version="1.1" xmlns="http://www.w3.org/2000/svg" xmlns:xlink="http://www.w3.org/1999/xlink" x="0px" y="0px" width="29px"
	 height="29px" viewBox="0 0 29 29" style="enable-background:new 0 0 29 29;" xml:space="preserve">
<style type="text/css">
	.st0{fill:#333333;}
</style>
<defs>
</defs>
<path class="st0" d="M24.75,4.25C22.01,1.51,18.37,0,14.5,0C10.63,0,6.99,1.51,4.25,4.25C1.51,6.99,0,10.63,0,14.5
	s1.51,7.51,4.25,10.25C6.99,27.49,10.63,29,14.5,29c3.87,0,7.51-1.51,10.25-4.25C27.49,22.01,29,18.37,29,14.5
	S27.49,6.99,24.75,4.25z M7.27,25.06c0.61-3.49,3.63-6.07,7.23-6.07c3.6,0,6.62,2.58,7.23,6.07c-2.06,1.41-4.55,2.24-7.23,2.24
	C11.82,27.3,9.33,26.47,7.27,25.06z M9.89,12.68c0-2.54,2.07-4.61,4.61-4.61c2.54,0,4.61,2.07,4.61,4.61c0,2.54-2.07,4.61-4.61,4.61
	C11.96,17.29,9.89,15.22,9.89,12.68z M23.2,23.88c-0.46-1.63-1.37-3.1-2.64-4.25c-0.78-0.71-1.67-1.26-2.63-1.66
	c1.73-1.13,2.87-3.08,2.87-5.29c0-3.48-2.83-6.31-6.31-6.31c-3.48,0-6.31,2.83-6.31,6.31c0,2.21,1.14,4.16,2.87,5.29
	c-0.95,0.39-1.84,0.95-2.63,1.66c-1.27,1.15-2.18,2.63-2.64,4.25c-2.52-2.34-4.1-5.68-4.1-9.38c0-7.06,5.74-12.8,12.8-12.8
	c7.06,0,12.8,5.74,12.8,12.8C27.3,18.2,25.72,21.54,23.2,23.88z"/>
</svg>
