<!-- Generator: Adobe Illustrator 23.0.2, SVG Export Plug-In  -->
<svg version="1.1" xmlns="http://www.w3.org/2000/svg" xmlns:xlink="http://www.w3.org/1999/xlink" x="0px" y="0px" width="25.31px"
	 height="25.3px" viewBox="0 0 25.31 25.3" style="enable-background:new 0 0 25.31 25.3;" xml:space="preserve">
<style type="text/css">
	.st0{fill:#F2CD18;}
</style>
<defs>
</defs>
<path class="st0" d="M25.02,0.62c-0.04-0.06-0.09-0.12-0.14-0.17c0,0,0-0.01-0.01-0.01c0,0,0,0-0.01-0.01
	C24.58,0.15,24.18,0,23.72,0c-0.26,0-0.54,0.05-0.83,0.15L1.37,7.31C0.23,7.69,0.02,8.35,0,8.72c-0.02,0.36,0.1,1.04,1.18,1.56
	l5.4,2.58l-2.42,5.97c-0.01,0.01-0.01,0.03-0.02,0.04c-0.27,0.81-0.16,1.53,0.3,1.99c0.29,0.29,0.69,0.44,1.16,0.44
	c0.26,0,0.54-0.05,0.83-0.15c0.02,0,0.03-0.01,0.04-0.02l5.97-2.42l2.58,5.4c0.49,1.03,1.14,1.19,1.49,1.19
	c0.31,0,1.07-0.13,1.48-1.37l7.17-21.5C25.4,1.72,25.35,1.08,25.02,0.62z M1.61,8.81c0.06-0.03,0.14-0.06,0.23-0.1l20.55-6.85
	L10.8,13.46c-0.42-0.36-0.87-0.65-1.28-0.85L1.83,8.94C1.73,8.89,1.66,8.85,1.61,8.81z M5.95,19.75c-0.26,0.08-0.4,0.07-0.45,0.05
	c-0.02-0.05-0.03-0.19,0.05-0.45l2.37-5.86l0.94,0.45c0.9,0.43,2.06,1.59,2.49,2.49l0.45,0.94L5.95,19.75z M16.59,23.46
	c-0.03,0.1-0.07,0.17-0.1,0.23c-0.04-0.05-0.08-0.13-0.12-0.22l-3.67-7.68c-0.2-0.42-0.5-0.86-0.86-1.28l11.6-11.59L16.59,23.46z"/>
</svg>
