<!-- Generator: Adobe Illustrator 23.0.2, SVG Export Plug-In  -->
<svg version="1.1" xmlns="http://www.w3.org/2000/svg" xmlns:xlink="http://www.w3.org/1999/xlink" x="0px" y="0px" width="19.29px"
	 height="22.69px" viewBox="0 0 19.29 22.69" style="enable-background:new 0 0 19.29 22.69;" xml:space="preserve">
<style type="text/css">
	.st0{fill:#9B9A9A;}
</style>
<defs>
</defs>
<g>
	<g>
		<path class="st0" d="M9.56,12.23h0.15c1.38-0.02,2.49-0.51,3.31-1.43c1.81-2.04,1.51-5.54,1.47-5.87c-0.12-2.5-1.3-3.7-2.28-4.26
			C11.49,0.24,10.64,0.02,9.69,0H9.62C9.09,0,8.07,0.08,7.09,0.64C6.1,1.2,4.9,2.4,4.78,4.92c-0.03,0.33-0.33,3.83,1.47,5.87
			C7.07,11.72,8.19,12.2,9.56,12.23z M6.04,5.04c0-0.01,0.01-0.03,0.01-0.04C6.2,1.64,8.59,1.27,9.61,1.27h0.06
			C10.94,1.3,13.09,1.82,13.24,5c0,0.01,0,0.03,0,0.04c0,0.03,0.33,3.23-1.16,4.91c-0.59,0.67-1.38,1-2.42,1.01H9.62
			c-1.03-0.01-1.83-0.34-2.41-1.01C5.71,8.28,6.03,5.07,6.04,5.04z M19.29,18.02v-0.01c0-0.04,0-0.08,0-0.12
			c-0.03-0.93-0.09-3.11-2.13-3.8c-0.01,0-0.03-0.01-0.05-0.01c-2.12-0.54-3.88-1.76-3.9-1.78c-0.29-0.2-0.68-0.13-0.88,0.16
			c-0.2,0.29-0.13,0.68,0.16,0.88c0.08,0.06,1.95,1.36,4.29,1.96c1.09,0.39,1.22,1.56,1.25,2.63c0,0.04,0,0.08,0.01,0.12
			c0,0.42-0.02,1.08-0.1,1.45c-0.76,0.43-3.74,1.93-8.28,1.93c-4.52,0-7.52-1.5-8.28-1.93c-0.08-0.38-0.11-1.03-0.1-1.45
			c0-0.04,0.01-0.08,0.01-0.12c0.03-1.07,0.16-2.24,1.25-2.63c2.34-0.6,4.21-1.91,4.29-1.96c0.29-0.2,0.36-0.6,0.15-0.88
			c-0.2-0.29-0.6-0.36-0.88-0.16c-0.02,0.01-1.77,1.24-3.9,1.78c-0.02,0-0.03,0.01-0.05,0.01c-2.04,0.7-2.1,2.88-2.13,3.8
			c0,0.04,0,0.08-0.01,0.12v0.01c0,0.24-0.01,1.5,0.24,2.13c0.05,0.12,0.13,0.23,0.24,0.3c0.14,0.09,3.52,2.25,9.17,2.25
			c5.65,0,9.03-2.16,9.17-2.25c0.11-0.07,0.2-0.17,0.24-0.3C19.3,19.52,19.3,18.27,19.29,18.02z"/>
	</g>
</g>
</svg>
