<?xml version="1.0" encoding="utf-8"?>
<!-- Generator: Adobe Illustrator 23.0.2, SVG Export Plug-In . SVG Version: 6.00 Build 0)  -->
<svg version="1.1" id="Layer_3" xmlns="http://www.w3.org/2000/svg" xmlns:xlink="http://www.w3.org/1999/xlink" x="0px" y="0px"
	 viewBox="0 0 531 349.96" style="enable-background:new 0 0 531 349.96;" xml:space="preserve">
<style type="text/css">
	.st0{fill:#E7E7E7;}
	.st1{fill-rule:evenodd;clip-rule:evenodd;fill:#E7E7E7;}
	.st2{fill:#E2E3E3;}
	.st3{fill:#FFFFFF;stroke:#A9A8A9;stroke-width:0.25;stroke-miterlimit:10;}
	.st4{fill:#E9E8E7;}
	.st5{fill:#DDDDDC;}
	.st6{fill:#FFFFFF;}
	.st7{fill:#AFAFB0;}
	.st8{fill:#F2CD1B;}
</style>
<g>
	<path class="st0" d="M54.19,270.52c-7.89,0-14.3-6.42-14.3-14.3s6.42-14.3,14.3-14.3c7.89,0,14.3,6.42,14.3,14.3
		S62.07,270.52,54.19,270.52z M54.19,245.92c-5.68,0-10.3,4.62-10.3,10.3s4.62,10.3,10.3,10.3s10.3-4.62,10.3-10.3
		S59.87,245.92,54.19,245.92z"/>
</g>
<path class="st0" d="M126.9,148.53h-5.55v-5.55c0-2.04-1.66-3.7-3.7-3.7c-2.04,0-3.7,1.66-3.7,3.7v5.55h-5.55
	c-2.04,0-3.7,1.67-3.7,3.7c0,2.04,1.66,3.7,3.7,3.7h5.55v5.55c0,2.04,1.67,3.7,3.7,3.7c2.04,0,3.7-1.67,3.7-3.7v-5.55h5.55
	c2.04,0,3.7-1.66,3.7-3.7C130.6,150.19,128.93,148.53,126.9,148.53z"/>
<path class="st0" d="M87.52,41.62h-3.57v-3.57c0-1.31-1.07-2.38-2.38-2.38c-1.31,0-2.38,1.07-2.38,2.38v3.57h-3.57
	c-1.31,0-2.38,1.07-2.38,2.38c0,1.31,1.07,2.38,2.38,2.38h3.57v3.57c0,1.31,1.07,2.38,2.38,2.38c1.31,0,2.38-1.07,2.38-2.38v-3.57
	h3.57c1.31,0,2.38-1.07,2.38-2.38C89.9,42.69,88.83,41.62,87.52,41.62z"/>
<g>
	<path class="st0" d="M431.36,165.92c-4.71,0-8.54-3.83-8.54-8.54c0-4.71,3.83-8.54,8.54-8.54c4.71,0,8.54,3.83,8.54,8.54
		C439.9,162.09,436.07,165.92,431.36,165.92z M431.36,151.24c-3.39,0-6.15,2.76-6.15,6.15c0,3.39,2.76,6.15,6.15,6.15
		s6.15-2.76,6.15-6.15C437.51,153.99,434.75,151.24,431.36,151.24z"/>
</g>
<path class="st1" d="M446.41,65.94c-0.64,0.83-1.1,1.98-1.87,2.27c-0.9,0.33-2.42,0.3-3.08-0.27c-2.4-2.06-4.59-4.36-6.77-6.66
	c-1.25-1.32-1.17-2.86,0.13-4.1c1.3-1.25,2.76-1.21,4.08,0.08c2.16,2.12,4.32,4.24,6.41,6.43
	C445.78,64.18,445.96,64.98,446.41,65.94z"/>
<path class="st1" d="M466.95,86.68c-0.59,0.67-1.12,1.82-1.87,2c-1.07,0.25-2.65,0.2-3.42-0.44c-2.27-1.88-4.27-4.08-6.32-6.21
	c-1.02-1.06-1.02-3.34,0.01-4.21c1.27-1.09,2.82-1.19,4.02-0.11c2.3,2.06,4.44,4.3,6.56,6.55C466.4,84.76,466.51,85.61,466.95,86.68
	z"/>
<path class="st1" d="M437.25,89.11c-2.76-0.02-4.32-2.45-2.91-4.22c2.13-2.66,4.57-5.1,7.13-7.37c1.12-0.99,2.85-0.8,3.95,0.49
	c1.09,1.29,0.93,2.73-0.23,3.94c-2.03,2.11-4.09,4.19-6.21,6.2C438.41,88.7,437.57,88.94,437.25,89.11z"/>
<path class="st1" d="M467.08,58.96c-0.61,1.08-0.91,1.97-1.49,2.58c-1.96,2.08-4,4.07-6.04,6.07c-1.28,1.25-2.65,1.44-4.03,0.13
	c-1.21-1.15-1.32-3.01-0.14-4.26c1.98-2.1,3.92-4.25,6.11-6.11c0.8-0.68,2.35-0.96,3.4-0.73C465.71,56.82,466.29,58.08,467.08,58.96
	z"/>
<path class="st1" d="M434.25,284.48c-0.52,0.67-0.89,1.61-1.52,1.84c-0.73,0.27-1.96,0.24-2.49-0.22c-1.94-1.67-3.72-3.53-5.48-5.4
	c-1.01-1.07-0.95-2.32,0.1-3.33c1.05-1.01,2.24-0.98,3.3,0.06c1.75,1.72,3.5,3.43,5.19,5.21
	C433.74,283.06,433.88,283.7,434.25,284.48z"/>
<path class="st1" d="M450.89,301.28c-0.48,0.55-0.91,1.48-1.52,1.62c-0.87,0.2-2.15,0.16-2.77-0.36c-1.84-1.52-3.46-3.31-5.12-5.03
	c-0.83-0.86-0.82-2.7,0.01-3.41c1.03-0.88,2.28-0.97,3.26-0.09c1.86,1.67,3.6,3.48,5.31,5.3
	C450.44,299.72,450.53,300.41,450.89,301.28z"/>
<path class="st1" d="M426.82,303.25c-2.24-0.02-3.5-1.99-2.36-3.42c1.72-2.16,3.71-4.14,5.78-5.97c0.91-0.8,2.31-0.65,3.2,0.4
	c0.88,1.05,0.76,2.21-0.19,3.19c-1.65,1.71-3.31,3.4-5.03,5.03C427.77,302.91,427.08,303.11,426.82,303.25z"/>
<path class="st1" d="M450.99,278.82c-0.49,0.88-0.73,1.59-1.2,2.09c-1.59,1.68-3.24,3.3-4.9,4.92c-1.04,1.02-2.15,1.17-3.26,0.11
	c-0.98-0.93-1.07-2.44-0.12-3.45c1.6-1.7,3.18-3.45,4.95-4.95c0.65-0.55,1.9-0.78,2.75-0.59
	C449.88,277.09,450.36,278.11,450.99,278.82z"/>
<polygon class="st2" points="376.01,279.29 184.23,279.29 184.23,15.47 335.32,15.47 376.01,15.47 376.01,60.02 "/>
<polygon class="st3" points="363.39,75.36 363.39,292.76 171.61,292.76 171.61,28.94 317.87,28.94 "/>
<polygon class="st4" points="363.39,75.36 317.87,75.36 317.87,28.94 "/>
<path class="st5" d="M343.69,94.1c0,0.96-0.78,1.74-1.74,1.74H222.46c-0.96,0-1.74-0.78-1.74-1.74l0,0c0-0.96,0.78-1.74,1.74-1.74
	h119.49C342.91,92.36,343.69,93.14,343.69,94.1L343.69,94.1z"/>
<path class="st5" d="M343.69,105.1c0,0.96-0.78,1.74-1.74,1.74H222.46c-0.96,0-1.74-0.78-1.74-1.74l0,0c0-0.96,0.78-1.74,1.74-1.74
	h119.49C342.91,103.36,343.69,104.14,343.69,105.1L343.69,105.1z"/>
<path class="st5" d="M343.69,116.1c0,0.96-0.78,1.74-1.74,1.74H222.46c-0.96,0-1.74-0.78-1.74-1.74l0,0c0-0.96,0.78-1.74,1.74-1.74
	h119.49C342.91,114.36,343.69,115.14,343.69,116.1L343.69,116.1z"/>
<path class="st5" d="M343.69,127.1c0,0.96-0.78,1.74-1.74,1.74H190.46c-0.96,0-1.74-0.78-1.74-1.74l0,0c0-0.96,0.78-1.74,1.74-1.74
	h151.49C342.91,125.36,343.69,126.14,343.69,127.1L343.69,127.1z"/>
<path class="st5" d="M343.69,138.1c0,0.96-0.78,1.74-1.74,1.74H190.46c-0.96,0-1.74-0.78-1.74-1.74l0,0c0-0.96,0.78-1.74,1.74-1.74
	h151.49C342.91,136.36,343.69,137.14,343.69,138.1L343.69,138.1z"/>
<path class="st5" d="M343.69,149.1c0,0.96-0.78,1.74-1.74,1.74H190.46c-0.96,0-1.74-0.78-1.74-1.74l0,0c0-0.96,0.78-1.74,1.74-1.74
	h151.49C342.91,147.36,343.69,148.14,343.69,149.1L343.69,149.1z"/>
<path class="st5" d="M343.69,160.1c0,0.96-0.78,1.74-1.74,1.74H190.46c-0.96,0-1.74-0.78-1.74-1.74l0,0c0-0.96,0.78-1.74,1.74-1.74
	h151.49C342.91,158.36,343.69,159.14,343.69,160.1L343.69,160.1z"/>
<path class="st5" d="M343.69,171.1c0,0.96-0.78,1.74-1.74,1.74H190.46c-0.96,0-1.74-0.78-1.74-1.74l0,0c0-0.96,0.78-1.74,1.74-1.74
	h151.49C342.91,169.36,343.69,170.14,343.69,171.1L343.69,171.1z"/>
<path class="st5" d="M343.69,181.1c0,0.96-0.78,1.74-1.74,1.74H190.46c-0.96,0-1.74-0.78-1.74-1.74l0,0c0-0.96,0.78-1.74,1.74-1.74
	h151.49C342.91,179.36,343.69,180.14,343.69,181.1L343.69,181.1z"/>
<g>
	<path class="st5" d="M212.97,99.74c-1.03,0-1.87-0.84-1.87-1.87v-1.87h-18.65v1.87c0,1.03-0.84,1.87-1.87,1.87
		s-1.87-0.84-1.87-1.87v-3.73c0-1.03,0.84-1.87,1.87-1.87h22.38c1.03,0,1.87,0.84,1.87,1.87v3.73
		C214.83,98.9,214,99.74,212.97,99.74z"/>
	<path class="st5" d="M201.77,118.39c-1.03,0-1.87-0.84-1.87-1.87V94.14c0-1.03,0.84-1.87,1.87-1.87s1.87,0.84,1.87,1.87v22.38
		C203.64,117.55,202.8,118.39,201.77,118.39z"/>
	<path class="st5" d="M205.5,118.39h-7.46c-1.03,0-1.87-0.84-1.87-1.87s0.84-1.87,1.87-1.87h7.46c1.03,0,1.87,0.84,1.87,1.87
		S206.53,118.39,205.5,118.39z"/>
</g>
<path class="st5" d="M343.69,191.1c0,0.96-0.78,1.74-1.74,1.74H190.46c-0.96,0-1.74-0.78-1.74-1.74l0,0c0-0.96,0.78-1.74,1.74-1.74
	h151.49C342.91,189.36,343.69,190.14,343.69,191.1L343.69,191.1z"/>
<path class="st5" d="M343.69,202.1c0,0.96-0.78,1.74-1.74,1.74H190.46c-0.96,0-1.74-0.78-1.74-1.74l0,0c0-0.96,0.78-1.74,1.74-1.74
	h151.49C342.91,200.36,343.69,201.14,343.69,202.1L343.69,202.1z"/>
<path class="st5" d="M343.69,213.1c0,0.96-0.78,1.74-1.74,1.74H190.46c-0.96,0-1.74-0.78-1.74-1.74l0,0c0-0.96,0.78-1.74,1.74-1.74
	h151.49C342.91,211.36,343.69,212.14,343.69,213.1L343.69,213.1z"/>
<path class="st5" d="M343.69,224.1c0,0.96-0.78,1.74-1.74,1.74H190.46c-0.96,0-1.74-0.78-1.74-1.74l0,0c0-0.96,0.78-1.74,1.74-1.74
	h151.49C342.91,222.36,343.69,223.14,343.69,224.1L343.69,224.1z"/>
<path class="st5" d="M343.69,235.1c0,0.96-0.78,1.74-1.74,1.74H190.46c-0.96,0-1.74-0.78-1.74-1.74l0,0c0-0.96,0.78-1.74,1.74-1.74
	h151.49C342.91,233.36,343.69,234.14,343.69,235.1L343.69,235.1z"/>
<path class="st5" d="M343.69,245.1c0,0.96-0.78,1.74-1.74,1.74H190.46c-0.96,0-1.74-0.78-1.74-1.74l0,0c0-0.96,0.78-1.74,1.74-1.74
	h151.49C342.91,243.36,343.69,244.14,343.69,245.1L343.69,245.1z"/>
<path class="st5" d="M343.69,255.1c0,0.96-0.78,1.74-1.74,1.74H190.46c-0.96,0-1.74-0.78-1.74-1.74l0,0c0-0.96,0.78-1.74,1.74-1.74
	h151.49C342.91,253.36,343.69,254.14,343.69,255.1L343.69,255.1z"/>
<path class="st5" d="M343.69,265.1c0,0.96-0.78,1.74-1.74,1.74H190.46c-0.96,0-1.74-0.78-1.74-1.74l0,0c0-0.96,0.78-1.74,1.74-1.74
	h151.49C342.91,263.36,343.69,264.14,343.69,265.1L343.69,265.1z"/>
<circle class="st6" cx="266.2" cy="187.61" r="57.77"/>
<g>
	<g>
		<path class="st7" d="M294.92,205.74h-9.07c-0.83,0-1.51-0.68-1.51-1.51c0-0.83,0.68-1.51,1.51-1.51h9.07
			c2.5,0,4.53-2.03,4.53-4.53v-21.16c0-2.5-2.03-4.53-4.53-4.53h-57.43c-2.5,0-4.53,2.03-4.53,4.53v21.16c0,2.5,2.03,4.53,4.53,4.53
			h9.07c0.83,0,1.51,0.68,1.51,1.51c0,0.83-0.68,1.51-1.51,1.51h-9.07c-4.17,0-7.56-3.39-7.56-7.56v-21.16
			c0-4.17,3.39-7.56,7.56-7.56h57.43c4.17,0,7.56,3.39,7.56,7.56v21.16C302.47,202.35,299.09,205.74,294.92,205.74z"/>
		<path class="st7" d="M273.76,214.81h-18.14c-0.83,0-1.51-0.68-1.51-1.51s0.68-1.51,1.51-1.51h18.14c0.83,0,1.51,0.68,1.51,1.51
			S274.59,214.81,273.76,214.81z"/>
		<path class="st7" d="M273.76,208.76h-18.14c-0.83,0-1.51-0.68-1.51-1.51c0-0.83,0.68-1.51,1.51-1.51h18.14
			c0.83,0,1.51,0.68,1.51,1.51C275.27,208.09,274.59,208.76,273.76,208.76z"/>
		<path class="st7" d="M261.67,202.72h-6.05c-0.83,0-1.51-0.68-1.51-1.51c0-0.83,0.68-1.51,1.51-1.51h6.05
			c0.83,0,1.51,0.68,1.51,1.51C263.18,202.04,262.5,202.72,261.67,202.72z"/>
		<path class="st7" d="M285.85,172.49c-0.83,0-1.51-0.68-1.51-1.51v-12.09c0-2.5-2.03-4.53-4.53-4.53h-27.2
			c-2.5,0-4.53,2.03-4.53,4.53v12.09c0,0.83-0.68,1.51-1.51,1.51c-0.83,0-1.51-0.68-1.51-1.51v-12.09c0-4.17,3.39-7.56,7.56-7.56
			h27.2c4.17,0,7.56,3.39,7.56,7.56v12.09C287.36,171.82,286.68,172.49,285.85,172.49z"/>
		<path class="st7" d="M279.8,223.88h-27.2c-4.17,0-7.56-3.39-7.56-7.56v-24.18c0-0.83,0.68-1.51,1.51-1.51h39.29
			c0.83,0,1.51,0.68,1.51,1.51v24.18C287.36,220.49,283.97,223.88,279.8,223.88z M248.07,193.65v22.67c0,2.5,2.03,4.53,4.53,4.53
			h27.2c2.5,0,4.53-2.03,4.53-4.53v-22.67H248.07z"/>
	</g>
</g>
<g>
	<g>
		<path class="st8" d="M266.5,142.15c-26.22,0-47.48,21.26-47.48,47.48s21.26,47.48,47.48,47.48c26.22,0,47.48-21.26,47.48-47.48
			C313.95,163.42,292.71,142.18,266.5,142.15z M236.15,157.18c8.23-7.7,19.08-11.98,30.35-11.97c11.25-0.01,22.08,4.27,30.28,11.97
			l-62.73,62.73C217.31,202.01,218.25,173.92,236.15,157.18z M296.85,222.08c-8.23,7.7-19.08,11.98-30.35,11.97
			c-11.25,0.01-22.08-4.27-30.28-11.97l62.73-62.73C315.7,177.25,314.76,205.34,296.85,222.08z"/>
	</g>
</g>
</svg>
