<?xml version="1.0" encoding="utf-8"?>
<!-- Generator: Adobe Illustrator 23.0.2, SVG Export Plug-In . SVG Version: 6.00 Build 0)  -->
<svg version="1.1" id="Layer_5" xmlns="http://www.w3.org/2000/svg" xmlns:xlink="http://www.w3.org/1999/xlink" x="0px" y="0px"
	 viewBox="0 0 531 349.96" style="enable-background:new 0 0 531 349.96;" xml:space="preserve">
<style type="text/css">
	.st0{fill:#E7E7E7;}
	.st1{fill-rule:evenodd;clip-rule:evenodd;fill:#E7E7E7;}
	.st2{fill:#E2E3E3;}
	.st3{fill:#FFFFFF;stroke:#A9A8A9;stroke-width:0.25;stroke-miterlimit:10;}
	.st4{fill:#E9E8E7;}
	.st5{fill:#DDDDDC;}
	.st6{fill:#F2CD1B;}
</style>
<g>
	<path class="st0" d="M56.02,272.14c-7.89,0-14.3-6.42-14.3-14.3s6.42-14.3,14.3-14.3c7.89,0,14.3,6.42,14.3,14.3
		S63.91,272.14,56.02,272.14z M56.02,247.54c-5.68,0-10.3,4.62-10.3,10.3s4.62,10.3,10.3,10.3s10.3-4.62,10.3-10.3
		S61.7,247.54,56.02,247.54z"/>
</g>
<path class="st0" d="M128.73,150.14h-5.55v-5.55c0-2.04-1.66-3.7-3.7-3.7c-2.04,0-3.7,1.66-3.7,3.7v5.55h-5.55
	c-2.04,0-3.7,1.67-3.7,3.7c0,2.04,1.66,3.7,3.7,3.7h5.55v5.55c0,2.04,1.67,3.7,3.7,3.7c2.04,0,3.7-1.67,3.7-3.7v-5.55h5.55
	c2.04,0,3.7-1.66,3.7-3.7C132.43,151.81,130.77,150.14,128.73,150.14z"/>
<path class="st0" d="M89.36,43.24h-3.57v-3.57c0-1.31-1.07-2.38-2.38-2.38c-1.31,0-2.38,1.07-2.38,2.38v3.57h-3.57
	c-1.31,0-2.38,1.07-2.38,2.38c0,1.31,1.07,2.38,2.38,2.38h3.57v3.57c0,1.31,1.07,2.38,2.38,2.38c1.31,0,2.38-1.07,2.38-2.38v-3.57
	h3.57c1.31,0,2.38-1.07,2.38-2.38C91.74,44.31,90.67,43.24,89.36,43.24z"/>
<g>
	<path class="st0" d="M433.2,167.54c-4.71,0-8.54-3.83-8.54-8.54c0-4.71,3.83-8.54,8.54-8.54c4.71,0,8.54,3.83,8.54,8.54
		C441.73,163.71,437.9,167.54,433.2,167.54z M433.2,152.85c-3.39,0-6.15,2.76-6.15,6.15s2.76,6.15,6.15,6.15s6.15-2.76,6.15-6.15
		S436.59,152.85,433.2,152.85z"/>
</g>
<path class="st1" d="M448.24,67.55c-0.64,0.83-1.1,1.98-1.87,2.27c-0.9,0.33-2.42,0.3-3.08-0.27c-2.4-2.06-4.59-4.36-6.77-6.66
	c-1.25-1.32-1.17-2.86,0.13-4.1c1.3-1.25,2.76-1.21,4.08,0.08c2.16,2.12,4.32,4.24,6.41,6.43C447.62,65.8,447.79,66.6,448.24,67.55z
	"/>
<path class="st1" d="M468.79,88.3c-0.59,0.67-1.12,1.82-1.87,2c-1.07,0.25-2.65,0.2-3.42-0.44c-2.27-1.88-4.27-4.08-6.32-6.21
	c-1.02-1.06-1.02-3.34,0.01-4.21c1.27-1.09,2.82-1.19,4.02-0.11c2.3,2.06,4.44,4.3,6.56,6.55C468.23,86.37,468.35,87.23,468.79,88.3
	z"/>
<path class="st1" d="M439.08,90.73c-2.76-0.02-4.32-2.45-2.91-4.22c2.13-2.66,4.57-5.1,7.13-7.37c1.12-0.99,2.85-0.8,3.95,0.49
	c1.09,1.29,0.93,2.73-0.23,3.94c-2.03,2.11-4.09,4.19-6.21,6.2C440.25,90.31,439.41,90.56,439.08,90.73z"/>
<path class="st1" d="M468.91,60.58c-0.61,1.08-0.91,1.97-1.49,2.58c-1.96,2.08-4,4.07-6.04,6.07c-1.28,1.25-2.65,1.44-4.03,0.13
	c-1.21-1.15-1.32-3.01-0.14-4.26c1.98-2.1,3.92-4.25,6.11-6.11c0.8-0.68,2.35-0.96,3.4-0.73C467.54,58.44,468.13,59.7,468.91,60.58z
	"/>
<path class="st1" d="M436.08,286.09c-0.52,0.67-0.89,1.61-1.52,1.84c-0.73,0.27-1.96,0.24-2.49-0.22c-1.94-1.67-3.72-3.53-5.48-5.4
	c-1.01-1.07-0.95-2.32,0.1-3.33c1.05-1.01,2.24-0.98,3.3,0.06c1.75,1.72,3.5,3.43,5.19,5.21
	C435.58,284.67,435.72,285.32,436.08,286.09z"/>
<path class="st1" d="M452.73,302.9c-0.48,0.55-0.91,1.48-1.52,1.62c-0.87,0.2-2.15,0.16-2.77-0.36c-1.84-1.52-3.46-3.31-5.12-5.03
	c-0.83-0.86-0.82-2.7,0.01-3.41c1.03-0.88,2.28-0.97,3.26-0.09c1.86,1.67,3.6,3.48,5.31,5.3
	C452.28,301.34,452.37,302.03,452.73,302.9z"/>
<path class="st1" d="M428.66,304.87c-2.24-0.02-3.5-1.99-2.36-3.42c1.72-2.16,3.71-4.14,5.78-5.97c0.91-0.8,2.31-0.65,3.2,0.4
	c0.88,1.05,0.76,2.21-0.19,3.19c-1.65,1.71-3.31,3.4-5.03,5.03C429.6,304.53,428.92,304.73,428.66,304.87z"/>
<path class="st1" d="M452.83,280.44c-0.49,0.88-0.73,1.59-1.2,2.09c-1.59,1.68-3.24,3.3-4.9,4.92c-1.04,1.02-2.15,1.17-3.26,0.11
	c-0.98-0.93-1.07-2.44-0.12-3.45c1.6-1.7,3.18-3.45,4.95-4.95c0.65-0.55,1.9-0.78,2.75-0.59
	C451.72,278.71,452.19,279.73,452.83,280.44z"/>
<polygon class="st2" points="368.89,296.91 177.11,296.91 177.11,33.09 328.19,33.09 368.89,33.09 368.89,77.64 "/>
<polygon class="st3" points="356.27,92.98 356.27,310.38 164.49,310.38 164.49,46.56 310.75,46.56 "/>
<polygon class="st4" points="356.27,92.98 310.75,92.98 310.75,46.56 "/>
<g>
	<path class="st5" d="M243.02,274h-16.25c-1.46,0-2.65-1.19-2.65-2.65c0-1.46,1.19-2.65,2.65-2.65h16.25c1.46,0,2.65,1.19,2.65,2.65
		C245.67,272.82,244.48,274,243.02,274z"/>
	<path class="st5" d="M254.35,107.9h-67.03c-1.46,0-2.65,1.19-2.65,2.65v67.03c0,1.46,1.19,2.65,2.65,2.65h67.03
		c1.46,0,2.65-1.19,2.65-2.65v-67.03C257,109.09,255.82,107.9,254.35,107.9z M204.67,174.94l17.06-29.55l17.06,29.55H204.67z
		 M228.51,146.52l-4.48-7.76c-0.47-0.82-1.35-1.32-2.3-1.32c-0.95,0-1.82,0.51-2.29,1.32l-7.38,12.78
		c-5.57-2.03-9.34-7.31-9.34-13.38c0-7.86,6.39-14.25,14.25-14.25c7.86,0,14.25,6.39,14.25,14.25
		C231.22,141.19,230.27,144.1,228.51,146.52z M251.7,174.94h-6.79l-13.58-23.52c3.35-3.62,5.19-8.32,5.19-13.26
		c0-10.78-8.77-19.55-19.55-19.55s-19.55,8.77-19.55,19.55c0,8.01,4.78,15.02,11.96,18.02l-10.83,18.76h-8.58V113.2h61.73V174.94z"
		/>
	<path class="st5" d="M254.35,190.4h-67.03c-1.46,0-2.65,1.19-2.65,2.65v70.32c0,1.46,1.19,2.65,2.65,2.65
		c1.46,0,2.65-1.19,2.65-2.65V195.7h61.73v87.01h-61.73v-8.63c0-1.46-1.19-2.65-2.65-2.65c-1.46,0-2.65,1.19-2.65,2.65v11.28
		c0,1.46,1.19,2.65,2.65,2.65h67.03c1.46,0,2.65-1.19,2.65-2.65v-92.31C257,191.58,255.82,190.4,254.35,190.4z"/>
	<path class="st5" d="M198.66,209.7h16.25c1.46,0,2.65-1.19,2.65-2.65c0-1.46-1.19-2.65-2.65-2.65h-16.25
		c-1.46,0-2.65,1.19-2.65,2.65C196.01,208.52,197.19,209.7,198.66,209.7z"/>
	<path class="st5" d="M198.66,221.36h44.36c1.46,0,2.65-1.19,2.65-2.65c0-1.46-1.19-2.65-2.65-2.65h-44.36
		c-1.46,0-2.65,1.19-2.65,2.65C196.01,220.18,197.19,221.36,198.66,221.36z"/>
	<path class="st5" d="M198.66,234.61h44.36c1.46,0,2.65-1.19,2.65-2.65c0-1.46-1.19-2.65-2.65-2.65h-44.36
		c-1.46,0-2.65,1.19-2.65,2.65C196.01,233.42,197.19,234.61,198.66,234.61z"/>
	<path class="st5" d="M198.66,247.86h44.36c1.46,0,2.65-1.19,2.65-2.65c0-1.46-1.19-2.65-2.65-2.65h-44.36
		c-1.46,0-2.65,1.19-2.65,2.65C196.01,246.67,197.19,247.86,198.66,247.86z"/>
	<path class="st5" d="M198.66,261.11h44.36c1.46,0,2.65-1.19,2.65-2.65c0-1.46-1.19-2.65-2.65-2.65h-44.36
		c-1.46,0-2.65,1.19-2.65,2.65C196.01,259.92,197.19,261.11,198.66,261.11z"/>
	<path class="st5" d="M278.85,126.43h16.25c1.46,0,2.65-1.19,2.65-2.65c0-1.46-1.19-2.65-2.65-2.65h-16.25
		c-1.46,0-2.65,1.19-2.65,2.65C276.2,125.24,277.39,126.43,278.85,126.43z"/>
	<path class="st5" d="M323.22,185.43h-16.25c-1.46,0-2.65,1.19-2.65,2.65c0,1.46,1.19,2.65,2.65,2.65h16.25
		c1.46,0,2.65-1.19,2.65-2.65C325.87,186.61,324.68,185.43,323.22,185.43z"/>
	<path class="st5" d="M278.85,138.08h44.36c1.46,0,2.65-1.19,2.65-2.65c0-1.46-1.19-2.65-2.65-2.65h-44.36
		c-1.46,0-2.65,1.19-2.65,2.65C276.2,136.9,277.39,138.08,278.85,138.08z"/>
	<path class="st5" d="M278.85,151.33h44.36c1.46,0,2.65-1.19,2.65-2.65c0-1.46-1.19-2.65-2.65-2.65h-44.36
		c-1.46,0-2.65,1.19-2.65,2.65C276.2,150.15,277.39,151.33,278.85,151.33z"/>
	<path class="st5" d="M278.85,164.58h44.36c1.46,0,2.65-1.19,2.65-2.65c0-1.46-1.19-2.65-2.65-2.65h-44.36
		c-1.46,0-2.65,1.19-2.65,2.65C276.2,163.4,277.39,164.58,278.85,164.58z"/>
	<path class="st5" d="M278.85,177.83h44.36c1.46,0,2.65-1.19,2.65-2.65c0-1.46-1.19-2.65-2.65-2.65h-44.36
		c-1.46,0-2.65,1.19-2.65,2.65C276.2,176.64,277.39,177.83,278.85,177.83z"/>
	<path class="st5" d="M334.55,215.68h-67.03c-1.46,0-2.65,1.19-2.65,2.65v67.03c0,1.46,1.19,2.65,2.65,2.65h67.03
		c1.46,0,2.65-1.19,2.65-2.65v-67.03C337.2,216.86,336.01,215.68,334.55,215.68z M331.9,282.71h-61.73v-61.73h61.73V282.71z"/>
	<path class="st5" d="M317.54,243.6c-1.52,0-2.75-1.23-2.75-2.75v-2.75h-27.48v2.75c0,1.52-1.23,2.75-2.75,2.75
		c-1.52,0-2.75-1.23-2.75-2.75v-5.5c0-1.52,1.23-2.75,2.75-2.75h32.97c1.52,0,2.75,1.23,2.75,2.75v5.5
		C320.29,242.37,319.06,243.6,317.54,243.6z"/>
	<path class="st5" d="M301.06,271.07c-1.52,0-2.75-1.23-2.75-2.75v-32.97c0-1.52,1.23-2.75,2.75-2.75c1.52,0,2.75,1.23,2.75,2.75
		v32.97C303.8,269.84,302.57,271.07,301.06,271.07z"/>
	<path class="st5" d="M306.55,271.07h-10.99c-1.52,0-2.75-1.23-2.75-2.75c0-1.52,1.23-2.75,2.75-2.75h10.99
		c1.52,0,2.75,1.23,2.75,2.75C309.3,269.84,308.07,271.07,306.55,271.07z"/>
</g>
<g>
	<path class="st6" d="M265.43,117.75h0.34v74h-0.34c-2.48,0-4.51,2.28-4.51,5.08v5.56c0,2.8,2.02,5.08,4.51,5.08h4.93
		c2.48,0,4.51-2.28,4.51-5.08v-0.39h53.99v0.39c0,2.8,2.02,5.08,4.51,5.08h4.93c2.48,0,4.51-2.28,4.51-5.08v-5.56
		c0-2.8-2.02-5.08-4.51-5.08h-0.91V138.4c0-1.32-0.95-2.39-2.12-2.39c-1.17,0-2.12,1.07-2.12,2.39v53.37
		c-2.38,0.13-4.28,2.35-4.28,5.07v0.39h-53.99v-0.39c0-2.8-2.02-5.08-4.51-5.08h-0.34v-74h0.34c2.48,0,4.51-2.28,4.51-5.08v-0.39
		h53.99v0.39c0,2.72,1.9,4.94,4.28,5.07v20.45c0,1.32,0.95,2.39,2.12,2.39c1.17,0,2.12-1.07,2.12-2.39v-20.44h0.91
		c2.48,0,4.51-2.28,4.51-5.08v-5.56c0-2.8-2.02-5.08-4.51-5.08h-4.93c-2.48,0-4.51,2.28-4.51,5.08v0.39h-53.99v-0.39
		c0-2.8-2.02-5.08-4.51-5.08h-4.93c-2.48,0-4.51,2.28-4.51,5.08v5.56C260.93,115.47,262.95,117.75,265.43,117.75L265.43,117.75z
		 M333.11,196.84c0-0.16,0.12-0.29,0.26-0.29h4.93c0.14,0,0.26,0.13,0.26,0.29v5.56c0,0.16-0.12,0.29-0.26,0.29h-4.93
		c-0.14,0-0.26-0.13-0.26-0.29V196.84z M270.63,196.84v5.56c0,0.16-0.12,0.29-0.26,0.29h-4.93c-0.14,0-0.26-0.13-0.26-0.29v-5.56
		c0-0.16,0.12-0.29,0.26-0.29h4.93C270.51,196.54,270.63,196.67,270.63,196.84z M333.11,107.11c0-0.16,0.12-0.29,0.26-0.29h4.93
		c0.14,0,0.26,0.13,0.26,0.29v5.56c0,0.16-0.12,0.29-0.26,0.29h-4.93c-0.14,0-0.26-0.13-0.26-0.29V107.11z M265.17,107.11
		c0-0.16,0.12-0.29,0.26-0.29h4.93c0.14,0,0.26,0.13,0.26,0.29v5.56c0,0.16-0.12,0.29-0.26,0.29h-4.93c-0.14,0-0.26-0.13-0.26-0.29
		V107.11z"/>
</g>
</svg>
