<?xml version="1.0" encoding="utf-8"?>
<!-- Generator: Adobe Illustrator 23.0.2, SVG Export Plug-In . SVG Version: 6.00 Build 0)  -->
<svg version="1.1" xmlns="http://www.w3.org/2000/svg" xmlns:xlink="http://www.w3.org/1999/xlink" x="0px" y="0px"
	 viewBox="0 0 531 349.96" style="enable-background:new 0 0 531 349.96;" xml:space="preserve">
<style type="text/css">
	.st0{fill:#E2E3E4;}
	.st1{fill:#FFFFFF;stroke:#A9A8A9;stroke-width:0.25;stroke-miterlimit:10;}
	.st2{fill:#E8E8E8;}
	.st3{fill:#F2CD18;}
	.st4{fill:#454546;}
	.st5{fill:#DDDDDD;}
	.st6{fill:#E7E7E7;}
	.st7{fill-rule:evenodd;clip-rule:evenodd;fill:#E7E7E7;}
</style>
<g id="Layer_1">
	<polygon class="st0" points="361.97,304.69 170.19,304.69 170.19,40.86 321.28,40.86 361.97,40.86 361.97,85.41 	"/>
	<polygon class="st1" points="349.35,100.76 349.35,318.16 157.57,318.16 157.57,54.33 303.83,54.33 	"/>
	<polygon class="st2" points="349.35,100.76 303.83,100.76 303.83,54.33 	"/>
</g>
<g id="Layer_2">
	<path class="st3" d="M400.6,201.65c-0.74,1.24-3.19,3.77-19.66,20.02c-9.54,9.42-43.79,43.45-65.13,64.51
		c-1.03,1.02,1.29-0.22-35.01,16.72c-5.01,2.35-10.15-2.89-7.84-7.84c16.97-36.36,15.69-34,16.74-35.03
		c21.27-21.27,55.4-55.41,64.79-64.8c18.25-18.26,18.61-18.61,18.66-18.56c4.73-3.82,11.53-3.44,15.78,0.81
		c10.65,10.65,10.14,10.1,10.65,10.74C402.61,191.9,403.16,197.28,400.6,201.65L400.6,201.65z"/>
	<path class="st4" d="M400.6,201.65c-0.74,1.24-3.19,3.77-19.66,20.02l-0.03-0.03l-13.27-13.27l-13.15-13.14v-0.01
		c18.25-18.26,18.61-18.61,18.66-18.56c4.73-3.82,11.53-3.44,15.78,0.81c1.95,1.95,3.53,3.53,4.81,4.8
		c5.69,5.69,5.43,5.41,5.85,5.94C402.61,191.9,403.16,197.28,400.6,201.65L400.6,201.65z"/>
	<path class="st5" d="M329.65,119.49c0,0.96-0.78,1.74-1.74,1.74H208.42c-0.96,0-1.74-0.78-1.74-1.74l0,0
		c0-0.96,0.78-1.74,1.74-1.74h119.49C328.87,117.75,329.65,118.53,329.65,119.49L329.65,119.49z"/>
	<path class="st5" d="M329.65,130.49c0,0.96-0.78,1.74-1.74,1.74H208.42c-0.96,0-1.74-0.78-1.74-1.74l0,0
		c0-0.96,0.78-1.74,1.74-1.74h119.49C328.87,128.75,329.65,129.53,329.65,130.49L329.65,130.49z"/>
	<path class="st5" d="M329.65,141.49c0,0.96-0.78,1.74-1.74,1.74H208.42c-0.96,0-1.74-0.78-1.74-1.74l0,0
		c0-0.96,0.78-1.74,1.74-1.74h119.49C328.87,139.75,329.65,140.53,329.65,141.49L329.65,141.49z"/>
	<path class="st5" d="M329.65,152.49c0,0.96-0.78,1.74-1.74,1.74H176.42c-0.96,0-1.74-0.78-1.74-1.74l0,0
		c0-0.96,0.78-1.74,1.74-1.74h151.49C328.87,150.75,329.65,151.53,329.65,152.49L329.65,152.49z"/>
	<path class="st5" d="M329.65,163.49c0,0.96-0.78,1.74-1.74,1.74H176.42c-0.96,0-1.74-0.78-1.74-1.74l0,0
		c0-0.96,0.78-1.74,1.74-1.74h151.49C328.87,161.75,329.65,162.53,329.65,163.49L329.65,163.49z"/>
	<path class="st5" d="M329.65,174.49c0,0.96-0.78,1.74-1.74,1.74H176.42c-0.96,0-1.74-0.78-1.74-1.74l0,0
		c0-0.96,0.78-1.74,1.74-1.74h151.49C328.87,172.75,329.65,173.53,329.65,174.49L329.65,174.49z"/>
	<path class="st5" d="M329.65,185.49c0,0.96-0.78,1.74-1.74,1.74H176.42c-0.96,0-1.74-0.78-1.74-1.74l0,0
		c0-0.96,0.78-1.74,1.74-1.74h151.49C328.87,183.75,329.65,184.53,329.65,185.49L329.65,185.49z"/>
	<path class="st5" d="M329.65,196.49c0,0.96-0.78,1.74-1.74,1.74H176.42c-0.96,0-1.74-0.78-1.74-1.74l0,0
		c0-0.96,0.78-1.74,1.74-1.74h151.49C328.87,194.75,329.65,195.53,329.65,196.49L329.65,196.49z"/>
	<path class="st5" d="M329.65,206.49c0,0.96-0.78,1.74-1.74,1.74H176.42c-0.96,0-1.74-0.78-1.74-1.74l0,0
		c0-0.96,0.78-1.74,1.74-1.74h151.49C328.87,204.75,329.65,205.53,329.65,206.49L329.65,206.49z"/>
	<path class="st5" d="M326.66,215.75H176.42c-0.96,0-1.74,0.78-1.74,1.74c0,0.96,0.78,1.74,1.74,1.74h146.76
		C324.36,218.06,325.52,216.89,326.66,215.75z"/>
	<path class="st5" d="M315.67,226.75H176.42c-0.96,0-1.74,0.78-1.74,1.74c0,0.96,0.78,1.74,1.74,1.74h135.77
		C313.35,229.07,314.51,227.91,315.67,226.75z"/>
	<path class="st5" d="M293.67,248.75H176.42c-0.96,0-1.74,0.78-1.74,1.74c0,0.96,0.78,1.74,1.74,1.74h113.77
		C291.33,251.09,292.49,249.93,293.67,248.75z"/>
	<path class="st5" d="M304.67,237.75H176.42c-0.96,0-1.74,0.78-1.74,1.74c0,0.96,0.78,1.74,1.74,1.74h124.77
		C302.34,240.08,303.5,238.92,304.67,237.75z"/>
	<path class="st5" d="M282.77,259.75H176.42c-0.96,0-1.74,0.78-1.74,1.74c0,0.96,0.78,1.74,1.74,1.74h104.61
		C282.02,261.13,282.48,260.22,282.77,259.75z"/>
	<g>
		<path class="st5" d="M277.51,270.75H176.42c-0.96,0-1.74,0.78-1.74,1.74c0,0.96,0.78,1.74,1.74,1.74h99.47
			C276.48,272.97,277.02,271.81,277.51,270.75z"/>
	</g>
	<g>
		<path class="st5" d="M272.39,281.75h-95.97c-0.96,0-1.74,0.78-1.74,1.74c0,0.96,0.78,1.74,1.74,1.74h94.35
			C271.33,284.02,271.87,282.86,272.39,281.75z"/>
	</g>
	<g>
		<path class="st6" d="M54.99,272.53c-7.89,0-14.3-6.42-14.3-14.3c0-7.89,6.42-14.3,14.3-14.3c7.89,0,14.3,6.42,14.3,14.3
			C69.29,266.11,62.87,272.53,54.99,272.53z M54.99,247.93c-5.68,0-10.3,4.62-10.3,10.3c0,5.68,4.62,10.3,10.3,10.3
			s10.3-4.62,10.3-10.3C65.29,252.55,60.67,247.93,54.99,247.93z"/>
	</g>
	<path class="st6" d="M127.7,150.53h-5.55v-5.55c0-2.04-1.66-3.7-3.7-3.7c-2.04,0-3.7,1.66-3.7,3.7v5.55h-5.55
		c-2.04,0-3.7,1.67-3.7,3.7c0,2.04,1.66,3.7,3.7,3.7h5.55v5.55c0,2.04,1.67,3.7,3.7,3.7c2.04,0,3.7-1.67,3.7-3.7v-5.55h5.55
		c2.04,0,3.7-1.66,3.7-3.7C131.4,152.2,129.73,150.53,127.7,150.53z"/>
	<path class="st6" d="M88.32,43.63h-3.57v-3.57c0-1.31-1.07-2.38-2.38-2.38c-1.31,0-2.38,1.07-2.38,2.38v3.57h-3.57
		c-1.31,0-2.38,1.07-2.38,2.38c0,1.31,1.07,2.38,2.38,2.38H80v3.57c0,1.31,1.07,2.38,2.38,2.38c1.31,0,2.38-1.07,2.38-2.38v-3.57
		h3.57c1.31,0,2.38-1.07,2.38-2.38C90.7,44.7,89.63,43.63,88.32,43.63z"/>
	<g>
		<path class="st6" d="M432.16,167.93c-4.71,0-8.54-3.83-8.54-8.54c0-4.71,3.83-8.54,8.54-8.54c4.71,0,8.54,3.83,8.54,8.54
			C440.7,164.1,436.87,167.93,432.16,167.93z M432.16,153.24c-3.39,0-6.15,2.76-6.15,6.15s2.76,6.15,6.15,6.15
			c3.39,0,6.15-2.76,6.15-6.15S435.55,153.24,432.16,153.24z"/>
	</g>
	<path class="st7" d="M447.21,67.94c-0.64,0.83-1.1,1.98-1.87,2.27c-0.9,0.33-2.42,0.3-3.08-0.27c-2.4-2.06-4.59-4.36-6.77-6.66
		c-1.25-1.32-1.17-2.86,0.13-4.1c1.3-1.25,2.76-1.21,4.08,0.08c2.16,2.12,4.32,4.24,6.41,6.43
		C446.58,66.19,446.76,66.99,447.21,67.94z"/>
	<path class="st7" d="M467.75,88.69c-0.59,0.67-1.12,1.82-1.87,2c-1.07,0.25-2.65,0.2-3.42-0.44c-2.27-1.88-4.27-4.08-6.32-6.21
		c-1.02-1.06-1.02-3.34,0.01-4.21c1.27-1.09,2.82-1.19,4.02-0.11c2.3,2.06,4.44,4.3,6.56,6.55
		C467.2,86.76,467.31,87.62,467.75,88.69z"/>
	<path class="st7" d="M438.05,91.12c-2.76-0.02-4.32-2.45-2.91-4.22c2.13-2.66,4.57-5.1,7.13-7.37c1.12-0.99,2.85-0.8,3.95,0.49
		c1.09,1.29,0.93,2.73-0.23,3.94c-2.03,2.11-4.09,4.19-6.21,6.2C439.21,90.7,438.37,90.95,438.05,91.12z"/>
	<path class="st7" d="M467.88,60.97c-0.61,1.08-0.91,1.97-1.49,2.58c-1.96,2.08-4,4.07-6.04,6.07c-1.28,1.25-2.65,1.44-4.03,0.13
		c-1.21-1.15-1.32-3.01-0.14-4.26c1.98-2.1,3.92-4.25,6.11-6.11c0.8-0.68,2.35-0.96,3.4-0.73
		C466.51,58.83,467.09,60.09,467.88,60.97z"/>
	<path class="st7" d="M435.05,286.48c-0.52,0.67-0.89,1.61-1.52,1.84c-0.73,0.27-1.96,0.24-2.49-0.22c-1.94-1.67-3.72-3.53-5.48-5.4
		c-1.01-1.07-0.95-2.32,0.1-3.33c1.05-1.01,2.24-0.98,3.3,0.06c1.75,1.72,3.5,3.43,5.19,5.21
		C434.54,285.06,434.68,285.71,435.05,286.48z"/>
	<path class="st7" d="M451.69,303.29c-0.48,0.55-0.91,1.48-1.52,1.62c-0.87,0.2-2.15,0.16-2.77-0.36c-1.84-1.52-3.46-3.31-5.12-5.03
		c-0.83-0.86-0.82-2.7,0.01-3.41c1.03-0.88,2.28-0.97,3.26-0.09c1.86,1.67,3.6,3.48,5.31,5.3
		C451.24,301.73,451.33,302.42,451.69,303.29z"/>
	<path class="st7" d="M427.62,305.26c-2.24-0.02-3.5-1.99-2.36-3.42c1.72-2.16,3.71-4.14,5.78-5.97c0.91-0.8,2.31-0.65,3.2,0.4
		c0.88,1.05,0.76,2.21-0.19,3.19c-1.65,1.71-3.31,3.4-5.03,5.03C428.57,304.92,427.88,305.12,427.62,305.26z"/>
	<path class="st7" d="M451.79,280.83c-0.49,0.88-0.73,1.59-1.2,2.09c-1.59,1.68-3.24,3.3-4.9,4.92c-1.04,1.02-2.15,1.17-3.26,0.11
		c-0.98-0.93-1.07-2.44-0.12-3.45c1.6-1.7,3.18-3.45,4.95-4.95c0.65-0.55,1.9-0.78,2.75-0.59
		C450.68,279.1,451.16,280.12,451.79,280.83z"/>
</g>
<g id="Layer_4">
	<path class="st5" d="M198.92,125.13c-1.03,0-1.87-0.84-1.87-1.87v-1.87H178.4v1.87c0,1.03-0.84,1.87-1.87,1.87
		s-1.87-0.84-1.87-1.87v-3.73c0-1.03,0.84-1.87,1.87-1.87h22.38c1.03,0,1.87,0.84,1.87,1.87v3.73
		C200.79,124.3,199.95,125.13,198.92,125.13z"/>
	<path class="st5" d="M187.73,143.79c-1.03,0-1.87-0.84-1.87-1.87v-22.38c0-1.03,0.84-1.87,1.87-1.87s1.87,0.84,1.87,1.87v22.38
		C189.6,142.95,188.76,143.79,187.73,143.79z"/>
	<path class="st5" d="M191.46,143.79H184c-1.03,0-1.87-0.84-1.87-1.87s0.84-1.87,1.87-1.87h7.46c1.03,0,1.87,0.84,1.87,1.87
		S192.49,143.79,191.46,143.79z"/>
</g>
</svg>
