<?xml version="1.0" encoding="utf-8"?>
<!-- Generator: Adobe Illustrator 23.0.2, SVG Export Plug-In . SVG Version: 6.00 Build 0)  -->
<svg version="1.1" id="Layer_2" xmlns="http://www.w3.org/2000/svg" xmlns:xlink="http://www.w3.org/1999/xlink" x="0px" y="0px"
	 viewBox="0 0 531 349.96" style="enable-background:new 0 0 531 349.96;" xml:space="preserve">
<style type="text/css">
	.st0{fill:#E7E7E7;}
	.st1{fill-rule:evenodd;clip-rule:evenodd;fill:#E7E7E7;}
	.st2{fill:#E2E3E3;}
	.st3{fill:#FFFFFF;stroke:#A9A8A9;stroke-width:0.25;stroke-miterlimit:10;}
	.st4{fill:#E9E8E7;}
	.st5{fill:#F1CC1E;stroke:#F1CC1E;stroke-miterlimit:10;}
	.st6{fill:#DDDDDC;}
	.st7{fill:none;stroke:#F1CC1E;stroke-width:3;stroke-miterlimit:10;}
	.st8{fill:#F2CD1B;}
	.st9{fill:#FFFFFF;}
</style>
<g>
	<path class="st0" d="M55.41,271.15c-7.89,0-14.3-6.42-14.3-14.3c0-7.89,6.42-14.3,14.3-14.3c7.89,0,14.3,6.42,14.3,14.3
		C69.71,264.73,63.3,271.15,55.41,271.15z M55.41,246.54c-5.68,0-10.3,4.62-10.3,10.3c0,5.68,4.62,10.3,10.3,10.3
		s10.3-4.62,10.3-10.3C65.71,251.17,61.09,246.54,55.41,246.54z"/>
</g>
<path class="st0" d="M128.12,149.15h-5.55v-5.55c0-2.04-1.66-3.7-3.7-3.7c-2.04,0-3.7,1.66-3.7,3.7v5.55h-5.55
	c-2.04,0-3.7,1.67-3.7,3.7c0,2.04,1.66,3.7,3.7,3.7h5.55v5.55c0,2.04,1.67,3.7,3.7,3.7c2.04,0,3.7-1.67,3.7-3.7v-5.55h5.55
	c2.04,0,3.7-1.66,3.7-3.7C131.82,150.82,130.15,149.15,128.12,149.15z"/>
<path class="st0" d="M88.75,42.24h-3.57v-3.57c0-1.31-1.07-2.38-2.38-2.38c-1.31,0-2.38,1.07-2.38,2.38v3.57h-3.57
	c-1.31,0-2.38,1.07-2.38,2.38c0,1.31,1.07,2.38,2.38,2.38h3.57v3.57c0,1.31,1.07,2.38,2.38,2.38c1.31,0,2.38-1.07,2.38-2.38V47h3.57
	c1.31,0,2.38-1.07,2.38-2.38C91.13,43.32,90.05,42.24,88.75,42.24z"/>
<g>
	<path class="st0" d="M432.58,166.55c-4.71,0-8.54-3.83-8.54-8.54c0-4.71,3.83-8.54,8.54-8.54c4.71,0,8.54,3.83,8.54,8.54
		C441.12,162.72,437.29,166.55,432.58,166.55z M432.58,151.86c-3.39,0-6.15,2.76-6.15,6.15c0,3.39,2.76,6.15,6.15,6.15
		c3.39,0,6.15-2.76,6.15-6.15C438.73,154.62,435.97,151.86,432.58,151.86z"/>
</g>
<path class="st1" d="M447.63,66.56c-0.64,0.83-1.1,1.98-1.87,2.27c-0.9,0.33-2.42,0.3-3.08-0.27c-2.4-2.06-4.59-4.36-6.77-6.66
	c-1.25-1.32-1.17-2.86,0.13-4.1c1.3-1.25,2.76-1.21,4.08,0.08c2.16,2.12,4.32,4.24,6.41,6.43
	C447.01,64.81,447.18,65.61,447.63,66.56z"/>
<path class="st1" d="M468.17,87.3c-0.59,0.67-1.12,1.82-1.87,2c-1.07,0.25-2.65,0.2-3.42-0.44c-2.27-1.88-4.27-4.08-6.32-6.21
	c-1.02-1.06-1.02-3.34,0.01-4.21c1.27-1.09,2.82-1.19,4.02-0.11c2.3,2.06,4.44,4.3,6.56,6.55C467.62,85.38,467.74,86.23,468.17,87.3
	z"/>
<path class="st1" d="M438.47,89.73c-2.76-0.02-4.32-2.45-2.91-4.22c2.13-2.66,4.57-5.1,7.13-7.37c1.12-0.99,2.85-0.8,3.95,0.49
	c1.09,1.29,0.93,2.73-0.23,3.94c-2.03,2.11-4.09,4.19-6.21,6.2C439.63,89.32,438.79,89.56,438.47,89.73z"/>
<path class="st1" d="M468.3,59.58c-0.61,1.08-0.91,1.97-1.49,2.58c-1.96,2.08-4,4.07-6.04,6.07c-1.28,1.25-2.65,1.44-4.03,0.13
	c-1.21-1.15-1.32-3.01-0.14-4.26c1.98-2.1,3.92-4.25,6.11-6.11c0.8-0.68,2.35-0.96,3.4-0.73C466.93,57.45,467.52,58.7,468.3,59.58z"
	/>
<path class="st1" d="M435.47,285.1c-0.52,0.67-0.89,1.61-1.52,1.84c-0.73,0.27-1.96,0.24-2.49-0.22c-1.94-1.67-3.72-3.53-5.48-5.4
	c-1.01-1.07-0.95-2.32,0.1-3.33c1.05-1.01,2.24-0.98,3.3,0.06c1.75,1.72,3.5,3.43,5.19,5.21
	C434.96,283.68,435.1,284.33,435.47,285.1z"/>
<path class="st1" d="M452.11,301.91c-0.48,0.55-0.91,1.48-1.52,1.62c-0.87,0.2-2.15,0.16-2.77-0.36c-1.84-1.52-3.46-3.31-5.12-5.03
	c-0.83-0.86-0.82-2.7,0.01-3.41c1.03-0.88,2.28-0.97,3.26-0.09c1.86,1.67,3.6,3.48,5.31,5.3
	C451.66,300.35,451.76,301.04,452.11,301.91z"/>
<path class="st1" d="M428.05,303.87c-2.24-0.02-3.5-1.99-2.36-3.42c1.72-2.16,3.71-4.14,5.78-5.97c0.91-0.8,2.31-0.65,3.2,0.4
	c0.88,1.05,0.76,2.21-0.19,3.19c-1.65,1.71-3.31,3.4-5.03,5.03C428.99,303.54,428.31,303.74,428.05,303.87z"/>
<path class="st1" d="M452.21,279.45c-0.49,0.88-0.73,1.59-1.2,2.09c-1.59,1.68-3.24,3.3-4.9,4.92c-1.04,1.02-2.15,1.17-3.26,0.11
	c-0.98-0.93-1.07-2.44-0.12-3.45c1.6-1.7,3.18-3.45,4.95-4.95c0.65-0.55,1.9-0.78,2.75-0.59
	C451.1,277.72,451.58,278.74,452.21,279.45z"/>
<polygon class="st2" points="371.06,294.19 179.28,294.19 179.28,30.37 330.37,30.37 371.06,30.37 371.06,74.92 "/>
<polygon class="st3" points="358.44,90.26 358.44,307.66 166.66,307.66 166.66,43.84 312.92,43.84 "/>
<polygon class="st4" points="358.44,90.26 312.92,90.26 312.92,43.84 "/>
<g>
	<g>
		<g>
			<g>
				<path class="st5" d="M205.85,184.87c-6.73,0-10.44,3.18-10.44,8.96c0,0.45,0.37,0.82,0.82,0.82h19.24
					c0.45,0,0.82-0.37,0.82-0.82C216.28,188.06,212.58,184.87,205.85,184.87z M197.08,193.02c0.32-4.32,3.27-6.51,8.77-6.51
					c5.5,0,8.45,2.19,8.77,6.51H197.08z"/>
			</g>
		</g>
	</g>
	<g>
		<g>
			<g>
				<path class="st5" d="M205.85,171.26c-3.09,0-5.42,2.38-5.42,5.53c0,3.25,2.43,5.89,5.42,5.89c2.99,0,5.42-2.64,5.42-5.89
					C211.27,173.63,208.94,171.26,205.85,171.26z M205.85,181.04c-2.09,0-3.79-1.91-3.79-4.25c0-2.26,1.59-3.9,3.79-3.9
					c2.16,0,3.79,1.67,3.79,3.9C209.64,179.13,207.94,181.04,205.85,181.04z"/>
			</g>
		</g>
	</g>
</g>
<path class="st6" d="M339.74,109c0,0.96-0.78,1.74-1.74,1.74H218.51c-0.96,0-1.74-0.78-1.74-1.74l0,0c0-0.96,0.78-1.74,1.74-1.74
	H338C338.96,107.26,339.74,108.04,339.74,109L339.74,109z"/>
<path class="st6" d="M339.74,120c0,0.96-0.78,1.74-1.74,1.74H218.51c-0.96,0-1.74-0.78-1.74-1.74l0,0c0-0.96,0.78-1.74,1.74-1.74
	H338C338.96,118.26,339.74,119.04,339.74,120L339.74,120z"/>
<path class="st6" d="M339.74,131c0,0.96-0.78,1.74-1.74,1.74H218.51c-0.96,0-1.74-0.78-1.74-1.74l0,0c0-0.96,0.78-1.74,1.74-1.74
	H338C338.96,129.26,339.74,130.04,339.74,131L339.74,131z"/>
<path class="st6" d="M339.74,142c0,0.96-0.78,1.74-1.74,1.74H186.51c-0.96,0-1.74-0.78-1.74-1.74l0,0c0-0.96,0.78-1.74,1.74-1.74
	H338C338.96,140.26,339.74,141.04,339.74,142L339.74,142z"/>
<path class="st6" d="M339.74,153c0,0.96-0.78,1.74-1.74,1.74H186.51c-0.96,0-1.74-0.78-1.74-1.74l0,0c0-0.96,0.78-1.74,1.74-1.74
	H338C338.96,151.26,339.74,152.04,339.74,153L339.74,153z"/>
<g>
	<path class="st6" d="M209.01,114.64c-1.03,0-1.87-0.84-1.87-1.87v-1.87h-18.65v1.87c0,1.03-0.84,1.87-1.87,1.87
		s-1.87-0.84-1.87-1.87v-3.73c0-1.03,0.84-1.87,1.87-1.87h22.38c1.03,0,1.87,0.84,1.87,1.87v3.73
		C210.88,113.8,210.04,114.64,209.01,114.64z"/>
	<path class="st6" d="M197.82,133.29c-1.03,0-1.87-0.84-1.87-1.87v-22.38c0-1.03,0.84-1.87,1.87-1.87s1.87,0.84,1.87,1.87v22.38
		C199.69,132.45,198.85,133.29,197.82,133.29z"/>
	<path class="st6" d="M201.55,133.29h-7.46c-1.03,0-1.87-0.84-1.87-1.87s0.84-1.87,1.87-1.87h7.46c1.03,0,1.87,0.84,1.87,1.87
		S202.58,133.29,201.55,133.29z"/>
</g>
<rect x="186.76" y="165.55" class="st7" width="36.77" height="36.77"/>
<path class="st6" d="M340.41,166.76c0,0.96-0.78,1.74-1.74,1.74H237.17c-0.96,0-1.74-0.78-1.74-1.74l0,0c0-0.96,0.78-1.74,1.74-1.74
	h101.49C339.63,165.01,340.41,165.79,340.41,166.76L340.41,166.76z"/>
<path class="st6" d="M340.41,177.76c0,0.96-0.78,1.74-1.74,1.74H237.17c-0.96,0-1.74-0.78-1.74-1.74l0,0c0-0.96,0.78-1.74,1.74-1.74
	h101.49C339.63,176.01,340.41,176.79,340.41,177.76L340.41,177.76z"/>
<path class="st6" d="M340.41,189.76c0,0.96-0.78,1.74-1.74,1.74H237.17c-0.96,0-1.74-0.78-1.74-1.74l0,0c0-0.96,0.78-1.74,1.74-1.74
	h101.49C339.63,188.01,340.41,188.79,340.41,189.76L340.41,189.76z"/>
<path class="st6" d="M340.41,200.76c0,0.96-0.78,1.74-1.74,1.74H237.17c-0.96,0-1.74-0.78-1.74-1.74l0,0c0-0.96,0.78-1.74,1.74-1.74
	h101.49C339.63,199.01,340.41,199.79,340.41,200.76L340.41,200.76z"/>
<g>
	<g>
		<g>
			<g>
				<path class="st5" d="M205.85,233.87c-6.73,0-10.44,3.18-10.44,8.96c0,0.45,0.37,0.82,0.82,0.82h19.24
					c0.45,0,0.82-0.37,0.82-0.82C216.28,237.06,212.58,233.87,205.85,233.87z M197.08,242.02c0.32-4.32,3.27-6.51,8.77-6.51
					c5.5,0,8.45,2.19,8.77,6.51H197.08z"/>
			</g>
		</g>
	</g>
	<g>
		<g>
			<g>
				<path class="st5" d="M205.85,220.26c-3.09,0-5.42,2.38-5.42,5.53c0,3.25,2.43,5.89,5.42,5.89c2.99,0,5.42-2.64,5.42-5.89
					C211.27,222.63,208.94,220.26,205.85,220.26z M205.85,230.04c-2.09,0-3.79-1.91-3.79-4.25c0-2.26,1.59-3.9,3.79-3.9
					c2.16,0,3.79,1.67,3.79,3.9C209.64,228.13,207.94,230.04,205.85,230.04z"/>
			</g>
		</g>
	</g>
</g>
<rect x="186.76" y="214.55" class="st7" width="36.77" height="36.77"/>
<path class="st6" d="M340.41,215.76c0,0.96-0.78,1.74-1.74,1.74H237.17c-0.96,0-1.74-0.78-1.74-1.74l0,0c0-0.96,0.78-1.74,1.74-1.74
	h101.49C339.63,214.01,340.41,214.79,340.41,215.76L340.41,215.76z"/>
<path class="st6" d="M339.74,265c0,0.96-0.78,1.74-1.74,1.74H186.51c-0.96,0-1.74-0.78-1.74-1.74l0,0c0-0.96,0.78-1.74,1.74-1.74
	H338C338.96,263.26,339.74,264.04,339.74,265L339.74,265z"/>
<path class="st6" d="M339.74,276c0,0.96-0.78,1.74-1.74,1.74H186.51c-0.96,0-1.74-0.78-1.74-1.74l0,0c0-0.96,0.78-1.74,1.74-1.74
	H338C338.96,274.26,339.74,275.04,339.74,276L339.74,276z"/>
<path class="st6" d="M340.41,226.76c0,0.96-0.78,1.74-1.74,1.74H237.17c-0.96,0-1.74-0.78-1.74-1.74l0,0c0-0.96,0.78-1.74,1.74-1.74
	h101.49C339.63,225.01,340.41,225.79,340.41,226.76L340.41,226.76z"/>
<path class="st6" d="M340.41,238.76c0,0.96-0.78,1.74-1.74,1.74H237.17c-0.96,0-1.74-0.78-1.74-1.74l0,0c0-0.96,0.78-1.74,1.74-1.74
	h101.49C339.63,237.01,340.41,237.79,340.41,238.76L340.41,238.76z"/>
<path class="st6" d="M340.41,249.76c0,0.96-0.78,1.74-1.74,1.74H237.17c-0.96,0-1.74-0.78-1.74-1.74l0,0c0-0.96,0.78-1.74,1.74-1.74
	h101.49C339.63,248.01,340.41,248.79,340.41,249.76L340.41,249.76z"/>
<g>
	<path class="st8" d="M345.45,229.02c30.23,0,54.73,24.5,54.73,54.73c0,30.23-24.5,54.73-54.73,54.73
		c-30.23,0-54.73-24.5-54.73-54.73l0,0c-0.09-30.14,24.28-54.65,54.42-54.73C345.24,229.01,345.35,229.01,345.45,229.02z"/>
	<polygon class="st9" points="375.77,268.67 336.9,307.54 315.13,285.93 323.99,277.22 336.9,289.97 366.91,259.96 	"/>
</g>
</svg>
