<!-- Generator: Adobe Illustrator 23.0.2, SVG Export Plug-In  -->
<svg version="1.1" xmlns="http://www.w3.org/2000/svg" xmlns:xlink="http://www.w3.org/1999/xlink" x="0px" y="0px" width="44.88px"
	 height="44.78px" viewBox="0 0 44.88 44.78" style="enable-background:new 0 0 44.88 44.78;" xml:space="preserve">
<style type="text/css">
	.st0{fill:#333333;}
</style>
<defs>
</defs>
<g>
	<g>
		<g>
			<rect x="32.23" y="29.89" class="st0" width="4.5" height="1.5"/>
			<rect x="26.23" y="29.89" class="st0" width="4.5" height="1.5"/>
			<rect x="20.24" y="29.89" class="st0" width="4.5" height="1.5"/>
			<path class="st0" d="M44.21,15.5L29.38,0.66C28.96,0.24,28.39,0,27.79,0h-0.01c-0.59,0-1.16,0.24-1.58,0.66L10.47,16.39H2.25
				C1.01,16.39,0,17.4,0,18.64v20.99c0,1.24,1.01,2.25,2.25,2.25h11.11l2.24,2.24c0.42,0.43,1,0.66,1.59,0.66h0.01
				c0.59,0,1.16-0.24,1.58-0.66l2.24-2.24h17.21c1.24,0,2.25-1.01,2.25-2.25V22.42l3.73-3.73c0.43-0.42,0.67-0.99,0.67-1.58
				C44.88,16.5,44.64,15.92,44.21,15.5z M34.68,8.08l-8.31,8.31H20L31.5,4.9L34.68,8.08z M27.26,1.72c0.29-0.29,0.75-0.3,1.05-0.01
				c0,0,0.01,0.01,0.01,0.01l2.12,2.12L17.88,16.39h-5.29L27.26,1.72z M17.71,43.06c-0.14,0.14-0.33,0.22-0.52,0.22
				c-0.2,0-0.39-0.08-0.53-0.22l-1.18-1.18h3.42L17.71,43.06z M38.98,39.63c0,0.41-0.34,0.75-0.75,0.75H2.25
				c-0.41,0-0.75-0.34-0.75-0.75V29.14h37.48V39.63z M38.98,27.64H1.5v-4.5h37.48V27.64z M38.98,21.64H1.5v-3
				c0-0.41,0.34-0.75,0.75-0.75h35.98c0.41,0,0.75,0.34,0.75,0.75V21.64z M43.15,17.62L43.15,17.62l-2.68,2.68v-1.65
				c0-1.24-1.01-2.25-2.25-2.25h-9.74l7.25-7.25l7.42,7.42c0.14,0.14,0.23,0.33,0.22,0.54C43.38,17.29,43.3,17.48,43.15,17.62z"/>
			<path class="st0" d="M7.19,38.9c0.11-0.09,0.21-0.2,0.31-0.31c0.99,1.15,2.69,1.37,3.95,0.51c0.81-0.56,1.29-1.49,1.3-2.47
				c0-1.66-1.34-3-3-3c-0.15,0-0.3,0.01-0.44,0.04l-0.02,0.01c-0.01,0-0.01,0-0.02,0c-0.69,0.11-1.31,0.47-1.76,1
				c-1.08-1.25-2.98-1.39-4.23-0.31c-1.25,1.08-1.39,2.98-0.31,4.23C4.04,39.85,5.94,39.98,7.19,38.9z M9.55,35.15
				c0.06-0.01,0.13-0.02,0.19-0.02c0.83,0,1.5,0.67,1.5,1.5c0,0.32-0.1,0.63-0.29,0.88c-0.03,0.04-0.05,0.07-0.08,0.11
				c-0.01,0.01-0.01,0.01-0.02,0.02c-0.28,0.31-0.69,0.49-1.11,0.49c-0.83-0.01-1.49-0.7-1.47-1.52
				C8.28,35.87,8.83,35.25,9.55,35.15z M5.25,35.13c0.83,0,1.5,0.67,1.5,1.5c0,0.83-0.67,1.5-1.5,1.5s-1.5-0.67-1.5-1.5
				C3.75,35.8,4.42,35.13,5.25,35.13z"/>
		</g>
	</g>
</g>
</svg>
