<!-- Generator: Adobe Illustrator 23.0.2, SVG Export Plug-In  -->
<svg version="1.1" xmlns="http://www.w3.org/2000/svg" xmlns:xlink="http://www.w3.org/1999/xlink" x="0px" y="0px" width="26.54px"
	 height="30.33px" viewBox="0 0 26.54 30.33" style="enable-background:new 0 0 26.54 30.33;" xml:space="preserve">
<style type="text/css">
	.st0{fill:#1D1C1A;}
</style>
<defs>
</defs>
<g>
	<g>
		<path class="st0" d="M21.26,2.42C19.88,0.82,17.47,0,14.1,0H5.66C4.59,0,3.7,0.78,3.53,1.84L0.02,24.59
			c-0.07,0.49,0.07,0.99,0.39,1.36c0.32,0.37,0.78,0.58,1.26,0.58H7.7l1.39-9.03c0.03-0.13,0.13-0.22,0.25-0.22h2.48
			c6.02,0,9.62-2.9,10.71-8.62l0.1-0.55C22.98,5.66,22.58,3.95,21.26,2.42z M20.75,7.83l-0.09,0.48c-0.91,4.76-3.8,7.08-8.85,7.08
			H9.34c-0.98,0-1.81,0.65-2.07,1.58l-0.02,0l-0.04,0.26c0,0,0,0,0,0.01l-1.14,7.4H1.93L5.41,2.13C5.43,2,5.53,1.9,5.66,1.9h8.44
			c2.79,0,4.72,0.59,5.72,1.76C20.77,4.76,21.03,5.93,20.75,7.83z"/>
	</g>
</g>
<g>
	<g>
		
			<rect x="11.83" y="20.09" transform="matrix(0.1425 -0.9898 0.9898 0.1425 -10.5692 29.8777)" class="st0" width="0.27" height="1.9"/>
	</g>
</g>
<g>
	<g>
		<path class="st0" d="M25.05,6.2c-0.75-0.86-1.8-1.5-3.13-1.9l-0.54,1.82c0.98,0.3,1.74,0.74,2.24,1.32
			c0.94,1.09,1.2,2.3,0.92,4.17c0,0-0.05,0.31-0.09,0.49c-0.9,4.76-3.79,7.08-8.85,7.08h-2.46c-1.06,0-1.96,0.77-2.13,1.85
			l-1.14,7.4H5.71l0.42-2.7l-1.87-0.29L3.8,28.41c-0.06,0.49,0.09,0.99,0.42,1.35c0.32,0.36,0.77,0.56,1.25,0.56h6.03l1.39-9
			c0.02-0.12,0.12-0.25,0.26-0.25h2.46c6.03,0,9.63-2.9,10.7-8.58c0.04-0.19,0.11-0.56,0.11-0.58C26.78,9.48,26.36,7.72,25.05,6.2z"
			/>
	</g>
</g>
</svg>
