<!-- Generator: Adobe Illustrator 23.0.2, SVG Export Plug-In  -->
<svg version="1.1" xmlns="http://www.w3.org/2000/svg" xmlns:xlink="http://www.w3.org/1999/xlink" x="0px" y="0px" width="32.62px"
	 height="32.62px" viewBox="0 0 32.62 32.62" style="enable-background:new 0 0 32.62 32.62;" xml:space="preserve">
<style type="text/css">
	.st0{fill:#FFFFFF;}
</style>
<defs>
</defs>
<path class="st0" d="M30.99,14.68H17.94V1.63c0-0.9-0.73-1.63-1.63-1.63c-0.9,0-1.63,0.73-1.63,1.63v13.05H1.63
	c-0.9,0-1.63,0.73-1.63,1.63c0,0.9,0.73,1.63,1.63,1.63h13.05v13.05c0,0.9,0.73,1.63,1.63,1.63c0.9,0,1.63-0.73,1.63-1.63V17.94
	h13.05c0.9,0,1.63-0.73,1.63-1.63C32.62,15.41,31.89,14.68,30.99,14.68z"/>
</svg>
