<!-- Generator: Adobe Illustrator 23.0.2, SVG Export Plug-In  -->
<svg version="1.1" xmlns="http://www.w3.org/2000/svg" xmlns:xlink="http://www.w3.org/1999/xlink" x="0px" y="0px" width="26.36px"
	 height="26.36px" viewBox="0 0 26.36 26.36" style="enable-background:new 0 0 26.36 26.36;" xml:space="preserve">
<style type="text/css">
	.st0{fill:#333333;}
</style>
<defs>
</defs>
<g>
	<g>
		<path class="st0" d="M13.18,0C5.91,0,0,5.91,0,13.18c0,7.27,5.91,13.18,13.18,13.18c7.27,0,13.18-5.91,13.18-13.18
			C26.36,5.91,20.45,0,13.18,0z M13.18,24.71c-6.36,0-11.53-5.17-11.53-11.53c0-6.36,5.17-11.53,11.53-11.53
			c6.36,0,11.53,5.17,11.53,11.53C24.71,19.54,19.54,24.71,13.18,24.71z M14,8.24c0.72,0,1.39,0.21,2.01,0.63
			c0.38,0.26,0.89,0.16,1.14-0.22c0.26-0.38,0.16-0.89-0.22-1.15c-0.88-0.6-1.89-0.92-2.94-0.92c-2.41,0-4.48,1.71-5.34,4.12H7.41
			c-0.45,0-0.82,0.37-0.82,0.82c0,0.45,0.37,0.82,0.82,0.82h0.9c-0.03,0.27-0.07,0.54-0.07,0.82c0,0.28,0.04,0.55,0.07,0.82h-0.9
			c-0.45,0-0.82,0.37-0.82,0.82c0,0.45,0.37,0.82,0.82,0.82h1.25c0.86,2.41,2.92,4.12,5.34,4.12c1.04,0,2.06-0.32,2.94-0.92
			c0.38-0.26,0.47-0.77,0.22-1.14c-0.26-0.38-0.77-0.47-1.14-0.22c-0.61,0.42-1.29,0.63-2.01,0.63c-1.52,0-2.83-1-3.54-2.47h2.72
			c0.45,0,0.82-0.37,0.82-0.82c0-0.45-0.37-0.82-0.82-0.82H9.95c-0.04-0.27-0.07-0.54-0.07-0.82c0-0.28,0.03-0.56,0.07-0.82H14
			c0.45,0,0.82-0.37,0.82-0.82c0-0.45-0.37-0.82-0.82-0.82h-3.54C11.17,9.24,12.49,8.24,14,8.24z"/>
	</g>
</g>
</svg>
