<!-- Generator: Adobe Illustrator 23.0.2, SVG Export Plug-In  -->
<svg version="1.1" xmlns="http://www.w3.org/2000/svg" xmlns:xlink="http://www.w3.org/1999/xlink" x="0px" y="0px" width="27.95px"
	 height="27.77px" viewBox="0 0 27.95 27.77" style="enable-background:new 0 0 27.95 27.77;" xml:space="preserve">
<style type="text/css">
	.st0{fill:#333333;}
</style>
<defs>
</defs>
<g>
	<g>
		<path class="st0" d="M6.82,14.83c-0.81,0-1.47,0.66-1.47,1.47c0,0.81,0.66,1.47,1.47,1.47c0.81,0,1.47-0.66,1.47-1.47
			C8.29,15.49,7.63,14.83,6.82,14.83z M6.82,16.47c-0.09,0-0.16-0.07-0.16-0.16c0-0.09,0.07-0.16,0.16-0.16
			c0.09,0,0.16,0.07,0.16,0.16C6.98,16.4,6.91,16.47,6.82,16.47z M17.49,22.32h-2.21l-0.68-2.1c-0.09-0.27-0.34-0.45-0.62-0.45
			c-0.28,0-0.54,0.19-0.62,0.45l-0.68,2.1h-2.21c-0.29,0-0.54,0.18-0.62,0.45c-0.09,0.27,0.01,0.57,0.24,0.73l1.79,1.3l-0.68,2.1
			c-0.08,0.26,0,0.55,0.22,0.72c0.12,0.09,0.26,0.14,0.41,0.14c0.14,0,0.27-0.04,0.38-0.12l1.79-1.3l1.79,1.3
			c0.25,0.18,0.59,0.16,0.82-0.04c0.2-0.17,0.27-0.44,0.19-0.69l-0.68-2.1l1.79-1.3c0.23-0.17,0.33-0.46,0.24-0.73
			C18.02,22.5,17.77,22.32,17.49,22.32z M14.93,24.02c-0.23,0.17-0.33,0.46-0.24,0.73l0.21,0.64L14.36,25
			c-0.11-0.08-0.25-0.12-0.39-0.12S13.7,24.92,13.59,25l-0.54,0.39l0.21-0.64c0.09-0.27-0.01-0.57-0.24-0.73l-0.54-0.39h0.67
			c0.28,0,0.54-0.18,0.62-0.45l0.21-0.64l0.21,0.64c0.09,0.27,0.34,0.45,0.62,0.45h0.67L14.93,24.02z M27.91,22.77
			c-0.09-0.27-0.34-0.45-0.62-0.45h-2.21l-0.68-2.1c-0.09-0.27-0.34-0.45-0.62-0.45s-0.54,0.19-0.62,0.45l-0.68,2.1h-2.21
			c-0.29,0-0.54,0.18-0.62,0.45c-0.09,0.27,0.01,0.57,0.24,0.73l1.79,1.3l-0.68,2.1c-0.08,0.26,0,0.55,0.22,0.72
			c0.12,0.09,0.26,0.14,0.41,0.14c0.14,0,0.27-0.04,0.39-0.12l1.79-1.3l1.79,1.3c0.25,0.18,0.59,0.16,0.82-0.04
			c0.19-0.17,0.27-0.44,0.19-0.69l-0.68-2.1l1.79-1.3C27.91,23.34,28,23.04,27.91,22.77z M24.73,24.02
			c-0.23,0.17-0.33,0.46-0.24,0.73l0.21,0.64L24.16,25c-0.23-0.17-0.54-0.17-0.77,0l-0.54,0.39l0.21-0.64
			c0.09-0.27-0.01-0.57-0.24-0.73l-0.54-0.39h0.67c0.28,0,0.54-0.18,0.62-0.45l0.21-0.64l0.21,0.64c0.09,0.27,0.34,0.45,0.62,0.45
			h0.67L24.73,24.02z M7.68,22.32H5.48l-0.68-2.1c-0.09-0.27-0.34-0.45-0.62-0.45c-0.29,0-0.54,0.18-0.62,0.45l-0.68,2.1H0.66
			c-0.29,0-0.54,0.18-0.62,0.45c-0.09,0.27,0.01,0.57,0.24,0.73l1.79,1.3l-0.68,2.1c-0.09,0.27,0.01,0.57,0.24,0.73
			c0.12,0.08,0.25,0.13,0.38,0.13c0.14,0,0.27-0.04,0.39-0.13l1.79-1.3l1.79,1.3c0.25,0.18,0.59,0.16,0.82-0.04
			c0.2-0.17,0.27-0.44,0.19-0.69l-0.68-2.1l1.79-1.3c0.23-0.17,0.33-0.46,0.24-0.73C8.22,22.5,7.97,22.32,7.68,22.32z M5.13,24.02
			c-0.23,0.17-0.33,0.46-0.24,0.73l0.21,0.64L4.56,25c-0.11-0.08-0.25-0.12-0.38-0.12c-0.14,0-0.27,0.04-0.39,0.12l-0.54,0.39
			l0.21-0.64c0.09-0.27-0.01-0.57-0.24-0.73l-0.54-0.39h0.67c0.28,0,0.54-0.18,0.62-0.45l0.21-0.64l0.21,0.64
			c0.09,0.27,0.34,0.45,0.62,0.45h0.67L5.13,24.02z M22.15,19.49c1.15,0,2.08-0.93,2.08-2.08c0-0.4-0.12-0.8-0.34-1.13
			c0.56-0.38,0.9-1.03,0.9-1.71c0-0.4-0.12-0.8-0.33-1.13c0.56-0.38,0.9-1.03,0.9-1.71c0-0.53-0.2-1.04-0.56-1.42
			c0.36-0.38,0.56-0.89,0.56-1.42c0-1.15-0.93-2.08-2.08-2.08h-6.1c0.2-0.52,0.34-1.11,0.44-1.75c0.32-2.25-0.18-3.46-0.65-4.08
			c-0.42-0.55-0.98-0.88-1.63-0.96c-0.3-0.04-0.61,0.06-0.85,0.26c-0.23,0.2-0.37,0.49-0.39,0.8c-0.07,0.75-0.34,2.84-0.72,3.59
			c-0.92,1.85-3.09,3.01-3.92,3.4C9.17,7.85,8.82,7.73,8.46,7.73H5.18c-0.96,0-1.75,0.78-1.75,1.75v8.19c0,0.96,0.78,1.75,1.75,1.75
			h3.27c0.42,0,0.83-0.16,1.15-0.43c0.45,0.25,1.12,0.5,2.02,0.5H22.15z M8.46,18.11H5.18c-0.24,0-0.44-0.2-0.44-0.44V9.48
			c0-0.24,0.2-0.44,0.44-0.44h3.27c0.09,0,0.17,0.03,0.24,0.07v8.87c0,0.02,0,0.03,0,0.05C8.63,18.08,8.54,18.11,8.46,18.11z
			 M10.18,9.17c1.09-0.53,3.33-1.81,4.38-3.92c0.49-0.98,0.76-3.21,0.84-3.89c0.17,0.06,0.37,0.18,0.54,0.41
			c0.32,0.42,0.65,1.3,0.4,3.1c-0.21,1.48-0.7,2.16-0.72,2.18c-0.16,0.2-0.19,0.46-0.08,0.69c0.11,0.23,0.34,0.38,0.59,0.38h7.17
			c0.42,0,0.77,0.34,0.77,0.77s-0.34,0.77-0.77,0.77H21.6c-0.36,0-0.65,0.29-0.65,0.66c0,0.36,0.29,0.65,0.65,0.65h1.69
			c0.42,0,0.77,0.34,0.77,0.77c0,0.42-0.34,0.77-0.77,0.77H21.6c-0.36,0-0.65,0.29-0.65,0.66c0,0.36,0.29,0.66,0.65,0.66h1.12
			c0.42,0,0.77,0.34,0.77,0.77c0,0.42-0.34,0.77-0.77,0.77h-1.43c-0.36,0-0.65,0.29-0.65,0.66c0,0.36,0.29,0.66,0.65,0.66h0.86
			c0.42,0,0.77,0.34,0.77,0.77s-0.34,0.77-0.77,0.77H11.63c-0.65,0-1.12-0.18-1.43-0.36c0-0.05,0.01-0.1,0.01-0.15V9.48
			C10.2,9.38,10.2,9.27,10.18,9.17z"/>
	</g>
</g>
</svg>
