<!-- Generator: Adobe Illustrator 23.0.2, SVG Export Plug-In  -->
<svg version="1.1" xmlns="http://www.w3.org/2000/svg" xmlns:xlink="http://www.w3.org/1999/xlink" x="0px" y="0px" width="10.19px"
	 height="18.57px" viewBox="0 0 10.19 18.57" style="enable-background:new 0 0 10.19 18.57;" xml:space="preserve">
<style type="text/css">
	.st0{fill:#959595;}
</style>
<defs>
</defs>
<path class="st0" d="M9.93,9.9l-8.45,8.42c-0.34,0.34-0.89,0.34-1.23,0C0.09,18.15,0,17.93,0,17.7c0-0.23,0.09-0.45,0.26-0.61
	l7.83-7.8l-7.83-7.8c-0.34-0.34-0.34-0.89,0-1.23C0.42,0.09,0.64,0,0.87,0C1.1,0,1.32,0.09,1.48,0.25l8.45,8.42
	c0.16,0.16,0.26,0.39,0.26,0.61C10.19,9.52,10.1,9.74,9.93,9.9z"/>
</svg>
