<?xml version="1.0" encoding="utf-8"?>
<svg version="1.1" xmlns:xlink="http://www.w3.org/1999/xlink" width="24px" height="25px" xmlns="http://www.w3.org/2000/svg">
  <g transform="matrix(1 0 0 1 -470 -72 )">
    <path d="M 23.8528810788721 23.1565181855333  C 24.049039640376 22.9505516959542  24.049039640376 22.636697997548  23.8528810788721 22.4405394360441  L 16.8794442174091 15.4671025745811  C 18.2035145075603 13.8389865140989  18.997956681651 11.7597057621577  18.997956681651 9.5038823048631  C 18.997956681651 4.25664078463425  14.7413158970168 0  9.5038823048631 0  C 4.26644871270944 0  0 4.25664078463425  0 9.5038823048631  C 0 14.751123825092  4.26644871270944 19.0077646097262  9.5038823048631 19.0077646097262  C 11.7597057621577 19.0077646097262  13.8389865140989 18.2133224356355  15.4671025745811 16.8892521454843  L 22.4405394360441 23.8626890069473  C 22.636697997548 24.0588475684512  22.9505516959542 24.0588475684512  23.1467102574581 23.8626890069473  L 23.8528810788721 23.1565181855333  Z M 17.0069472823866 9.4940743767879  C 16.9971393543114 13.6330200245198  13.6330200245198 16.9971393543114  9.5038823048631 16.9971393543114  C 5.36493665713118 16.9971393543114  2.0008173273396 13.6330200245198  2.0008173273396 9.4940743767879  C 2.0008173273396 5.35512872905599  5.36493665713118 1.9910093992644  9.5038823048631 1.9910093992644  C 13.642827952595 1.9910093992644  17.0069472823866 5.35512872905598  17.0069472823866 9.4940743767879  Z " fill-rule="nonzero" fill="#ffffff" stroke="none" transform="matrix(1 0 0 1 470 72 )" />
  </g>
</svg>