<!-- Generator: Adobe Illustrator 23.0.2, SVG Export Plug-In  -->
<svg version="1.1" xmlns="http://www.w3.org/2000/svg" xmlns:xlink="http://www.w3.org/1999/xlink" x="0px" y="0px" width="53.49px"
	 height="58.92px" viewBox="0 0 53.49 58.92" style="enable-background:new 0 0 53.49 58.92;" xml:space="preserve">
<style type="text/css">
	.st0{fill:#333333;}
</style>
<defs>
</defs>
<g>
	<g>
		<path class="st0" d="M26.78,26.73c-1.08,0-1.96,0.88-1.96,1.96c0,0.78,0.46,1.46,1.13,1.77v2.39c0,0.46,0.38,0.84,0.84,0.84
			c0.46,0,0.84-0.38,0.84-0.84v-2.39c0.66-0.31,1.13-0.99,1.13-1.77C28.74,27.61,27.86,26.73,26.78,26.73z"/>
	</g>
</g>
<g>
	<g>
		<path class="st0" d="M47.7,12.79c-3.61-1.43-6.47-4.06-8.07-7.41c-0.43-0.91-1.37-1.5-2.39-1.5H16.24c-1.02,0-1.95,0.59-2.39,1.5
			c-1.59,3.35-4.46,5.98-8.07,7.41c-1.01,0.4-1.67,1.37-1.67,2.46v5.11c0,6.7,1.95,13.32,5.65,19.14
			c3.73,5.88,9.14,10.79,15.64,14.21l0.11,0.06c0.39,0.2,0.81,0.3,1.23,0.3c0.42,0,0.85-0.1,1.23-0.3l0.11-0.06
			c6.5-3.42,11.91-8.33,15.64-14.21c3.7-5.82,5.65-12.44,5.65-19.14v-5.11C49.37,14.16,48.72,13.19,47.7,12.79z M47.69,20.36
			c0,6.38-1.86,12.69-5.39,18.24c-3.58,5.63-8.76,10.34-15,13.62l-0.11,0.06c-0.28,0.15-0.62,0.15-0.9,0l-0.11-0.06
			c-6.24-3.28-11.43-7.99-15-13.62C7.66,33.05,5.8,26.74,5.8,20.36v-5.11c0-0.4,0.24-0.75,0.61-0.9c4.01-1.59,7.19-4.51,8.96-8.25
			c0.16-0.33,0.5-0.54,0.87-0.54h21.01c0.37,0,0.71,0.21,0.87,0.54c1.78,3.73,4.96,6.66,8.97,8.25c0.37,0.15,0.61,0.5,0.61,0.9
			V20.36z"/>
	</g>
</g>
<g>
	<g>
		<path class="st0" d="M51.91,28.32c-0.45-0.1-0.9,0.18-1,0.63c-2.55,11.3-10.33,21.1-21.34,26.88l-2.56,1.34
			c-0.17,0.09-0.36,0.09-0.53,0l-2.56-1.34C12.9,50.04,5.12,40.22,2.57,28.9c-0.1-0.45-0.55-0.74-1-0.63c-0.45,0.1-0.74,0.55-0.63,1
			c2.65,11.8,10.74,22.02,22.21,28.04l2.56,1.34c0.33,0.17,0.69,0.26,1.04,0.26c0.36,0,0.72-0.09,1.04-0.26l2.56-1.34
			c11.44-6.01,19.53-16.22,22.19-28C52.64,28.87,52.36,28.42,51.91,28.32z"/>
	</g>
</g>
<g>
	<g>
		<path class="st0" d="M51.5,9.59c-4.48-0.47-8-3.62-8.56-7.64C42.78,0.84,41.83,0,40.71,0H12.78c-1.11,0-2.07,0.84-2.22,1.95
			C9.99,5.98,6.47,9.12,1.99,9.59C0.86,9.71,0,10.67,0,11.82v9c0,1.31,0.07,2.63,0.2,3.93c0.04,0.43,0.41,0.75,0.83,0.75
			c0.03,0,0.06,0,0.09,0c0.46-0.05,0.8-0.46,0.75-0.92c-0.13-1.24-0.19-2.51-0.19-3.76v-9c0-0.29,0.21-0.53,0.49-0.56
			c5.24-0.55,9.38-4.29,10.05-9.08c0.04-0.29,0.28-0.51,0.56-0.51h27.94c0.29,0,0.52,0.21,0.56,0.51c0.67,4.79,4.8,8.52,10.05,9.08
			c0.27,0.03,0.49,0.28,0.49,0.56v9c0,1.24-0.06,2.49-0.19,3.72c-0.05,0.46,0.29,0.87,0.75,0.92c0.46,0.05,0.87-0.29,0.92-0.75
			c0.13-1.29,0.2-2.6,0.2-3.89v-9C53.49,10.67,52.63,9.71,51.5,9.59z"/>
	</g>
</g>
<g>
	<g>
		<path class="st0" d="M36.35,20.93h-1.38v-4c0-4.52-3.68-8.19-8.19-8.19c-4.52,0-8.19,3.68-8.19,8.19v4h-1.38
			c-1.47,0-2.67,1.2-2.67,2.67V35.6c0,1.47,1.2,2.67,2.67,2.67h19.14c1.47,0,2.67-1.2,2.67-2.67V23.59
			C39.02,22.12,37.82,20.93,36.35,20.93z M20.26,16.93c0-3.59,2.92-6.52,6.52-6.52s6.52,2.92,6.52,6.52v4H20.26V16.93z M37.34,35.6
			c0,0.55-0.44,0.99-0.99,0.99H17.21c-0.55,0-0.99-0.44-0.99-0.99V23.59c0-0.55,0.44-0.99,0.99-0.99h19.14
			c0.55,0,0.99,0.44,0.99,0.99V35.6z"/>
	</g>
</g>
</svg>
