<?xml version="1.0" encoding="utf-8"?>
<svg version="1.1" xmlns:xlink="http://www.w3.org/1999/xlink" width="26px" height="26px" xmlns="http://www.w3.org/2000/svg">
  <g transform="matrix(1 0 0 1 -515 -73 )">
    <path d="M 25.9330427892235 1.05071315372425  C 26.0463549920761 0.762282091917591  25.9845483359746 0.442947702060222  25.7682250396197 0.22662440570523  C 25.5519017432647 0.0103011093502377  25.2325673534073 -0.0515055467511886  24.9441362916006 0.0618066561014263  L 0.479001584786055 9.84786053882726  C 0.200871632329636 9.95087163232964  0.0154516640253572 10.2187004754358  0.00515055467511948 10.5277337559429  C -0.00515055467511824 10.8264659270998  0.159667194928685 11.1045958795563  0.437797147385104 11.2385103011094  L 10.0796354992076 15.9152139461173  L 14.7563391442155 25.56735340729  C 14.8799524564184 25.8351822503962  15.1477812995246 26  15.4362123613312 26  C 15.4465134706815 26  15.4568145800317 26  15.4671156893819 26  C 15.7658478605388 25.9896988906498  16.033676703645 25.8042789223455  16.1469889064976 25.5261489698891  L 25.9330427892235 1.05071315372425  Z M 10.4916798732171 14.4215530903328  L 2.65253565768621 10.6204437400951  L 22.0701267828843 2.85340729001585  L 10.4916798732171 14.4215530903328  Z M 23.141442155309 3.92472266244057  L 15.3744057052298 23.3526148969889  L 11.5732963549921 15.5031695721078  L 23.141442155309 3.92472266244057  Z " fill-rule="nonzero" fill="#ffffff" stroke="none" transform="matrix(1 0 0 1 515 73 )" />
  </g>
</svg>