<!-- Generator: Adobe Illustrator 23.0.2, SVG Export Plug-In  -->
<svg version="1.1" xmlns="http://www.w3.org/2000/svg" xmlns:xlink="http://www.w3.org/1999/xlink" x="0px" y="0px"
	 width="198.95px" height="221.48px" viewBox="0 0 198.95 221.48" style="enable-background:new 0 0 198.95 221.48;"
	 xml:space="preserve">
<style type="text/css">
	.st0{fill:#333333;}
</style>
<defs>
</defs>
<g>
	<path class="st0" d="M196.8,67.73c2.96-3.81,2.85-8.08-0.31-12.03c-1.12-1.4-1.56-2.42-1.01-4.41c0.95-3.46,0.49-6.7-1.29-9.11
		c-1.82-2.47-4.87-3.89-8.6-4.01c-3.16-0.1-6.37-0.08-9.48-0.06c-1.84,0.01-3.69,0.02-5.53,0.01c-0.97,0.01-2.08,0.09-3.15,0.19
		c-2.28,0.21-4.87,0.44-5.59-0.46c-1.09-1.36-0.26-2.84,1.24-5.11c0.65-0.99,1.32-2.01,1.69-3.04c2.52-7.07,4.39-14.71,1.03-22.64
		c-2.06-4.86-7.45-7.86-12.28-6.83c-4.63,0.98-7.05,4.4-7.2,10.16c-0.35,12.96-9.44,25.31-22.19,30.3
		c-0.04-1.49-0.43-2.59-1.18-3.35c-1.24-1.26-3.29-1.37-5.14-1.3c-6.23,0.2-12.61,0.2-18.96-0.02c-1.97-0.07-3.27,0.29-4.12,1.13
		c-0.83,0.83-1.19,2.09-1.14,3.97c0.07,2.4,0.05,4.84,0.02,7.21c-0.03,3.21-0.06,6.54,0.14,9.8c0.1,1.69-0.1,2.7-0.65,3.28
		c-0.58,0.61-1.6,0.85-3.61,0.84c-21.66-0.17-42.5-0.13-67.5-0.07c-12.33,0.03-21.71,9.06-21.82,21c-0.22,22.98-0.22,48.16,0,77
		c0.07,8.96,5.76,16.7,14.5,19.71c4.09,1.41,8.61,1.82,13.07,1.18c4.83-0.69,7.62,0.92,10.28,5.95c3.77,7.1,7.9,14.16,11.89,20.98
		c1.74,2.97,3.48,5.94,5.19,8.92c1.63,2.84,2.95,4.6,4.5,4.6c0,0,0.01,0,0.01,0c1.52,0,2.86-1.75,4.4-4.37l1.73-2.95
		c5.32-9.05,10.82-18.4,15.87-27.8c2.2-4.08,4.39-5.43,8.67-5.37c14.38,0.25,29,0.21,43.15,0.17c4.95-0.01,9.9-0.03,14.86-0.03
		c15.33-0.01,24.13-8.7,24.17-23.85c0.04-15.92,0.01-31.76-0.03-46.59c-0.01-5.5-0.02-8.25,1.22-9.58c1.24-1.32,3.94-1.43,9.32-1.65
		l0.35-0.01c0.4-0.01,0.79-0.03,1.18-0.07c3.19-0.35,5.86-1.83,7.51-4.16c1.58-2.24,2.08-5.1,1.39-8.05
		c-0.5-2.14-0.14-3.54,1.4-5.35c2.61-3.07,3.12-6.56,1.43-9.84C195.28,70.21,195.66,69.19,196.8,67.73z M117.11,89.65
		c0.01,1.07-0.17,1.75-0.55,2.12c-0.38,0.37-1.06,0.52-2.13,0.49c-4.55-0.14-8.21-0.14-11.53,0.03c-1.12,0.05-1.83-0.11-2.25-0.51
		c-0.44-0.42-0.62-1.19-0.6-2.49c0.09-5.26,0.07-10.61,0.06-15.79c-0.01-2.07-0.01-4.14-0.01-6.2c0-2.01,0.01-4.02,0.02-6.03
		c0.03-4.9,0.06-9.98-0.09-14.97c-0.05-1.62,0.15-2.52,0.64-2.99c0.38-0.37,1.01-0.54,1.94-0.54c0.21,0,0.43,0.01,0.67,0.03
		c3.89,0.28,7.78,0.16,11.54,0.03c0.92-0.03,1.51,0.1,1.83,0.41c0.33,0.32,0.48,0.94,0.47,1.95
		C117.03,60.31,117.02,75.27,117.11,89.65z M174.09,79.17l-0.59,0c-1.34-0.01-2.84-0.02-3.77,0.92c-0.57,0.58-0.83,1.41-0.81,2.54
		c0.07,3.33,2.66,3.34,4.55,3.35c0.25,0,0.5,0,0.74,0.01c2.56,0.09,5.35,0.09,8.53,0.03c1.66-0.04,2.79,0.26,3.46,0.91
		c0.54,0.52,0.8,1.28,0.82,2.33c0.01,1.16-0.27,2.02-0.86,2.62c-0.72,0.72-1.94,1.09-3.63,1.1c-3.87,0.01-7.73,0.01-11.59,0.01
		l-4.41,0v-0.33h-0.5c-1.9,0-3.79-0.02-5.69-0.04c-4.2-0.04-8.54-0.08-12.81,0.08c-5.2,0.2-9.84-1.78-14.33-3.7
		c-2.63-1.13-5.36-2.29-8.19-3.02c-1.03-0.26-1.07-0.87-1.06-2.02l0-0.26c0-3.34,0-6.67,0.01-10.01c0.01-7.7,0.03-15.66-0.08-23.49
		c-0.03-1.96,0.91-2.36,2.33-2.97c0.32-0.14,0.65-0.28,0.97-0.44c14.18-7.12,22.48-16.95,25.37-30.03c0.37-1.67,0.37-3.42,0.37-5.11
		l0-1.24c0.01-1.98,0.1-3.21,1.87-3.61c2.54-0.57,3.96,1.05,4.71,2.52c1.6,3.15,1.98,6.71,1.15,10.88
		c-0.81,4.09-2.25,7.94-4.28,11.46c-0.88,1.52-1.56,3.08-2.02,4.63c-0.98,3.31-1.01,5.16-0.11,6.4c0.9,1.24,2.65,1.78,6.04,1.87
		c5.6,0.14,11.29,0.1,16.8,0.06c2.23-0.02,4.45-0.03,6.67-0.03c0.03,0,0.06,0,0.08,0c1.69,0,3.55,0.1,4.54,1.1
		c0.58,0.58,0.85,1.45,0.83,2.64c-0.05,3.17-2.33,3.42-5.24,3.42l-0.96,0c-2.48,0-5.04-0.01-7.55,0.04
		c-1.35,0.03-2.36,0.38-2.99,1.05c-0.54,0.58-0.8,1.37-0.76,2.37c0.11,2.79,2.34,3.1,3.99,3.08c2.77-0.02,5.53-0.02,8.29-0.01l2.2,0
		c3.38,0,5.6,0.25,5.76,3.51c0.06,1.19-0.16,2.03-0.68,2.57c-0.89,0.93-2.65,0.93-4.34,0.92l-0.42,0l-1.64,0
		c-3.23,0-6.58,0-9.87,0.1c-1.15,0.03-2.58,0.19-3.44,1.11c-0.54,0.58-0.8,1.39-0.76,2.41c0.11,3.26,2.86,3.26,4.39,3.25
		c1.56-0.01,3.11,0,4.67,0c2.11,0,4.22,0.01,6.33-0.01c1.47,0.01,2.51,0.32,3.17,0.98c0.58,0.58,0.87,1.45,0.86,2.59
		c-0.01,1.11-0.29,1.93-0.86,2.49c-0.67,0.66-1.76,0.95-3.27,0.97C181.94,79.14,177.9,79.14,174.09,79.17z M165.91,138.56
		c0.01,6.38,0.01,12.76,0,19.14c-0.03,11.12-5.5,16.54-16.74,16.56l-5.7,0.01c-18.6,0.04-37.84,0.09-56.75-0.09
		c-0.05,0-0.1,0-0.16,0c-3.91,0-6.3,1.42-8.22,4.86c-2.8,5.01-5.7,10.06-8.52,14.96c-2.81,4.88-5.71,9.94-8.51,14.94
		c-0.27,0.49-1.11,1.98-1.64,1.98c0,0,0,0,0,0c-0.25,0-0.73-0.32-1.6-1.86c-2.6-4.59-5.3-9.21-7.92-13.69
		c-3.24-5.54-6.59-11.27-9.77-16.97c-1.65-2.96-3.58-4.21-6.56-4.21c-0.19,0-0.38,0-0.58,0.02c-3.9,0.2-8.13,0.19-12.94-0.03
		c-7.65-0.35-13.28-6.1-13.37-13.67c-0.11-9.14-0.08-18.43-0.06-27.42c0.01-3.85,0.02-7.69,0.02-11.54l-0.02-0.5
		c0-3.61,0-7.22-0.01-10.83c-0.01-8.73-0.02-17.76,0.03-26.64c0.05-8.6,5.43-14.46,13.39-14.58c15.33-0.23,30.92-0.24,46-0.25
		c8.31,0,16.62-0.01,24.93-0.05c0.93,0,1.57,0.17,1.93,0.52c0.39,0.39,0.54,1.08,0.53,2.36c-0.03,3.05-0.02,6.16-0.01,9.16
		c0.02,4.2,0.04,8.55-0.08,12.82c-0.05,2.04,0.34,3.41,1.24,4.31c0.89,0.89,2.21,1.29,4.22,1.25c6.77-0.14,13.64-0.08,19.47-0.01
		c0.06,0,0.12,0,0.17,0c1.92,0,3.22-0.4,4.08-1.26c0.78-0.78,1.15-1.9,1.13-3.42c-0.01-0.94,0.2-1.58,0.61-1.8
		c0.42-0.23,1.12-0.08,1.86,0.41c10.46,6.79,22.26,6.58,33.67,6.37l1.86-0.03c1.71-0.03,2.72,0.21,3.3,0.78
		c0.58,0.58,0.81,1.62,0.79,3.58C165.89,115.34,165.9,127.15,165.91,138.56z"/>
	<path class="st0" d="M43.2,106.86c-0.04,0-0.09,0-0.13,0c-8.14,0-14.87,6.41-15.03,14.35c-0.08,3.93,1.43,7.67,4.24,10.53
		c2.86,2.91,6.67,4.5,10.72,4.5c0.02,0,0.04,0,0.06,0c8.18-0.03,14.86-6.6,14.9-14.65C58,113.41,51.51,106.94,43.2,106.86z
		 M51.24,121.33c0.09,4.7-3.45,8.45-8.07,8.55c-2.23,0.03-4.3-0.74-5.84-2.23c-1.57-1.52-2.45-3.64-2.48-5.96
		c-0.06-4.9,3.22-8.39,7.97-8.49c0.06,0,0.13,0,0.19,0c2.22,0,4.26,0.79,5.76,2.24C50.32,116.93,51.2,119.03,51.24,121.33z"/>
	<path class="st0" d="M129.99,106.87c-4.21-0.08-8.02,1.38-10.81,4.12c-2.76,2.71-4.29,6.47-4.29,10.58
		c0,8.29,6.29,14.6,14.62,14.67c0.05,0,0.09,0,0.14,0c8.17,0,14.65-6.32,14.78-14.45C144.57,113.44,138.36,107.03,129.99,106.87z
		 M129.68,129.92c-0.01,0-0.01,0-0.02,0c-4.48,0-8.41-3.91-8.42-8.38c-0.01-2.27,0.84-4.37,2.39-5.92c1.56-1.56,3.68-2.42,5.98-2.42
		c0,0,0.01,0,0.01,0c4.74,0.01,8.33,3.58,8.34,8.31C137.97,126.21,134.33,129.9,129.68,129.92z"/>
	<path class="st0" d="M86.62,106.85c-4.15-0.07-8.03,1.51-10.94,4.4c-2.81,2.79-4.33,6.49-4.29,10.39
		c0.08,8.06,6.74,14.59,14.85,14.59c0.02,0,0.03,0,0.05,0c8.37-0.03,14.74-6.29,14.82-14.56
		C101.18,113.35,94.95,106.97,86.62,106.85z M94.84,121.78c-0.14,4.38-4.11,8.16-8.54,8.16c-0.04,0-0.07,0-0.11,0
		c-2.31-0.03-4.43-0.96-5.98-2.62c-1.57-1.68-2.36-3.92-2.22-6.28c0.27-4.74,3.96-8.05,8.72-7.85
		C91.26,113.37,94.99,117.3,94.84,121.78z"/>
</g>
</svg>
