<!-- Generator: Adobe Illustrator 23.0.2, SVG Export Plug-In  -->
<svg version="1.1" xmlns="http://www.w3.org/2000/svg" xmlns:xlink="http://www.w3.org/1999/xlink" x="0px" y="0px" width="34.94px"
	 height="37.27px" viewBox="0 0 34.94 37.27" style="enable-background:new 0 0 34.94 37.27;" xml:space="preserve">
<style type="text/css">
	.st0{fill:#333;}
</style>
<defs>
</defs>
<path class="st0" d="M28.39,24.17c-2.16,0-4.07,1.05-5.27,2.66l-10.28-5.26c0.17-0.59,0.27-1.21,0.27-1.85
	c0-0.87-0.17-1.7-0.48-2.46l10.78-6.48c1.2,1.41,2.99,2.31,4.99,2.31c3.61,0,6.55-2.94,6.55-6.55C34.94,2.94,32,0,28.39,0
	c-3.61,0-6.55,2.94-6.55,6.55c0,0.84,0.16,1.63,0.44,2.37l-10.8,6.49c-1.2-1.37-2.96-2.24-4.93-2.24C2.94,13.18,0,16.11,0,19.73
	c0,3.61,2.94,6.55,6.55,6.55c2.19,0,4.14-1.08,5.33-2.74l10.25,5.24c-0.19,0.61-0.29,1.27-0.29,1.94c0,3.61,2.94,6.55,6.55,6.55
	c3.61,0,6.55-2.94,6.55-6.55C34.94,27.11,32,24.17,28.39,24.17z M28.39,2.18c2.41,0,4.37,1.96,4.37,4.37c0,2.41-1.96,4.37-4.37,4.37
	c-2.41,0-4.37-1.96-4.37-4.37C24.02,4.14,25.98,2.18,28.39,2.18z M6.55,24.09c-2.41,0-4.37-1.96-4.37-4.37
	c0-2.41,1.96-4.37,4.37-4.37c2.41,0,4.37,1.96,4.37,4.37C10.92,22.14,8.96,24.09,6.55,24.09z M28.39,35.09
	c-2.41,0-4.37-1.96-4.37-4.37c0-2.41,1.96-4.37,4.37-4.37c2.41,0,4.37,1.96,4.37,4.37C32.76,33.13,30.8,35.09,28.39,35.09z"/>
</svg>
