<!-- Generator: Adobe Illustrator 23.0.2, SVG Export Plug-In  -->
<svg version="1.1" xmlns="http://www.w3.org/2000/svg" xmlns:xlink="http://www.w3.org/1999/xlink" x="0px" y="0px" width="66.65px"
	 height="66.72px" viewBox="0 0 66.65 66.72" style="enable-background:new 0 0 66.65 66.72;" xml:space="preserve">
<style type="text/css">
	.st0{fill:#333333;}
</style>
<defs>
</defs>
<g>
	<g>
		<path class="st0" d="M64.18,20.16c-1.64-3.98-4.03-7.54-7.08-10.6c-3.05-3.06-6.62-5.44-10.59-7.09C42.4,0.76,38.03-0.07,33.53,0
			c-8.59,0.14-16.65,3.61-22.7,9.77c-6.05,6.17-9.37,14.3-9.36,22.9c0.01,4.99,1.17,9.96,3.37,14.41L0.26,60.42
			c-0.59,1.73-0.16,3.61,1.13,4.9c0.91,0.91,2.11,1.4,3.34,1.4c0.52,0,1.04-0.09,1.56-0.26l13.32-4.58c4.45,2.2,9.41,3.37,14.4,3.38
			h0.05c8.57,0,16.68-3.33,22.82-9.37c6.16-6.06,9.63-14.13,9.76-22.73C66.72,28.65,65.89,24.28,64.18,20.16z M34.01,61.3
			c-4.64-0.01-9.25-1.15-13.33-3.31c-0.29-0.15-0.6-0.23-0.92-0.23c-0.22,0-0.43,0.04-0.64,0.11L5.01,62.72
			c-0.41,0.14-0.69-0.06-0.82-0.19C4.06,62.39,3.86,62.11,4,61.7l4.85-14.12c0.18-0.52,0.13-1.08-0.12-1.57
			c-2.16-4.08-3.3-8.7-3.31-13.34C5.39,17.09,18.03,4.21,33.59,3.96c7.83-0.12,15.19,2.86,20.72,8.39
			c5.53,5.54,8.51,12.9,8.38,20.74C62.45,48.67,49.57,61.32,34.01,61.3z M34.38,47.27c-1.03,0-2.02,0.91-1.98,1.98
			c0.05,1.07,0.87,1.98,1.98,1.98c1.03,0,2.02-0.91,1.98-1.98C36.31,48.18,35.49,47.27,34.38,47.27z M34.38,16.64
			c-5.42,0-9.83,4.41-9.83,9.84c0,1.09,0.88,1.98,1.98,1.98c1.09,0,1.98-0.89,1.98-1.98c0-3.24,2.64-5.88,5.88-5.88
			c3.24,0,5.88,2.64,5.88,5.88c0,3.24-2.64,5.88-5.88,5.88c-1.09,0-1.98,0.89-1.98,1.98v8.07c0,1.09,0.88,1.98,1.98,1.98
			c1.09,0,1.98-0.89,1.98-1.98v-6.29c4.48-0.92,7.85-4.89,7.85-9.64C44.21,21.05,39.8,16.64,34.38,16.64z"/>
	</g>
</g>
</svg>
