<!-- Generator: Adobe Illustrator 23.0.2, SVG Export Plug-In  -->
<svg version="1.1" xmlns="http://www.w3.org/2000/svg" xmlns:xlink="http://www.w3.org/1999/xlink" x="0px" y="0px" width="27.58px"
	 height="21.71px" viewBox="0 0 27.58 21.71" style="enable-background:new 0 0 27.58 21.71;" xml:space="preserve">
<style type="text/css">
	.st0{fill:#333333;}
</style>
<defs>
</defs>
<g>
	<g>
		<g>
			<path class="st0" d="M26.66,3.38c-0.55-0.58-1.31-0.92-2.18-0.92h-4.35V2.41c0-0.66-0.26-1.28-0.71-1.7
				C18.98,0.26,18.38,0,17.72,0H9.86C9.18,0,8.57,0.26,8.13,0.71c-0.45,0.45-0.71,1.05-0.71,1.7v0.05H3.09
				c-0.87,0-1.63,0.34-2.18,0.92C0.37,3.93,0,4.72,0,5.56v13.06c0,0.87,0.34,1.63,0.92,2.18c0.55,0.55,1.34,0.92,2.18,0.92h21.39
				c0.87,0,1.63-0.34,2.18-0.92c0.55-0.55,0.92-1.34,0.92-2.18V5.56C27.58,4.69,27.24,3.93,26.66,3.38z M26.22,18.61h-0.03
				c0,0.47-0.18,0.89-0.5,1.21c-0.31,0.31-0.73,0.5-1.21,0.5H3.09c-0.47,0-0.89-0.18-1.21-0.5c-0.31-0.31-0.5-0.73-0.5-1.21V5.56
				c0-0.47,0.18-0.89,0.5-1.21s0.73-0.5,1.21-0.5h5.06c0.39,0,0.71-0.31,0.71-0.71V2.39c0-0.29,0.1-0.55,0.29-0.73
				S9.6,1.36,9.88,1.36h7.84c0.29,0,0.55,0.1,0.73,0.29c0.18,0.18,0.29,0.45,0.29,0.73v0.76c0,0.39,0.31,0.71,0.71,0.71h5.06
				c0.47,0,0.89,0.18,1.21,0.5s0.5,0.73,0.5,1.21V18.61z"/>
			<path class="st0" d="M13.79,5.64c-1.78,0-3.41,0.73-4.56,1.89C8.05,8.7,7.34,10.3,7.34,12.09s0.73,3.41,1.89,4.56
				c1.18,1.18,2.78,1.89,4.56,1.89s3.41-0.73,4.56-1.89c1.18-1.18,1.89-2.78,1.89-4.56s-0.73-3.41-1.89-4.56
				C17.2,6.37,15.57,5.64,13.79,5.64z M17.36,15.68c-0.92,0.89-2.18,1.47-3.57,1.47s-2.65-0.58-3.57-1.47
				c-0.92-0.92-1.47-2.18-1.47-3.57s0.58-2.65,1.47-3.57c0.92-0.92,2.18-1.47,3.57-1.47s2.65,0.58,3.57,1.47
				c0.92,0.92,1.47,2.18,1.47,3.57C18.85,13.5,18.27,14.76,17.36,15.68z"/>
			<circle class="st0" cx="23.12" cy="6.9" r="1.28"/>
		</g>
	</g>
</g>
</svg>
