<!-- Generator: Adobe Illustrator 23.0.2, SVG Export Plug-In  -->
<svg version="1.1" xmlns="http://www.w3.org/2000/svg" xmlns:xlink="http://www.w3.org/1999/xlink" x="0px" y="0px" width="22.48px"
	 height="26.41px" viewBox="0 0 22.48 26.41" style="enable-background:new 0 0 22.48 26.41;" xml:space="preserve">
<style type="text/css">
	.st0{fill:#333333;}
</style>
<defs>
</defs>
<g>
	<g>
		<path class="st0" d="M19.06,0H3.42C1.53,0,0,1.53,0,3.42v19.57c0,1.89,1.53,3.42,3.42,3.42h15.65c1.88,0,3.42-1.53,3.42-3.42V3.42
			C22.48,1.53,20.95,0,19.06,0z M20.86,22.99c0,0.99-0.81,1.8-1.8,1.8H3.42c-0.99,0-1.8-0.81-1.8-1.8V3.42c0-0.99,0.81-1.8,1.8-1.8
			h15.65c0.99,0,1.8,0.81,1.8,1.8V22.99z M16.46,15.66H6.03c-0.45,0-0.81,0.36-0.81,0.81c0,0.45,0.36,0.81,0.81,0.81h10.43
			c0.45,0,0.81-0.36,0.81-0.81C17.27,16.02,16.9,15.66,16.46,15.66z M16.46,20.87H6.03c-0.45,0-0.81,0.36-0.81,0.81
			c0,0.45,0.36,0.81,0.81,0.81h10.43c0.45,0,0.81-0.36,0.81-0.81C17.27,21.24,16.9,20.87,16.46,20.87z M16.46,10.44H6.03
			c-0.45,0-0.81,0.36-0.81,0.81c0,0.45,0.36,0.81,0.81,0.81h10.43c0.45,0,0.81-0.36,0.81-0.81C17.27,10.8,16.9,10.44,16.46,10.44z
			 M16.46,5.22H6.03c-0.45,0-0.81,0.36-0.81,0.81c0,0.45,0.36,0.81,0.81,0.81h10.43c0.45,0,0.81-0.36,0.81-0.81
			C17.27,5.58,16.9,5.22,16.46,5.22z"/>
	</g>
</g>
</svg>
