<!-- Generator: Adobe Illustrator 23.0.2, SVG Export Plug-In  -->
<svg version="1.1" xmlns="http://www.w3.org/2000/svg" xmlns:xlink="http://www.w3.org/1999/xlink" x="0px" y="0px" width="44.82px"
	 height="41.65px" viewBox="0 0 44.82 41.65" style="enable-background:new 0 0 44.82 41.65;" xml:space="preserve">
<style type="text/css">
	.st0{fill:#333333;}
</style>
<defs>
</defs>
<path class="st0" d="M20.16,27.69c0.34-0.34,0.34-0.9,0-1.24c-0.34-0.34-0.9-0.34-1.24,0c-0.34,0.34-0.34,0.9,0,1.24
	C19.27,28.03,19.82,28.03,20.16,27.69z"/>
<path class="st0" d="M20.48,7.09v1.75c0,2.9,2.35,5.25,5.25,5.25c2.9,0,5.25-2.36,5.25-5.25V7.09c0.48,0,0.88-0.39,0.88-0.88
	s-0.39-0.88-0.88-0.88h-1.75c-0.48,0-0.88,0.39-0.88,0.88s0.39,0.88,0.88,0.88v1.75c0,1.93-1.57,3.5-3.5,3.5
	c-1.93,0-3.5-1.57-3.5-3.5V7.09c0.48,0,0.88-0.39,0.88-0.88s-0.39-0.88-0.88-0.88h-1.75c-0.48,0-0.88,0.39-0.88,0.88
	S20,7.09,20.48,7.09z"/>
<path class="st0" d="M10.17,41.4c0.17,0.17,0.39,0.26,0.62,0.26s0.45-0.09,0.62-0.26l2.69-2.69c0.88-0.87,1.3-2.07,1.18-3.28
	l0.96-0.93c0.76-0.74,1.77-1.14,2.83-1.14h11.53c2.06,0,4.02-0.79,5.49-2.23c0.02-0.02,0.04-0.04,0.06-0.07l7.84-9.42
	c1.25-1.47,1.06-3.69-0.42-4.94c-1.47-1.24-3.66-1.06-4.91,0.39l-0.85,0.88V0.88c0-0.48-0.39-0.88-0.88-0.88h-22.5
	c-0.48,0-0.88,0.39-0.88,0.88v19.61c-3.39,0.71-6.08,2.82-7.53,5.89c-1.14-0.06-2.26,0.36-3.08,1.19l-2.7,2.69
	C0.09,30.42,0,30.64,0,30.88c0,0.23,0.09,0.46,0.26,0.62L10.17,41.4z M36.07,1.75v18.03l-2.53,2.62c-0.65-0.8-1.65-1.3-2.72-1.3
	H20.66c-0.06,0-0.12-0.01-0.18-0.04c-1.36-0.56-2.81-0.84-4.29-0.84c-0.29,0-0.59,0.01-0.88,0.03V1.75H36.07z M14.57,22.09
	c1.77-0.26,3.54-0.11,5.26,0.59c0.27,0.11,0.55,0.17,0.84,0.17h10.15c0.95,0,1.75,0.77,1.75,1.75c0,0.97-0.79,1.75-1.75,1.75H23.2
	c-0.48,0-0.88,0.39-0.88,0.88s0.39,0.88,0.88,0.88h7.62c1.93,0,3.5-1.57,3.5-3.5c0-0.15-0.01-0.31-0.03-0.46
	c0.18-0.19,5.47-5.66,5.66-5.85c0.01-0.01,0.03-0.03,0.04-0.04c0.62-0.74,1.73-0.83,2.47-0.21c0.74,0.62,0.83,1.73,0.2,2.47
	l-7.82,9.39c-1.15,1.1-2.65,1.71-4.24,1.71H19.07c-1.52,0-2.95,0.58-4.05,1.63l-0.39,0.37c-0.15-0.24-0.33-0.46-0.54-0.66
	l-5.38-5.38c-0.29-0.29-0.61-0.53-0.97-0.71C9.09,24.22,11.48,22.54,14.57,22.09z M4.2,28.81c0.92-0.92,2.39-0.9,3.29,0l5.38,5.38
	c0.9,0.9,0.92,2.37,0,3.29l-2.07,2.07l-8.68-8.66L4.2,28.81z"/>
</svg>
