<!-- Generator: Adobe Illustrator 23.0.3, SVG Export Plug-In  -->
<svg version="1.1" xmlns="http://www.w3.org/2000/svg" xmlns:xlink="http://www.w3.org/1999/xlink" x="0px" y="0px" width="131px"
	 height="131px" viewBox="0 0 131 131" style="enable-background:new 0 0 131 131;" xml:space="preserve">
<style type="text/css">
	.st0{fill:#1DA1F2;}
	.st1{fill:#FFFFFF;}
</style>
<defs>
</defs>
<path class="st0" d="M113.3,131H17.7C7.9,131,0,123.1,0,113.3V17.7C0,7.9,7.9,0,17.7,0h95.6c9.8,0,17.7,7.9,17.7,17.7v95.6
	C131,123.1,123.1,131,113.3,131z"/>
<g>
	<g>
		<path class="st1" d="M100,48.2c-2.4,1-4.9,1.7-7.5,2.1c2.7-1.6,4.8-4.2,5.8-7.2c-2.5,1.5-5.3,2.6-8.3,3.2
			c-2.4-2.6-5.8-4.1-9.6-4.1c-7.2,0-13.1,5.9-13.1,13.1c0,1,0.1,2,0.3,3c-10.9-0.5-20.5-5.7-27-13.7c-1.1,2-1.8,4.2-1.8,6.6
			c0,4.5,2.3,8.6,5.8,10.9c-2.1,0-4.2-0.7-5.9-1.6c0,0,0,0.1,0,0.1c0,6.4,4.5,11.6,10.5,12.9c-1.1,0.3-2.2,0.4-3.4,0.4
			c-0.8,0-1.7,0-2.5-0.2c1.7,5.2,6.5,9,12.2,9.1c-4.5,3.5-10.1,5.6-16.2,5.6c-1.1,0-2.1,0-3.1-0.2c5.8,3.7,12.7,5.9,20.1,5.9
			c24.1,0,37.3-20,37.3-37.2c0-0.6,0-1.1,0-1.7C96,53.2,98.2,50.9,100,48.2z"/>
	</g>
</g>
</svg>
