<!-- Generator: Adobe Illustrator 23.0.2, SVG Export Plug-In  -->
<svg version="1.1" xmlns="http://www.w3.org/2000/svg" xmlns:xlink="http://www.w3.org/1999/xlink" x="0px" y="0px" width="22.82px"
	 height="18.54px" viewBox="0 0 22.82 18.54" style="enable-background:new 0 0 22.82 18.54;" xml:space="preserve">
<style type="text/css">
	.st0{fill:#FFFFFF;}
</style>
<defs>
</defs>
<path class="st0" d="M22.82,2.19c-0.85,0.37-1.75,0.62-2.7,0.74c0.97-0.58,1.71-1.49,2.06-2.59c-0.9,0.54-1.9,0.92-2.97,1.13
	C18.36,0.57,17.13,0,15.8,0c-2.59,0-4.68,2.1-4.68,4.68c0,0.37,0.03,0.73,0.11,1.07C7.34,5.56,3.9,3.69,1.59,0.85
	c-0.4,0.7-0.64,1.5-0.64,2.36c0,1.62,0.83,3.06,2.08,3.89C2.28,7.09,1.54,6.87,0.91,6.53c0,0.01,0,0.03,0,0.05
	c0,2.27,1.62,4.16,3.75,4.6c-0.38,0.1-0.8,0.15-1.23,0.15c-0.3,0-0.6-0.02-0.89-0.08c0.61,1.85,2.33,3.21,4.37,3.26
	c-1.59,1.25-3.61,2-5.8,2c-0.38,0-0.75-0.02-1.12-0.06c2.07,1.34,4.53,2.1,7.18,2.1c8.61,0,13.32-7.13,13.32-13.31
	c0-0.21-0.01-0.41-0.02-0.6C21.4,3.96,22.18,3.14,22.82,2.19z"/>
</svg>
