<!-- Generator: Adobe Illustrator 23.0.2, SVG Export Plug-In  -->
<svg version="1.1" xmlns="http://www.w3.org/2000/svg" xmlns:xlink="http://www.w3.org/1999/xlink" x="0px" y="0px" width="23.35px"
	 height="32.35px" viewBox="0 0 23.35 32.35" style="enable-background:new 0 0 23.35 32.35;" xml:space="preserve">
<style type="text/css">
	.st0{fill:#333333;}
</style>
<defs>
</defs>
<g>
	<path class="st0" d="M20.43,12.89H5.81c0.02-0.08,0.03-0.16,0.03-0.24V7.78c0-3.22,2.62-5.84,5.84-5.84s5.84,2.62,5.84,5.84v0.06
		c0,0.54,0.44,0.97,0.97,0.97c0.54,0,0.97-0.44,0.97-0.97V7.78c0-4.29-3.49-7.78-7.78-7.78S3.89,3.49,3.89,7.78v4.87
		c0,0.08,0.01,0.17,0.03,0.24h-1C1.31,12.89,0,14.2,0,15.81v13.62c0,1.61,1.31,2.92,2.92,2.92h17.51c1.61,0,2.92-1.31,2.92-2.92
		V15.81C23.35,14.2,22.04,12.89,20.43,12.89z M21.41,29.43c0,0.54-0.44,0.97-0.97,0.97H2.92c-0.54,0-0.97-0.44-0.97-0.97V15.81
		c0-0.54,0.44-0.97,0.97-0.97h17.51c0.54,0,0.97,0.44,0.97,0.97V29.43z"/>
	<path class="st0" d="M11.68,18.08c-1.43,0-2.59,1.16-2.59,2.59c0,1.09,0.67,2.02,1.62,2.4v3.11c0,0.54,0.44,0.97,0.97,0.97
		s0.97-0.44,0.97-0.97v-3.11c0.95-0.39,1.62-1.32,1.62-2.4C14.27,19.25,13.11,18.08,11.68,18.08z M11.68,20.03
		c0.36,0,0.65,0.29,0.65,0.65s-0.29,0.65-0.65,0.65c-0.36,0-0.65-0.29-0.65-0.65S11.32,20.03,11.68,20.03z"/>
</g>
</svg>
