<!-- Generator: Adobe Illustrator 23.0.2, SVG Export Plug-In  -->
<svg version="1.1" xmlns="http://www.w3.org/2000/svg" xmlns:xlink="http://www.w3.org/1999/xlink" x="0px" y="0px" width="27.31px"
	 height="34.14px" viewBox="0 0 27.31 34.14" style="enable-background:new 0 0 27.31 34.14;" xml:space="preserve">
<style type="text/css">
	.st0{fill:#9B9B9B;}
</style>
<defs>
</defs>
<g>
	<path class="st0" d="M27.15,6.99l-6.83-6.83C20.21,0.06,20.07,0,19.92,0H3.98C1.78,0,0,1.78,0,3.98v26.17
		c0,2.2,1.78,3.98,3.98,3.98h19.35c2.2,0,3.98-1.78,3.98-3.98V7.4C27.31,7.25,27.25,7.1,27.15,6.99z M20.48,1.94l4.89,4.89h-2.04
		c-1.57,0-2.84-1.27-2.85-2.85V1.94z M26.17,23.9h-0.11v1.14h0.11v5.12c0,1.57-1.27,2.84-2.85,2.85H3.98
		c-1.57,0-2.84-1.27-2.85-2.85v-5.12h0.03V23.9H1.14V3.98c0-1.57,1.27-2.84,2.85-2.85h15.36v2.85c0,2.2,1.78,3.98,3.98,3.98h2.85
		V23.9z"/>
</g>
<g>
	<path class="st0" d="M14.29,11.08v5.64h5.42v1.44h-5.42v5.69h-1.54v-5.69H7.32v-1.44h5.42v-5.64H14.29z"/>
</g>
</svg>
