<!-- Generator: Adobe Illustrator 23.0.2, SVG Export Plug-In  -->
<svg version="1.1" xmlns="http://www.w3.org/2000/svg" xmlns:xlink="http://www.w3.org/1999/xlink" x="0px" y="0px" width="21.9px"
	 height="20.29px" viewBox="0 0 21.9 20.29" style="enable-background:new 0 0 21.9 20.29;" xml:space="preserve">
<style type="text/css">
	.st0{fill:#333333;}
</style>
<defs>
</defs>
<g>
	<g>
		<path class="st0" d="M21.27,9.89c-0.35,0-0.63,0.28-0.63,0.63v5.71c0,1.55-1.26,2.81-2.81,2.81H4.07c-1.55,0-2.81-1.26-2.81-2.81
			v-5.8c0-0.35-0.28-0.63-0.63-0.63S0,10.08,0,10.43v5.8c0,2.24,1.83,4.07,4.07,4.07h13.76c2.24,0,4.07-1.83,4.07-4.07v-5.71
			C21.9,10.18,21.62,9.89,21.27,9.89z"/>
		<path class="st0" d="M7.4,5.06l2.92-2.92v12.73c0,0.35,0.28,0.63,0.63,0.63s0.63-0.28,0.63-0.63V2.14l2.92,2.92
			c0.12,0.12,0.28,0.19,0.44,0.19c0.16,0,0.32-0.06,0.44-0.19c0.25-0.25,0.25-0.64,0-0.89l-3.99-3.99C11.27,0.07,11.11,0,10.95,0
			c-0.17,0-0.33,0.07-0.44,0.19L6.52,4.17c-0.25,0.25-0.25,0.64,0,0.89C6.76,5.3,7.16,5.3,7.4,5.06z"/>
	</g>
</g>
</svg>
