<!-- Generator: Adobe Illustrator 23.0.2, SVG Export Plug-In  -->
<svg version="1.1" xmlns="http://www.w3.org/2000/svg" xmlns:xlink="http://www.w3.org/1999/xlink" x="0px" y="0px"
	 width="146.35px" height="166.52px" viewBox="0 0 146.35 166.52" style="enable-background:new 0 0 146.35 166.52;"
	 xml:space="preserve">
<style type="text/css">
	.st0{fill:#FFFFFF;}
</style>
<defs>
</defs>
<g>
	<g>
		<path class="st0" d="M73.18,0C48.97,0,29.27,19.7,29.27,43.91s19.7,43.91,43.91,43.91s43.91-19.7,43.91-43.91S97.39,0,73.18,0z"/>
	</g>
</g>
<g>
	<g>
		<path class="st0" d="M127.8,116.49c-12.02-12.21-27.96-18.93-44.87-18.93H63.42c-16.91,0-32.85,6.72-44.87,18.93
			C6.59,128.64,0,144.67,0,161.64c0,2.69,2.18,4.88,4.88,4.88h136.6c2.69,0,4.88-2.18,4.88-4.88
			C146.35,144.67,139.76,128.64,127.8,116.49z"/>
	</g>
</g>
</svg>
