<?xml version="1.0" encoding="utf-8"?>
<svg version="1.1" xmlns:xlink="http://www.w3.org/1999/xlink" width="11px" height="19px" xmlns="http://www.w3.org/2000/svg">
  <g transform="matrix(1 0 0 1 -2028 -33 )">
    <path d="M 10.6775732788003 10.2471131561009  C 11.104976141786 9.83305044308112  11.104976141786 9.15974846625767  10.6738241308793 8.74208520790729  L 1.88582140422631 0.302406952965236  C 1.6758691206544 0.107977505112475  1.40593047034765 0.0035616905248813  1.11724608043626 0.0035616905248813  C 1.10974778459441 0.0035616905248813  1.10224948875256 0.0035616905248813  1.09850034083163 0.0035616905248813  C 0.802317655078391 0.00716223585548798  0.524880708929789 0.122379686434902  0.3186775732788 0.327610770279482  C -0.0974778459441037 0.741673483299251  -0.0974778459441037 1.38977164280845  0.322426721199727 1.81103544648943  L 8.32310838445808 9.4981997273347  L 0.326175869120654 17.1817634628494  C 0.116223585548739 17.3833940013633  0 17.6498343558282  0 17.9306768916155  C 0 18.2151199727335  0.116223585548739 18.4815603271984  0.326175869120654 18.6831908657123  C 0.53612815269257 18.8848214042263  0.813565098841172 18.9928377641445  1.10974778459441 18.9928377641445  C 1.40593047034765 18.9928377641445  1.68336741649625 18.8812208588957  1.89331970006817 18.6831908657123  L 10.6775732788003 10.2471131561009  Z " fill-rule="nonzero" fill="#ffffff" stroke="none" transform="matrix(1 0 0 1 2028 33 )" />
  </g>
</svg>