<!-- Generator: Adobe Illustrator 23.0.2, SVG Export Plug-In  -->
<svg version="1.1" xmlns="http://www.w3.org/2000/svg" xmlns:xlink="http://www.w3.org/1999/xlink" x="0px" y="0px" width="44.86px"
	 height="26.18px" viewBox="0 0 44.86 26.18" style="enable-background:new 0 0 44.86 26.18;" xml:space="preserve">
<style type="text/css">
	.st0{fill:#FFFFFF;}
</style>
<defs>
</defs>
<g>
	<g>
		<path class="st0" d="M44.69,12.56C44.34,12.05,35.85,0,22.43,0C10.91,0,0.65,11.98,0.22,12.49c-0.29,0.35-0.29,0.86,0,1.21
			c0.43,0.51,10.69,12.49,22.21,12.49c11.52,0,21.78-11.98,22.21-12.49C44.91,13.37,44.93,12.91,44.69,12.56z M22.43,24.31
			c-9.23,0-18.01-8.81-20.24-11.22C4.42,10.68,13.18,1.87,22.43,1.87c10.8,0,18.43,8.79,20.29,11.17
			C40.57,15.38,31.74,24.31,22.43,24.31z M22.43,5.61c-4.12,0-7.48,3.35-7.48,7.48c0,4.13,3.35,7.48,7.48,7.48
			c4.12,0,7.48-3.35,7.48-7.48C29.91,8.96,26.55,5.61,22.43,5.61z M22.43,18.7c-3.09,0-5.61-2.52-5.61-5.61s2.52-5.61,5.61-5.61
			c3.09,0,5.61,2.52,5.61,5.61S25.52,18.7,22.43,18.7z"/>
	</g>
</g>
</svg>
