<!-- Generator: Adobe Illustrator 23.0.2, SVG Export Plug-In  -->
<svg version="1.1" xmlns="http://www.w3.org/2000/svg" xmlns:xlink="http://www.w3.org/1999/xlink" x="0px" y="0px"
	 width="130.01px" height="179.62px" viewBox="0 0 130.01 179.62" style="enable-background:new 0 0 130.01 179.62;"
	 xml:space="preserve">
<style type="text/css">
	.st0{fill:#F1D000;}
</style>
<defs>
</defs>
<g>
	<path class="st0" d="M20.61,40.5c-1.45,0-2.63,1.18-2.63,2.63s1.18,2.63,2.63,2.63h15.35c1.45,0,2.63-1.18,2.63-2.63
		s-1.18-2.63-2.63-2.63H20.61z"/>
	<path class="st0" d="M49.12,32.61c0-1.45-1.18-2.63-2.63-2.63H20.61c-1.45,0-2.63,1.18-2.63,2.63c0,1.45,1.18,2.63,2.63,2.63h25.87
		C47.94,35.24,49.12,34.06,49.12,32.61z"/>
	<path class="st0" d="M46.49,19.46H20.61c-1.45,0-2.63,1.18-2.63,2.63c0,1.45,1.18,2.63,2.63,2.63h25.87c1.45,0,2.63-1.18,2.63-2.63
		C49.12,20.64,47.94,19.46,46.49,19.46z"/>
	<path class="st0" d="M6.64,179.62h97.5c1.45,0,2.63-1.18,2.63-2.63c0-1.45-1.18-2.63-2.63-2.63H6.64c-0.76,0-1.38-0.62-1.38-1.38
		V35.09c0-1.45-1.18-2.63-2.63-2.63S0,33.63,0,35.09l0,137.89C0,176.64,2.98,179.62,6.64,179.62z"/>
	<path class="st0" d="M2.63,27.2c1.45,0,2.63-1.18,2.63-2.63V6.64c0-0.76,0.62-1.38,1.38-1.38h98.92v16.46
		c0,3.06,2.49,5.56,5.56,5.56h13.63v145.7c0,0.76-0.62,1.38-1.38,1.38h-8.71c-1.45,0-2.63,1.18-2.63,2.63
		c0,1.45,1.18,2.63,2.63,2.63h8.71c3.66,0,6.64-2.98,6.64-6.64V24.64c0-0.64-0.23-1.25-0.65-1.73L110.18,0.9
		c-0.5-0.57-1.22-0.9-1.98-0.9L6.64,0C2.98,0,0,2.98,0,6.64l0,17.93C0,26.02,1.18,27.2,2.63,27.2L2.63,27.2z M110.83,21.72V9.66
		l10.77,12.36h-10.48C110.96,22.01,110.83,21.88,110.83,21.72z"/>
	<path class="st0" d="M52.86,136.42c-1.45,0-2.63,1.18-2.63,2.63c0,1.45,1.18,2.63,2.63,2.63h49.52c1.45,0,2.63-1.18,2.63-2.63
		c0-1.45-1.18-2.63-2.63-2.63H52.86z"/>
	<path class="st0" d="M109.4,125.9H20.61c-1.45,0-2.63,1.18-2.63,2.63c0,1.45,1.18,2.63,2.63,2.63h88.79c1.45,0,2.63-1.18,2.63-2.63
		C112.03,127.08,110.86,125.9,109.4,125.9L109.4,125.9z"/>
	<path class="st0" d="M20.61,120.64h88.79c1.45,0,2.63-1.18,2.63-2.63c0-1.45-1.18-2.63-2.63-2.63H20.61
		c-1.45,0-2.63,1.18-2.63,2.63C17.98,119.46,19.16,120.64,20.61,120.64z"/>
	<path class="st0" d="M52.86,104.86c-1.45,0-2.63,1.18-2.63,2.63s1.18,2.63,2.63,2.63h49.52c1.45,0,2.63-1.18,2.63-2.63
		s-1.18-2.63-2.63-2.63H52.86z"/>
	<path class="st0" d="M20.61,99.6h88.79c1.45,0,2.63-1.18,2.63-2.63c0-1.45-1.18-2.63-2.63-2.63H20.61c-1.45,0-2.63,1.18-2.63,2.63
		C17.98,98.42,19.16,99.6,20.61,99.6z"/>
	<path class="st0" d="M20.61,89.08h88.79c1.45,0,2.63-1.18,2.63-2.63c0-1.45-1.18-2.63-2.63-2.63H20.61c-1.45,0-2.63,1.18-2.63,2.63
		C17.98,87.9,19.16,89.08,20.61,89.08z"/>
	<path class="st0" d="M17.98,75.93c0,1.45,1.18,2.63,2.63,2.63h88.79c1.45,0,2.63-1.18,2.63-2.63s-1.18-2.63-2.63-2.63H20.61
		C19.16,73.29,17.98,74.47,17.98,75.93z"/>
	<path class="st0" d="M38.39,68.04c1.45,0,2.63-1.18,2.63-2.63s-1.18-2.63-2.63-2.63H20.43c-1.45,0-2.63,1.18-2.63,2.63
		s1.18,2.63,2.63,2.63H38.39z"/>
</g>
</svg>
