<!-- Generator: Adobe Illustrator 23.0.2, SVG Export Plug-In  -->
<svg version="1.1" xmlns="http://www.w3.org/2000/svg" xmlns:xlink="http://www.w3.org/1999/xlink" x="0px" y="0px" width="175px"
	 height="175px" viewBox="0 0 175 175" style="enable-background:new 0 0 175 175;" xml:space="preserve">
<style type="text/css">
	.st0{fill:#F1D000;}
</style>
<defs>
</defs>
<g>
	<g>
		<path class="st0" d="M96.25,87.5c-4.83,0-8.75,3.92-8.75,8.75c0,4.83,3.92,8.75,8.75,8.75c4.83,0,8.75-3.92,8.75-8.75
			C105,91.42,101.08,87.5,96.25,87.5z M96.25,99.16c-1.61,0-2.92-1.31-2.92-2.92c0-1.61,1.31-2.92,2.92-2.92
			c1.61,0,2.92,1.31,2.92,2.92C99.16,97.86,97.86,99.16,96.25,99.16z"/>
	</g>
</g>
<g>
	<g>
		<path class="st0" d="M119.58,87.5c-4.83,0-8.75,3.92-8.75,8.75c0,4.83,3.92,8.75,8.75,8.75c4.83,0,8.75-3.92,8.75-8.75
			C128.33,91.42,124.41,87.5,119.58,87.5z M119.58,99.16c-1.61,0-2.92-1.31-2.92-2.92c0-1.61,1.31-2.92,2.92-2.92
			s2.92,1.31,2.92,2.92C122.5,97.86,121.19,99.16,119.58,99.16z"/>
	</g>
</g>
<g>
	<g>
		<path class="st0" d="M142.91,87.5c-4.83,0-8.75,3.92-8.75,8.75c0,4.83,3.92,8.75,8.75,8.75s8.75-3.92,8.75-8.75
			C151.66,91.42,147.75,87.5,142.91,87.5z M142.91,99.16c-1.61,0-2.92-1.31-2.92-2.92c0-1.61,1.31-2.92,2.92-2.92
			s2.92,1.31,2.92,2.92C145.83,97.86,144.52,99.16,142.91,99.16z"/>
	</g>
</g>
<g>
	<g>
		<path class="st0" d="M96.25,110.83c-4.83,0-8.75,3.92-8.75,8.75c0,4.83,3.92,8.75,8.75,8.75c4.83,0,8.75-3.92,8.75-8.75
			C105,114.75,101.08,110.83,96.25,110.83z M96.25,122.5c-1.61,0-2.92-1.31-2.92-2.92s1.31-2.92,2.92-2.92
			c1.61,0,2.92,1.31,2.92,2.92S97.86,122.5,96.25,122.5z"/>
	</g>
</g>
<g>
	<g>
		<path class="st0" d="M119.58,110.83c-4.83,0-8.75,3.92-8.75,8.75c0,4.83,3.92,8.75,8.75,8.75c4.83,0,8.75-3.92,8.75-8.75
			C128.33,114.75,124.41,110.83,119.58,110.83z M119.58,122.5c-1.61,0-2.92-1.31-2.92-2.92s1.31-2.92,2.92-2.92s2.92,1.31,2.92,2.92
			S121.19,122.5,119.58,122.5z"/>
	</g>
</g>
<g>
	<g>
		<path class="st0" d="M142.91,110.83c-4.83,0-8.75,3.92-8.75,8.75c0,4.83,3.92,8.75,8.75,8.75s8.75-3.92,8.75-8.75
			C151.66,114.75,147.75,110.83,142.91,110.83z M142.91,122.5c-1.61,0-2.92-1.31-2.92-2.92s1.31-2.92,2.92-2.92s2.92,1.31,2.92,2.92
			S144.52,122.5,142.91,122.5z"/>
	</g>
</g>
<g>
	<g>
		<path class="st0" d="M96.25,134.16c-4.83,0-8.75,3.92-8.75,8.75s3.92,8.75,8.75,8.75c4.83,0,8.75-3.92,8.75-8.75
			S101.08,134.16,96.25,134.16z M96.25,145.83c-1.61,0-2.92-1.31-2.92-2.92s1.31-2.92,2.92-2.92c1.61,0,2.92,1.31,2.92,2.92
			S97.86,145.83,96.25,145.83z"/>
	</g>
</g>
<g>
	<g>
		<path class="st0" d="M119.58,134.16c-4.83,0-8.75,3.92-8.75,8.75s3.92,8.75,8.75,8.75c4.83,0,8.75-3.92,8.75-8.75
			S124.41,134.16,119.58,134.16z M119.58,145.83c-1.61,0-2.92-1.31-2.92-2.92s1.31-2.92,2.92-2.92s2.92,1.31,2.92,2.92
			S121.19,145.83,119.58,145.83z"/>
	</g>
</g>
<g>
	<g>
		<path class="st0" d="M142.91,134.16c-4.83,0-8.75,3.92-8.75,8.75s3.92,8.75,8.75,8.75s8.75-3.92,8.75-8.75
			S147.75,134.16,142.91,134.16z M142.91,145.83c-1.61,0-2.92-1.31-2.92-2.92s1.31-2.92,2.92-2.92s2.92,1.31,2.92,2.92
			S144.52,145.83,142.91,145.83z"/>
	</g>
</g>
<g>
	<g>
		<path class="st0" d="M166.25,46.67h-11.67V13.44L141.16,0H84.58v46.67H63.29C60.7,38.03,52.77,32.1,43.75,32.08h-5.83
			c-9.02,0.02-16.96,5.94-19.54,14.58H8.75C3.92,46.67,0,50.58,0,55.42v99.16c0,4.83,3.92,8.75,8.75,8.75H19.5
			c3.38,7.12,10.54,11.66,18.42,11.67h5.83c7.88-0.01,15.04-4.55,18.42-11.67h104.08c4.83,0,8.75-3.92,8.75-8.75V55.42
			C175,50.58,171.08,46.67,166.25,46.67z M8.75,157.5c-1.61,0-2.92-1.31-2.92-2.92V55.42c0-1.61,1.31-2.92,2.92-2.92h8.75v102.08
			c0.01,0.98,0.09,1.95,0.23,2.92H8.75z M58.33,154.58c-0.01,8.05-6.53,14.57-14.58,14.58h-5.83c-8.05-0.01-14.57-6.53-14.58-14.58
			V52.5c0.01-8.05,6.53-14.57,14.58-14.58h5.83c8.05,0.01,14.57,6.53,14.58,14.58V154.58z M90.41,5.83h48.34l10,10.02v30.81H90.41
			V5.83z M169.16,154.58c0,1.61-1.31,2.92-2.92,2.92H63.93c0.15-0.97,0.23-1.94,0.23-2.92V52.5h102.08c1.61,0,2.92,1.31,2.92,2.92
			V154.58z"/>
	</g>
</g>
<g>
	<g>
		<path class="st0" d="M84.58,58.33v23.33h70V58.33H84.58z M148.75,75.83H90.41V64.17h58.33V75.83z"/>
	</g>
</g>
<g>
	<g>
		<rect x="96.25" y="11.67" class="st0" width="40.83" height="5.83"/>
	</g>
</g>
<g>
	<g>
		<rect x="96.25" y="23.33" class="st0" width="40.83" height="5.83"/>
	</g>
</g>
<g>
	<g>
		<rect x="96.25" y="35" class="st0" width="40.83" height="5.83"/>
	</g>
</g>
</svg>
