<!-- Generator: Adobe Illustrator 23.0.2, SVG Export Plug-In  -->
<svg version="1.1" xmlns="http://www.w3.org/2000/svg" xmlns:xlink="http://www.w3.org/1999/xlink" x="0px" y="0px"
	 width="130.01px" height="179.62px" viewBox="0 0 130.01 179.62" style="enable-background:new 0 0 130.01 179.62;"
	 xml:space="preserve">
<style type="text/css">
	.st0{fill:#F1D000;}
</style>
<defs>
</defs>
<g>
	<path class="st0" d="M6.64,179.62h97.5c1.45,0,2.63-1.18,2.63-2.63c0-1.45-1.18-2.63-2.63-2.63H6.64c-0.76,0-1.38-0.62-1.38-1.38
		V35.09c0-1.45-1.18-2.63-2.63-2.63S0,33.63,0,35.09l0,137.89C0,176.64,2.98,179.62,6.64,179.62z"/>
	<path class="st0" d="M2.63,27.2c1.45,0,2.63-1.18,2.63-2.63V6.64c0-0.76,0.62-1.38,1.38-1.38h98.92v16.46
		c0,3.06,2.49,5.56,5.56,5.56h13.63v145.7c0,0.76-0.62,1.38-1.38,1.38h-8.71c-1.45,0-2.63,1.18-2.63,2.63
		c0,1.45,1.18,2.63,2.63,2.63h8.71c3.66,0,6.64-2.98,6.64-6.64V24.64c0-0.64-0.23-1.25-0.65-1.73L110.18,0.9
		c-0.5-0.57-1.22-0.9-1.98-0.9L6.64,0C2.98,0,0,2.98,0,6.64l0,17.93C0,26.02,1.18,27.2,2.63,27.2L2.63,27.2z M110.83,21.72V9.66
		l10.77,12.36h-10.48C110.96,22.01,110.83,21.88,110.83,21.72z"/>
</g>
<path class="st0" d="M98.52,96.3c-3.23,0-7.19,0.42-11.79,1.26C80.29,90.73,73.59,80.77,68.85,71c4.7-19.77,2.35-22.57,1.31-23.89
	c-1.1-1.4-2.66-3.68-4.43-3.68c-0.74,0-2.76,0.34-3.57,0.6c-2.02,0.67-3.11,2.23-3.98,4.27C55.7,54.1,59.1,64,62.61,71.62
	c-3,11.92-8.02,26.18-13.3,37.76c-13.31,6.1-20.38,12.09-21.02,17.8c-0.23,2.08,0.26,5.13,3.92,7.87c1,0.75,2.17,1.15,3.4,1.15l0,0
	c3.07,0,6.18-2.35,9.77-7.4c2.62-3.68,5.43-8.7,8.37-14.93c9.41-4.11,21.04-7.83,31.01-9.91c5.55,5.33,10.52,8.03,14.79,8.03
	c3.15,0,5.84-1.45,7.8-4.18c2.03-2.85,2.5-5.4,1.37-7.59C107.35,97.58,104.02,96.3,98.52,96.3z M35.67,130.27
	c-1.64-1.26-1.55-2.11-1.51-2.43c0.22-1.95,3.28-5.42,10.78-9.64C39.25,128.71,36.2,130.11,35.67,130.27z M64.48,49.76
	c0.15-0.05,3.67,3.87,0.34,11.3C59.8,55.93,64.13,49.88,64.48,49.76z M57.22,106.05c3.57-8.5,6.88-17.88,9.39-26.57
	c3.94,7.09,8.68,13.96,13.42,19.47C72.54,100.72,64.56,103.2,57.22,106.05z M102.53,104.37c-1.08,1.51-3.43,1.55-4.25,1.55
	c-1.87,0-2.57-1.11-5.43-3.32c2.36-0.3,4.59-0.38,6.36-0.38c3.12,0,3.69,0.46,4.13,0.69C103.25,103.16,103.05,103.64,102.53,104.37z
	"/>
</svg>
