<!-- Generator: Adobe Illustrator 21.0.0, SVG Export Plug-In  -->
<svg version="1.1"
	 xmlns="http://www.w3.org/2000/svg" xmlns:xlink="http://www.w3.org/1999/xlink" xmlns:a="http://ns.adobe.com/AdobeSVGViewerExtensions/3.0/"
	 x="0px" y="0px" width="467.5px" height="332.1px" viewBox="0 0 467.5 332.1" style="enable-background:new 0 0 467.5 332.1;"
	 xml:space="preserve">
<style type="text/css">
	.st0{fill:#FFFFFF;stroke:#A9A8A9;stroke-width:0.25;stroke-miterlimit:10;}
	.st1{fill:#E8E8E8;}
	.st2{fill:#DDDDDD;}
	.st3{fill:#E7E7E7;}
	.st4{fill-rule:evenodd;clip-rule:evenodd;fill:#E7E7E7;}
	.st5{fill:#249FD9;}
</style>
<defs>
</defs>
<g>
	<polygon class="st0" points="331,53.7 331,304.8 109.6,304.8 109.6,0.1 278.5,0.1 	"/>
	<polygon class="st1" points="331,53.7 278.5,53.7 278.5,0.1 	"/>
	<g>
		<path class="st2" d="M185.6,47.4c0,1.5-0.8,2.7-1.7,2.7h-49.5c-1,0-1.7-1.2-1.7-2.7l0,0c0-1.5,0.8-2.7,1.7-2.7h49.5
			C184.8,44.6,185.6,45.9,185.6,47.4L185.6,47.4z"/>
		<path class="st2" d="M292.9,64.5c0,1.5-1,2.7-2.3,2.7H134.9c-1.3,0-2.3-1.2-2.3-2.7l0,0c0-1.5,1-2.7,2.3-2.7h155.7
			C291.9,61.7,292.9,63,292.9,64.5L292.9,64.5z"/>
	</g>
	<g>
		<path class="st2" d="M186.1,93.9c0,1.5-0.8,2.7-1.7,2.7h-49.5c-1,0-1.7-1.2-1.7-2.7l0,0c0-1.5,0.8-2.7,1.7-2.7h49.5
			C185.3,91.2,186.1,92.4,186.1,93.9L186.1,93.9z"/>
		<path class="st2" d="M292.9,111c0,1.5-1,2.7-2.3,2.7H135.4c-1.3,0-2.3-1.2-2.3-2.7l0,0c0-1.5,1-2.7,2.3-2.7h155.3
			C291.9,108.3,292.9,109.5,292.9,111L292.9,111z"/>
	</g>
	<g>
		<path class="st2" d="M186.1,142.4c0,1.5-0.8,2.7-1.7,2.7h-49.5c-1,0-1.7-1.2-1.7-2.7l0,0c0-1.5,0.8-2.7,1.7-2.7h49.5
			C185.3,139.7,186.1,140.9,186.1,142.4L186.1,142.4z"/>
		<path class="st2" d="M292.9,159.5c0,1.5-1,2.7-2.3,2.7H135.4c-1.3,0-2.3-1.2-2.3-2.7l0,0c0-1.5,1-2.7,2.3-2.7h155.3
			C291.9,156.8,292.9,158,292.9,159.5L292.9,159.5z"/>
	</g>
	<g>
		<path class="st2" d="M186.1,197.1c0,1.5-0.8,2.7-1.7,2.7h-49.5c-1,0-1.7-1.2-1.7-2.7l0,0c0-1.5,0.8-2.7,1.7-2.7h49.5
			C185.3,194.4,186.1,195.6,186.1,197.1L186.1,197.1z"/>
		<path class="st2" d="M292.9,214.2c0,1.5-1,2.7-2.3,2.7H135.4c-1.3,0-2.3-1.2-2.3-2.7l0,0c0-1.5,1-2.7,2.3-2.7h155.3
			C291.9,211.5,292.9,212.7,292.9,214.2L292.9,214.2z"/>
	</g>
	<g>
		<path class="st2" d="M185.6,255.7c0,1.5-0.8,2.7-1.7,2.7h-49.5c-1,0-1.7-1.2-1.7-2.7l0,0c0-1.5,0.8-2.7,1.7-2.7h49.5
			C184.8,253,185.6,254.2,185.6,255.7L185.6,255.7z"/>
		<path class="st2" d="M292.9,272.8c0,1.5-1,2.7-2.3,2.7H134.9c-1.3,0-2.3-1.2-2.3-2.7l0,0c0-1.5,1-2.7,2.3-2.7h155.7
			C291.9,270.1,292.9,271.3,292.9,272.8L292.9,272.8z"/>
	</g>
</g>
<g>
	<path class="st3" d="M14.3,269.9c-7.9,0-14.3-6.4-14.3-14.3c0-7.9,6.4-14.3,14.3-14.3c7.9,0,14.3,6.4,14.3,14.3
		C28.6,263.5,22.2,269.9,14.3,269.9z M14.3,245.3c-5.7,0-10.3,4.6-10.3,10.3c0,5.7,4.6,10.3,10.3,10.3s10.3-4.6,10.3-10.3
		C24.6,249.9,20,245.3,14.3,245.3z"/>
</g>
<path class="st3" d="M87,147.9h-5.6v-5.6c0-2-1.7-3.7-3.7-3.7c-2,0-3.7,1.7-3.7,3.7v5.6h-5.6c-2,0-3.7,1.7-3.7,3.7
	c0,2,1.7,3.7,3.7,3.7h5.6v5.6c0,2,1.7,3.7,3.7,3.7c2,0,3.7-1.7,3.7-3.7v-5.6H87c2,0,3.7-1.7,3.7-3.7C90.7,149.6,89,147.9,87,147.9z"
	/>
<path class="st3" d="M47.6,41h-3.6v-3.6c0-1.3-1.1-2.4-2.4-2.4c-1.3,0-2.4,1.1-2.4,2.4V41h-3.6c-1.3,0-2.4,1.1-2.4,2.4
	c0,1.3,1.1,2.4,2.4,2.4h3.6v3.6c0,1.3,1.1,2.4,2.4,2.4c1.3,0,2.4-1.1,2.4-2.4v-3.6h3.6c1.3,0,2.4-1.1,2.4-2.4
	C50,42.1,48.9,41,47.6,41z"/>
<g>
	<path class="st3" d="M419.1,150.7c-4.7,0-8.5-3.8-8.5-8.5c0-4.7,3.8-8.5,8.5-8.5c4.7,0,8.5,3.8,8.5,8.5
		C427.7,146.9,423.8,150.7,419.1,150.7z M419.1,136c-3.4,0-6.2,2.8-6.2,6.2s2.8,6.2,6.2,6.2c3.4,0,6.2-2.8,6.2-6.2
		S422.5,136,419.1,136z"/>
</g>
<path class="st4" d="M434.2,50.7c-0.6,0.8-1.1,2-1.9,2.3c-0.9,0.3-2.4,0.3-3.1-0.3c-2.4-2.1-4.6-4.4-6.8-6.7
	c-1.2-1.3-1.2-2.9,0.1-4.1c1.3-1.2,2.8-1.2,4.1,0.1c2.2,2.1,4.3,4.2,6.4,6.4C433.5,49,433.7,49.8,434.2,50.7z"/>
<path class="st4" d="M454.7,71.5c-0.6,0.7-1.1,1.8-1.9,2c-1.1,0.3-2.7,0.2-3.4-0.4c-2.3-1.9-4.3-4.1-6.3-6.2c-1-1.1-1-3.3,0-4.2
	c1.3-1.1,2.8-1.2,4-0.1c2.3,2.1,4.4,4.3,6.6,6.5C454.2,69.6,454.3,70.4,454.7,71.5z"/>
<path class="st4" d="M425,73.9c-2.8,0-4.3-2.5-2.9-4.2c2.1-2.7,4.6-5.1,7.1-7.4c1.1-1,2.9-0.8,3.9,0.5c1.1,1.3,0.9,2.7-0.2,3.9
	c-2,2.1-4.1,4.2-6.2,6.2C426.2,73.5,425.3,73.7,425,73.9z"/>
<path class="st4" d="M454.8,43.8c-0.6,1.1-0.9,2-1.5,2.6c-2,2.1-4,4.1-6,6.1c-1.3,1.3-2.6,1.4-4,0.1c-1.2-1.2-1.3-3-0.1-4.3
	c2-2.1,3.9-4.3,6.1-6.1c0.8-0.7,2.3-1,3.4-0.7C453.5,41.6,454.1,42.9,454.8,43.8z"/>
<g>
	<g id="Layer_1_1_">
		<g>
			<path class="st5" d="M457,311.2H247.4c-5.8,0-10.5,4.7-10.5,10.5c0,5.8,4.7,10.5,10.5,10.5H457c5.8,0,10.5-4.7,10.5-10.5
				C467.4,315.9,462.7,311.2,457,311.2z"/>
			<path class="st5" d="M260.5,283.9c-5.8,0-10.5,4.7-10.5,10.5c0,5.8,4.7,10.5,10.5,10.5h183.3c5.8,0,10.5-4.7,10.5-10.5
				c0-5.8-4.7-10.5-10.5-10.5h-2.6v-94.3h2.6c2.9,0,5.2-2.3,5.2-5.2c0-2.9-2.3-5.2-5.2-5.2H260.5c-2.9,0-5.2,2.3-5.2,5.2
				c0,2.9,2.3,5.2,5.2,5.2h2.6v94.3L260.5,283.9L260.5,283.9z M420.3,189.6v94.3h-31.4v-94.3H420.3z M367.9,189.6v94.3h-31.4v-94.3
				H367.9z M284.1,189.6h31.4v94.3h-31.4V189.6z"/>
			<path class="st5" d="M247.4,169.7H457c0,0,0.1,0,0.1,0c5.8,0,10.5-4.7,10.5-10.5c0-4.6-3-8.5-7.1-9.9l-104-46.8
				c-2.7-1.2-5.9-1.2-8.6,0l-104.8,47.1c-4.5,2-7,6.9-5.9,11.8C238.2,166.3,242.5,169.7,247.4,169.7z"/>
		</g>
	</g>
</g>
</svg>
