<!-- Generator: Adobe Illustrator 21.0.0, SVG Export Plug-In  -->
<svg version="1.1"
	 xmlns="http://www.w3.org/2000/svg" xmlns:xlink="http://www.w3.org/1999/xlink" xmlns:a="http://ns.adobe.com/AdobeSVGViewerExtensions/3.0/"
	 x="0px" y="0px" width="523px" height="352px" viewBox="0 0 523 352" style="enable-background:new 0 0 523 352;"
	 xml:space="preserve">
<style type="text/css">
	.st0{fill:#E7E7E7;}
	.st1{fill-rule:evenodd;clip-rule:evenodd;fill:#E7E7E7;}
	.st2{fill:#E2E3E4;}
	.st3{fill:#F6F5F6;}
	.st4{fill:#E4E4E4;}
	.st5{fill:#FFFFFF;}
	.st6{fill:#249FD9;}
	.st7{fill:#DDDDDD;}
	.st8{opacity:0.78;fill:#FFFFFF;}
	.st9{opacity:0.63;fill:#FFFFFF;}
	.st10{fill:url(#SVGID_1_);}
	.st11{opacity:0.7;}
	.st12{fill:#515251;}
	.st13{fill:url(#SVGID_2_);}
</style>
<defs>
</defs>
<g>
	<path class="st0" d="M14.3,296.2c-7.9,0-14.3-6.4-14.3-14.3s6.4-14.3,14.3-14.3c7.9,0,14.3,6.4,14.3,14.3S22.2,296.2,14.3,296.2z
		 M14.3,271.6c-5.7,0-10.3,4.6-10.3,10.3s4.6,10.3,10.3,10.3s10.3-4.6,10.3-10.3S20,271.6,14.3,271.6z"/>
</g>
<path class="st0" d="M87,174.2h-5.6v-5.6c0-2-1.7-3.7-3.7-3.7c-2,0-3.7,1.7-3.7,3.7v5.6h-5.6c-2,0-3.7,1.7-3.7,3.7
	c0,2,1.7,3.7,3.7,3.7h5.6v5.6c0,2,1.7,3.7,3.7,3.7c2,0,3.7-1.7,3.7-3.7v-5.6H87c2,0,3.7-1.7,3.7-3.7C90.7,175.9,89,174.2,87,174.2z"
	/>
<path class="st0" d="M47.6,67.3h-3.6v-3.6c0-1.3-1.1-2.4-2.4-2.4c-1.3,0-2.4,1.1-2.4,2.4v3.6h-3.6c-1.3,0-2.4,1.1-2.4,2.4
	c0,1.3,1.1,2.4,2.4,2.4h3.6v3.6c0,1.3,1.1,2.4,2.4,2.4c1.3,0,2.4-1.1,2.4-2.4v-3.6h3.6c1.3,0,2.4-1.1,2.4-2.4
	C50,68.4,48.9,67.3,47.6,67.3z"/>
<g>
	<path class="st0" d="M487.3,173.6c-4.7,0-8.5-3.8-8.5-8.5c0-4.7,3.8-8.5,8.5-8.5c4.7,0,8.5,3.8,8.5,8.5
		C495.8,169.7,492,173.6,487.3,173.6z M487.3,158.9c-3.4,0-6.2,2.8-6.2,6.2s2.8,6.2,6.2,6.2s6.2-2.8,6.2-6.2
		S490.7,158.9,487.3,158.9z"/>
</g>
<path class="st1" d="M502.3,73.6c-0.6,0.8-1.1,2-1.9,2.3c-0.9,0.3-2.4,0.3-3.1-0.3c-2.4-2.1-4.6-4.4-6.8-6.7
	c-1.2-1.3-1.2-2.9,0.1-4.1c1.3-1.2,2.8-1.2,4.1,0.1c2.2,2.1,4.3,4.2,6.4,6.4C501.7,71.8,501.9,72.6,502.3,73.6z"/>
<path class="st1" d="M522.9,94.3c-0.6,0.7-1.1,1.8-1.9,2c-1.1,0.3-2.7,0.2-3.4-0.4c-2.3-1.9-4.3-4.1-6.3-6.2c-1-1.1-1-3.3,0-4.2
	c1.3-1.1,2.8-1.2,4-0.1c2.3,2.1,4.4,4.3,6.6,6.5C522.3,92.4,522.5,93.3,522.9,94.3z"/>
<path class="st1" d="M493.2,96.8c-2.8,0-4.3-2.5-2.9-4.2c2.1-2.7,4.6-5.1,7.1-7.4c1.1-1,2.9-0.8,3.9,0.5c1.1,1.3,0.9,2.7-0.2,3.9
	c-2,2.1-4.1,4.2-6.2,6.2C494.3,96.3,493.5,96.6,493.2,96.8z"/>
<path class="st1" d="M523,66.6c-0.6,1.1-0.9,2-1.5,2.6c-2,2.1-4,4.1-6,6.1c-1.3,1.3-2.6,1.4-4,0.1c-1.2-1.2-1.3-3-0.1-4.3
	c2-2.1,3.9-4.3,6.1-6.1c0.8-0.7,2.3-1,3.4-0.7C521.6,64.5,522.2,65.7,523,66.6z"/>
<path class="st1" d="M490.2,292.1c-0.5,0.7-0.9,1.6-1.5,1.8c-0.7,0.3-2,0.2-2.5-0.2c-1.9-1.7-3.7-3.5-5.5-5.4
	c-1-1.1-0.9-2.3,0.1-3.3c1.1-1,2.2-1,3.3,0.1c1.7,1.7,3.5,3.4,5.2,5.2C489.7,290.7,489.8,291.3,490.2,292.1z"/>
<path class="st1" d="M506.8,308.9c-0.5,0.5-0.9,1.5-1.5,1.6c-0.9,0.2-2.1,0.2-2.8-0.4c-1.8-1.5-3.5-3.3-5.1-5
	c-0.8-0.9-0.8-2.7,0-3.4c1-0.9,2.3-1,3.3-0.1c1.9,1.7,3.6,3.5,5.3,5.3C506.4,307.4,506.5,308.1,506.8,308.9z"/>
<path class="st1" d="M482.8,310.9c-2.2,0-3.5-2-2.4-3.4c1.7-2.2,3.7-4.1,5.8-6c0.9-0.8,2.3-0.7,3.2,0.4c0.9,1,0.8,2.2-0.2,3.2
	c-1.6,1.7-3.3,3.4-5,5C483.7,310.6,483,310.8,482.8,310.9z"/>
<path class="st1" d="M506.9,286.5c-0.5,0.9-0.7,1.6-1.2,2.1c-1.6,1.7-3.2,3.3-4.9,4.9c-1,1-2.1,1.2-3.3,0.1c-1-0.9-1.1-2.4-0.1-3.5
	c1.6-1.7,3.2-3.4,4.9-5c0.7-0.6,1.9-0.8,2.8-0.6C505.8,284.7,506.3,285.8,506.9,286.5z"/>
<g>
	<path class="st2" d="M349.3,321.5H174.9c-10.8,0-19.5-8.7-19.5-19.5V48.2c0-10.8,8.7-19.5,19.5-19.5h174.4
		c10.8,0,19.5,8.7,19.5,19.5v253.8C368.8,312.7,360.1,321.5,349.3,321.5z"/>
	<g>
		<g>
			<rect x="174.7" y="40.5" class="st3" width="175.7" height="255.2"/>
			<path class="st4" d="M350.3,40.5c0.1,99.5,3.3,219.5-7.9,246.1c-49.2,4.8-106.9,6.3-167.8,6.6l23.1-252L350.3,40.5z"/>
			<path class="st5" d="M334.6,278.5c-76.7,12.3-128,12.9-169.6,9.8c5.4-57.4,7.6-152.7,9.7-247.9l92.5,0.2l83.7,5.5
				C352,145,352.2,236.2,334.6,278.5z"/>
		</g>
	</g>
	<g>
		<path class="st6" d="M301.7,30.4v19.7h-79.1V30.4c0-3.1,1.3-6,3.3-8c0.3-0.3,0.5-0.5,0.8-0.7c2-1.6,4.5-2.6,7.2-2.6
			c2.1,0,4-0.5,5.8-1.3c0.8-0.4,1.5-0.8,2.2-1.3c2.3-1.7,4-4.1,4.9-6.9c0.9-2.9,2.7-5.3,5-7c2.2-1.6,5-2.5,7.9-2.5h4.9
			c2.9,0,5.6,0.9,7.9,2.5c2.3,1.7,4.1,4.1,5,7c0.9,2.8,2.6,5.2,4.9,6.9c0.7,0.5,1.4,0.9,2.2,1.3c1.8,0.9,3.8,1.3,5.8,1.3
			c2.8,0,5.3,1,7.2,2.6C300,23.7,301.7,26.9,301.7,30.4z"/>
		<polygon class="st4" points="308.1,40.5 308.1,55.1 216.1,55.1 216.1,40.5 222.5,40.5 222.5,50.1 301.7,50.1 301.7,40.5 		"/>
		<ellipse class="st5" cx="262.1" cy="11.8" rx="7" ry="6.7"/>
	</g>
</g>
<g>
	<g>
		
			<rect x="238.4" y="207.3" transform="matrix(0.9997 2.352802e-02 -2.352802e-02 0.9997 5.0227 -5.9407)" class="st7" width="33.1" height="6.4"/>
		<path class="st7" d="M321.6,222.9l-83.4-2l-0.2,6.4c32.3,0.8,73.3,2.3,81.7,1C321,226.9,321.7,225.1,321.6,222.9z"/>
	</g>
	<g>
		<g>
			<path class="st7" d="M213.5,227.9l-22.7-0.5l0.5-22.7l22.7,0.5L213.5,227.9z M193.9,224.4l16.7,0.4l0.4-16.7l-16.7-0.4
				L193.9,224.4z"/>
		</g>
		<g>
			<path class="st6" d="M196,211.7c0.6,2.3,1.7,12.1,6.6,9.4c1.1-0.6,2.1-2.3,2.9-3.3c1.5-1.7,3-3.4,4.6-5.2c3-3.4,6.1-6.9,9.1-10.3
				c0.8-0.9-2.7-3.1-3.6-2c-2.7,3.1-5.4,6.1-8.1,9.2c-1.3,1.5-2.7,3.1-4,4.6c-0.9,1.1-3.1,4.5-4.5,4.8c0.8,0.2,1.5,0.5,2.3,0.7
				c0.5,0.4-0.5-2.7-0.5-2.8c-0.4-1.4-0.8-2.9-1.1-4.3C199.3,211.3,195.5,209.9,196,211.7L196,211.7z"/>
		</g>
	</g>
</g>
<g>
	<g>
		
			<rect x="238.4" y="169.8" transform="matrix(0.9997 2.352802e-02 -2.352802e-02 0.9997 4.1408 -5.9511)" class="st7" width="33.1" height="6.4"/>
		<path class="st7" d="M321.6,185.4l-83.4-2l-0.2,6.4c32.3,0.8,73.3,2.3,81.7,1C321,189.4,321.7,187.6,321.6,185.4z"/>
	</g>
	<g>
		<g>
			<path class="st7" d="M213.5,190.4l-22.7-0.5l0.5-22.7l22.7,0.5L213.5,190.4z M193.9,187l16.7,0.4l0.4-16.7l-16.7-0.4L193.9,187z"
				/>
		</g>
		<g>
			<path class="st6" d="M196,174.2c0.6,2.3,1.7,12.1,6.6,9.4c1.1-0.6,2.1-2.3,2.9-3.3c1.5-1.7,3-3.4,4.6-5.2c3-3.4,6.1-6.9,9.1-10.3
				c0.8-0.9-2.7-3.1-3.6-2c-2.7,3.1-5.4,6.1-8.1,9.2c-1.3,1.5-2.7,3.1-4,4.6c-0.9,1.1-3.1,4.5-4.5,4.8c0.8,0.2,1.5,0.5,2.3,0.7
				c0.5,0.4-0.5-2.7-0.5-2.8c-0.4-1.4-0.8-2.9-1.1-4.3C199.3,173.8,195.5,172.4,196,174.2L196,174.2z"/>
		</g>
	</g>
</g>
<g>
	<g>
		
			<rect x="238.4" y="131.4" transform="matrix(0.9997 2.352802e-02 -2.352802e-02 0.9997 3.237 -5.9617)" class="st7" width="33.1" height="6.4"/>
		<path class="st7" d="M321.6,147l-83.4-2l-0.2,6.4c32.3,0.8,73.3,2.3,81.7,1C321,151,321.7,149.2,321.6,147z"/>
	</g>
	<g>
		<g>
			<path class="st7" d="M213.5,152l-22.7-0.5l0.5-22.7l22.7,0.5L213.5,152z M193.9,148.5l16.7,0.4l0.4-16.7l-16.7-0.4L193.9,148.5z"
				/>
		</g>
		<g>
			<path class="st6" d="M196,135.8c0.6,2.3,1.7,12.1,6.6,9.4c1.1-0.6,2.1-2.3,2.9-3.3c1.5-1.7,3-3.4,4.6-5.2c3-3.4,6.1-6.9,9.1-10.3
				c0.8-0.9-2.7-3.1-3.6-2c-2.7,3.1-5.4,6.1-8.1,9.2c-1.3,1.5-2.7,3.1-4,4.6c-0.9,1.1-3.1,4.5-4.5,4.8c0.8,0.2,1.5,0.5,2.3,0.7
				c0.5,0.4-0.5-2.7-0.5-2.8c-0.4-1.4-0.8-2.9-1.1-4.3C199.3,135.4,195.5,134,196,135.8L196,135.8z"/>
		</g>
	</g>
</g>
<g>
	<g>
		
			<rect x="238.4" y="96.5" transform="matrix(0.9997 2.352802e-02 -2.352802e-02 0.9997 2.4163 -5.9714)" class="st7" width="33.1" height="6.4"/>
		<path class="st7" d="M321.6,112.1l-83.4-2l-0.2,6.4c32.3,0.8,73.3,2.3,81.7,1C321,116.1,321.7,114.3,321.6,112.1z"/>
	</g>
	<g>
		<g>
			<path class="st7" d="M213.5,117.1l-22.7-0.5l0.5-22.7l22.7,0.5L213.5,117.1z M193.9,113.7l16.7,0.4l0.4-16.7l-16.7-0.4
				L193.9,113.7z"/>
		</g>
		<g>
			<path class="st6" d="M196,100.9c0.6,2.3,1.7,12.1,6.6,9.4c1.1-0.6,2.1-2.3,2.9-3.3c1.5-1.7,3-3.4,4.6-5.2c3-3.4,6.1-6.9,9.1-10.3
				c0.8-0.9-2.7-3.1-3.6-2c-2.7,3.1-5.4,6.1-8.1,9.2c-1.3,1.5-2.7,3.1-4,4.6c-0.9,1.1-3.1,4.5-4.5,4.8c0.8,0.2,1.5,0.5,2.3,0.7
				c0.5,0.4-0.5-2.7-0.5-2.8c-0.4-1.4-0.8-2.9-1.1-4.3C199.3,100.5,195.5,99.1,196,100.9L196,100.9z"/>
		</g>
	</g>
</g>
<g>
	<g>
		<g>
			
				<rect x="238.4" y="245.3" transform="matrix(0.9997 2.352802e-02 -2.352802e-02 0.9997 5.9177 -5.9302)" class="st7" width="33.1" height="6.4"/>
			<path class="st7" d="M321.6,260.9l-83.4-2l-0.2,6.4c32.3,0.8,73.3,2.3,81.7,1C321,264.9,321.7,263.2,321.6,260.9z"/>
		</g>
		<g>
			<g>
				<path class="st7" d="M213.5,265.9l-22.7-0.5l0.5-22.7l22.7,0.5L213.5,265.9z M193.9,262.5l16.7,0.4l0.4-16.7l-16.7-0.4
					L193.9,262.5z"/>
			</g>
			<g>
				<path class="st6" d="M196,249.7c0.6,2.3,1.7,12.1,6.6,9.4c1.1-0.6,2.1-2.3,2.9-3.3c1.5-1.7,3-3.4,4.6-5.2
					c3-3.4,6.1-6.9,9.1-10.3c0.8-0.9-2.7-3.1-3.6-2c-2.7,3.1-5.4,6.1-8.1,9.2c-1.3,1.5-2.7,3.1-4,4.6c-0.9,1.1-3.1,4.5-4.5,4.8
					c0.8,0.2,1.5,0.5,2.3,0.7c0.5,0.4-0.5-2.7-0.5-2.8c-0.4-1.4-0.8-2.9-1.1-4.3C199.3,249.4,195.5,247.9,196,249.7L196,249.7z"/>
			</g>
		</g>
	</g>
</g>
<g>
	<g>
		<path class="st6" d="M163.4,287.4h-59.8c-2,0-3.7-1.7-3.7-3.7v-4.1c0-2,1.7-3.7,3.7-3.7h59.8c2,0,3.7,1.7,3.7,3.7v4.1
			C167.2,285.8,165.5,287.4,163.4,287.4z"/>
	</g>
	<g>
		<path class="st6" d="M163.4,275.2h-59.8c-2,0-3.7-1.7-3.7-3.7v-4.1c0-2,1.7-3.7,3.7-3.7h59.8c2,0,3.7,1.7,3.7,3.7v4.1
			C167.2,273.5,165.5,275.2,163.4,275.2z"/>
	</g>
	<g>
		<path class="st6" d="M163.4,299.9h-59.8c-2,0-3.7-1.7-3.7-3.7V292c0-2,1.7-3.7,3.7-3.7h59.8c2,0,3.7,1.7,3.7,3.7v4.1
			C167.2,298.2,165.5,299.9,163.4,299.9z"/>
	</g>
	<g>
		<path class="st6" d="M163.4,312.3h-59.8c-2,0-3.7-1.7-3.7-3.7v-4.1c0-2,1.7-3.7,3.7-3.7h59.8c2,0,3.7,1.7,3.7,3.7v4.1
			C167.2,310.7,165.5,312.3,163.4,312.3z"/>
	</g>
	<g>
		<path class="st6" d="M163.4,324.8h-59.8c-2,0-3.7-1.7-3.7-3.7v-4.1c0-2,1.7-3.7,3.7-3.7h59.8c2,0,3.7,1.7,3.7,3.7v4.1
			C167.2,323.1,165.5,324.8,163.4,324.8z"/>
	</g>
	<g>
		<path class="st6" d="M163.4,336.8h-59.8c-2,0-3.7-1.7-3.7-3.7V329c0-2,1.7-3.7,3.7-3.7h59.8c2,0,3.7,1.7,3.7,3.7v4.1
			C167.2,335.2,165.5,336.8,163.4,336.8z"/>
	</g>
	<g>
		<path class="st6" d="M163.4,348.9h-59.8c-2,0-3.7-1.7-3.7-3.7v-4.1c0-2,1.7-3.7,3.7-3.7h59.8c2,0,3.7,1.7,3.7,3.7v4.1
			C167.2,347.3,165.5,348.9,163.4,348.9z"/>
	</g>
</g>
<g>
	<g>
		<path class="st6" d="M232.9,312.6h-59.8c-2,0-3.7-1.7-3.7-3.7v-4.1c0-2,1.7-3.7,3.7-3.7h59.8c2,0,3.7,1.7,3.7,3.7v4.1
			C236.6,310.9,234.9,312.6,232.9,312.6z"/>
	</g>
	<g>
		<path class="st6" d="M232.9,325h-59.8c-2,0-3.7-1.7-3.7-3.7v-4.1c0-2,1.7-3.7,3.7-3.7h59.8c2,0,3.7,1.7,3.7,3.7v4.1
			C236.6,323.4,234.9,325,232.9,325z"/>
	</g>
	<g>
		<path class="st6" d="M232.9,337.1h-59.8c-2,0-3.7-1.7-3.7-3.7v-4.1c0-2,1.7-3.7,3.7-3.7h59.8c2,0,3.7,1.7,3.7,3.7v4.1
			C236.6,335.4,234.9,337.1,232.9,337.1z"/>
	</g>
	<g>
		<path class="st6" d="M232.9,349.2h-59.8c-2,0-3.7-1.7-3.7-3.7v-4.1c0-2,1.7-3.7,3.7-3.7h59.8c2,0,3.7,1.7,3.7,3.7v4.1
			C236.6,347.5,234.9,349.2,232.9,349.2z"/>
	</g>
</g>
<g>
	<circle class="st6" cx="132.2" cy="231.1" r="29.7"/>
	<path class="st5" d="M107.7,219.3c-0.1,0-0.2,0-0.2-0.1c-0.3-0.1-0.4-0.5-0.2-0.7c4.8-9.5,14.4-15.4,25-15.4c1.7,0,3.4,0.2,5,0.5
		c0.3,0.1,0.5,0.3,0.4,0.6c-0.1,0.3-0.3,0.5-0.6,0.4c-1.6-0.3-3.2-0.4-4.8-0.4c-10.2,0-19.4,5.7-24,14.8
		C108.1,219.2,107.9,219.3,107.7,219.3z"/>
	<circle class="st8" cx="132.8" cy="231.7" r="25.1"/>
	<g>
		<path class="st6" d="M143,244.8l-0.8-3.6c0-0.2-0.2-0.4-0.3-0.5c-0.2-0.1-0.4-0.1-0.6,0l-0.1,0l-0.3,0.1c-0.1,0-0.3,0.1-0.4,0.1
			c-0.2,0-0.3,0.1-0.6,0.1c-0.2,0-0.4,0.1-0.7,0.1c-0.2,0-0.5,0.1-0.8,0.1c-0.3,0-0.5,0-0.8,0c-1.9,0-3.6-0.5-5.1-1.5
			c-1.5-1-2.6-2.4-3.4-4.2h8.7c0.2,0,0.3-0.1,0.4-0.2c0.1-0.1,0.2-0.3,0.2-0.4l0.5-2.5c0-0.2,0-0.4-0.1-0.6
			c-0.1-0.2-0.3-0.3-0.6-0.3h-10.3c0-1,0-1.8,0-2.4h11c0.4,0,0.6-0.2,0.7-0.6l0.5-2.6c0-0.2,0-0.4-0.2-0.6c-0.1-0.2-0.3-0.3-0.6-0.3
			h-10.5c0.7-1.7,1.9-3,3.4-4c1.5-1,3.2-1.4,5.1-1.4c0.1,0,0.3,0,0.7,0c0.4,0,0.6,0.1,0.7,0.1c0.1,0,0.2,0,0.6,0.1
			c0.3,0.1,0.5,0.1,0.5,0.1l0.4,0.1c0.1,0,0.2,0,0.3,0.1l0.1,0c0.2,0.1,0.4,0,0.5-0.1c0.2-0.1,0.3-0.2,0.3-0.4l1-3.6
			c0-0.2,0-0.4-0.1-0.5c-0.1-0.2-0.3-0.3-0.4-0.3c-1.4-0.3-2.8-0.5-4.4-0.5c-3.4,0-6.4,1-9,2.9c-2.6,1.9-4.5,4.4-5.5,7.6H121
			c-0.2,0-0.4,0.1-0.5,0.2c-0.1,0.1-0.2,0.3-0.2,0.5v2.6c0,0.2,0.1,0.4,0.2,0.5c0.1,0.1,0.3,0.2,0.5,0.2h1.5c0,0.7-0.1,1.5,0,2.4
			H121c-0.2,0-0.4,0.1-0.5,0.2c-0.1,0.1-0.2,0.3-0.2,0.5v2.5c0,0.2,0.1,0.4,0.2,0.5c0.1,0.1,0.3,0.2,0.5,0.2h2.1
			c0.9,3.3,2.7,5.9,5.3,7.9c2.6,2,5.7,2.9,9.2,2.9c0.3,0,0.6,0,0.9,0c0.3,0,0.6,0,0.8-0.1c0.3,0,0.5-0.1,0.8-0.1
			c0.2,0,0.5-0.1,0.7-0.1c0.2,0,0.4-0.1,0.6-0.1c0.2,0,0.3-0.1,0.5-0.1c0.1,0,0.3-0.1,0.4-0.1c0.1,0,0.2,0,0.2-0.1l0.1,0
			c0.2-0.1,0.3-0.2,0.4-0.3C143,245.1,143.1,245,143,244.8z"/>
	</g>
</g>
<g>
	<g>
		<g>
			<g>
				<path class="st6" d="M311.4,211.5c-0.7,23.6-2.8,104.9-1.8,133.8c0.1,3.1,2.9,5.5,6.3,5.6c17.1,0.5,79.6,1.7,107.5,0.7
					c5.8-0.2,10.4-4.4,10.6-9.5c0.6-24.8,1.9-94.4-1.2-126.3c-0.4-3.8-3.8-11.2-8.1-11.6c-18.6-1.6-81.4-1.3-105.5,0.1
					C314.9,204.5,311.5,207.7,311.4,211.5z"/>
				<path class="st5" d="M316.3,221.9v20c0,3.8,3.1,6.9,6.9,6.9h95.5c3.8,0,6.9-3.1,6.9-6.9v-20c0-3.8-3.1-6.9-6.9-6.9h-95.5
					C319.4,215,316.3,218.1,316.3,221.9z"/>
			</g>
			<path class="st9" d="M340.2,269.1c0,3.5-2.9,6.4-6.4,6.4H326c-3.5,0-6.4-2.9-6.4-6.4l0,0c0-3.5,2.9-6.4,6.4-6.4h7.8
				C337.3,262.7,340.2,265.6,340.2,269.1L340.2,269.1z"/>
			<path class="st9" d="M369.1,269.1c0,3.5-2.9,6.4-6.4,6.4h-7.8c-3.5,0-6.4-2.9-6.4-6.4l0,0c0-3.5,2.9-6.4,6.4-6.4h7.8
				C366.2,262.7,369.1,265.6,369.1,269.1L369.1,269.1z"/>
			<path class="st9" d="M396.8,269.1c0,3.5-2.9,6.4-6.4,6.4h-7.8c-3.5,0-6.4-2.9-6.4-6.4l0,0c0-3.5,2.9-6.4,6.4-6.4h7.8
				C394,262.7,396.8,265.6,396.8,269.1L396.8,269.1z"/>
			<linearGradient id="SVGID_1_" gradientUnits="userSpaceOnUse" x1="421.0718" y1="262.5927" x2="375.3108" y2="316.5497">
				<stop  offset="0" style="stop-color:#E31B48"/>
				<stop  offset="1" style="stop-color:#5C1017"/>
			</linearGradient>
			<path class="st10" d="M425,270.1c0,3.6-2.9,6.5-6.5,6.5H411c-3.6,0-6.5-2.9-6.5-6.5l0,0c0-3.6,2.9-6.5,6.5-6.5h7.5
				C422.1,263.6,425,266.5,425,270.1L425,270.1z"/>
			<path class="st9" d="M340.2,289.1c0,3.5-2.9,6.4-6.4,6.4H326c-3.5,0-6.4-2.9-6.4-6.4l0,0c0-3.5,2.9-6.4,6.4-6.4h7.8
				C337.3,282.7,340.2,285.6,340.2,289.1L340.2,289.1z"/>
			<path class="st9" d="M369.1,289.1c0,3.5-2.9,6.4-6.4,6.4h-7.8c-3.5,0-6.4-2.9-6.4-6.4l0,0c0-3.5,2.9-6.4,6.4-6.4h7.8
				C366.2,282.7,369.1,285.6,369.1,289.1L369.1,289.1z"/>
			<path class="st9" d="M396.8,289.1c0,3.5-2.9,6.4-6.4,6.4h-7.8c-3.5,0-6.4-2.9-6.4-6.4l0,0c0-3.5,2.9-6.4,6.4-6.4h7.8
				C394,282.7,396.8,285.6,396.8,289.1L396.8,289.1z"/>
			<path class="st5" d="M425.7,289.1c0,3.5-2.9,6.4-6.4,6.4h-7.8c-3.5,0-6.4-2.9-6.4-6.4l0,0c0-3.5,2.9-6.4,6.4-6.4h7.8
				C422.8,282.7,425.7,285.6,425.7,289.1L425.7,289.1z"/>
			<g>
				<path class="st9" d="M340.2,306.8c0,3.5-2.9,6.4-6.4,6.4H326c-3.5,0-6.4-2.9-6.4-6.4l0,0c0-3.5,2.9-6.4,6.4-6.4h7.8
					C337.3,300.4,340.2,303.3,340.2,306.8L340.2,306.8z"/>
				<path class="st9" d="M369.1,306.8c0,3.5-2.9,6.4-6.4,6.4h-7.8c-3.5,0-6.4-2.9-6.4-6.4l0,0c0-3.5,2.9-6.4,6.4-6.4h7.8
					C366.2,300.4,369.1,303.3,369.1,306.8L369.1,306.8z"/>
				<path class="st9" d="M396.8,306.8c0,3.5-2.9,6.4-6.4,6.4h-7.8c-3.5,0-6.4-2.9-6.4-6.4l0,0c0-3.5,2.9-6.4,6.4-6.4h7.8
					C394,300.4,396.8,303.3,396.8,306.8L396.8,306.8z"/>
			</g>
			<g>
				<path class="st9" d="M340.2,326.3c0,3.5-2.9,6.4-6.4,6.4H326c-3.5,0-6.4-2.9-6.4-6.4l0,0c0-3.5,2.9-6.4,6.4-6.4h7.8
					C337.3,319.9,340.2,322.7,340.2,326.3L340.2,326.3z"/>
				<path class="st9" d="M369.1,326.3c0,3.5-2.9,6.4-6.4,6.4h-7.8c-3.5,0-6.4-2.9-6.4-6.4l0,0c0-3.5,2.9-6.4,6.4-6.4h7.8
					C366.2,319.9,369.1,322.7,369.1,326.3L369.1,326.3z"/>
				<path class="st9" d="M396.8,326.3c0,3.5-2.9,6.4-6.4,6.4h-7.8c-3.5,0-6.4-2.9-6.4-6.4l0,0c0-3.5,2.9-6.4,6.4-6.4h7.8
					C394,319.9,396.8,322.7,396.8,326.3L396.8,326.3z"/>
			</g>
			<path class="st5" d="M422.9,325.7c0,4.5-3.6,8.1-8.1,8.1h-0.5c-4.5,0-8.1-3.6-8.1-8.1v-15.5c0-4.5,3.6-8.1,8.1-8.1h0.5
				c4.5,0,8.1,3.6,8.1,8.1V325.7z"/>
		</g>
		<g class="st11">
			<path class="st12" d="M411.8,224.7c0,0.8-0.6,1.4-1.4,1.4h-3.9c-0.8,0-1.4-0.6-1.4-1.4l0,0c0-0.8,0.6-1.4,1.4-1.4h3.9
				C411.2,223.3,411.8,223.9,411.8,224.7L411.8,224.7z"/>
			<path class="st12" d="M411.8,243.6c0,0.8-0.6,1.4-1.4,1.4h-3.9c-0.8,0-1.4-0.6-1.4-1.4l0,0c0-0.8,0.6-1.4,1.4-1.4h3.9
				C411.2,242.2,411.8,242.8,411.8,243.6L411.8,243.6z"/>
			<path class="st12" d="M405.7,232.5c0,0.8-0.6,1.4-1.4,1.4l0,0c-0.8,0-1.4-0.6-1.4-1.4v-3.9c0-0.8,0.6-1.4,1.4-1.4l0,0
				c0.8,0,1.4,0.6,1.4,1.4V232.5z"/>
			<path class="st12" d="M405.7,240.3c0,0.8-0.6,1.4-1.4,1.4l0,0c-0.8,0-1.4-0.6-1.4-1.4v-3.9c0-0.8,0.6-1.4,1.4-1.4l0,0
				c0.8,0,1.4,0.6,1.4,1.4V240.3z"/>
			<path class="st12" d="M415.2,232.5c0,0.8-0.6,1.4-1.4,1.4l0,0c-0.8,0-1.4-0.6-1.4-1.4v-3.9c0-0.8,0.6-1.4,1.4-1.4l0,0
				c0.8,0,1.4,0.6,1.4,1.4V232.5z"/>
			<path class="st12" d="M415.2,240.3c0,0.8-0.6,1.4-1.4,1.4l0,0c-0.8,0-1.4-0.6-1.4-1.4v-3.9c0-0.8,0.6-1.4,1.4-1.4l0,0
				c0.8,0,1.4,0.6,1.4,1.4V240.3z"/>
		</g>
	</g>
</g>
</svg>
