<!-- Generator: Adobe Illustrator 21.0.0, SVG Export Plug-In  -->
<svg version="1.1"
	 xmlns="http://www.w3.org/2000/svg" xmlns:xlink="http://www.w3.org/1999/xlink" xmlns:a="http://ns.adobe.com/AdobeSVGViewerExtensions/3.0/"
	 x="0px" y="0px" width="470.1px" height="338.7px" viewBox="0 0 470.1 338.7" style="enable-background:new 0 0 470.1 338.7;"
	 xml:space="preserve">
<style type="text/css">
	.st0{fill:#FFFFFF;stroke:#A9A8A9;stroke-width:0.25;stroke-miterlimit:10;}
	.st1{fill:#E8E8E8;}
	.st2{fill:#DDDDDD;}
	.st3{fill:#E7E7E7;}
	.st4{fill-rule:evenodd;clip-rule:evenodd;fill:#E7E7E7;}
	.st5{fill:#249FD9;}
	.st6{fill:#1591C1;}
	.st7{fill:#1085AA;}
	.st8{fill:#FFFFFF;}
</style>
<defs>
</defs>
<g>
	<polygon class="st0" points="331,53.7 331,304.8 109.6,304.8 109.6,0.1 278.5,0.1 	"/>
	<polygon class="st1" points="331,53.7 278.5,53.7 278.5,0.1 	"/>
	<g>
		<path class="st2" d="M185.6,47.4c0,1.5-0.8,2.7-1.7,2.7h-49.5c-1,0-1.7-1.2-1.7-2.7l0,0c0-1.5,0.8-2.7,1.7-2.7h49.5
			C184.8,44.6,185.6,45.9,185.6,47.4L185.6,47.4z"/>
		<path class="st2" d="M292.9,64.5c0,1.5-1,2.7-2.3,2.7H134.9c-1.3,0-2.3-1.2-2.3-2.7l0,0c0-1.5,1-2.7,2.3-2.7h155.7
			C291.9,61.7,292.9,63,292.9,64.5L292.9,64.5z"/>
	</g>
	<g>
		<path class="st2" d="M186.1,93.9c0,1.5-0.8,2.7-1.7,2.7h-49.5c-1,0-1.7-1.2-1.7-2.7l0,0c0-1.5,0.8-2.7,1.7-2.7h49.5
			C185.3,91.2,186.1,92.4,186.1,93.9L186.1,93.9z"/>
		<path class="st2" d="M292.9,111c0,1.5-1,2.7-2.3,2.7H135.4c-1.3,0-2.3-1.2-2.3-2.7l0,0c0-1.5,1-2.7,2.3-2.7h155.3
			C291.9,108.3,292.9,109.5,292.9,111L292.9,111z"/>
	</g>
	<g>
		<path class="st2" d="M186.1,142.4c0,1.5-0.8,2.7-1.7,2.7h-49.5c-1,0-1.7-1.2-1.7-2.7l0,0c0-1.5,0.8-2.7,1.7-2.7h49.5
			C185.3,139.7,186.1,140.9,186.1,142.4L186.1,142.4z"/>
		<path class="st2" d="M292.9,159.5c0,1.5-1,2.7-2.3,2.7H135.4c-1.3,0-2.3-1.2-2.3-2.7l0,0c0-1.5,1-2.7,2.3-2.7h155.3
			C291.9,156.8,292.9,158,292.9,159.5L292.9,159.5z"/>
	</g>
	<g>
		<path class="st2" d="M186.1,197.1c0,1.5-0.8,2.7-1.7,2.7h-49.5c-1,0-1.7-1.2-1.7-2.7l0,0c0-1.5,0.8-2.7,1.7-2.7h49.5
			C185.3,194.4,186.1,195.6,186.1,197.1L186.1,197.1z"/>
		<path class="st2" d="M292.9,214.2c0,1.5-1,2.7-2.3,2.7H135.4c-1.3,0-2.3-1.2-2.3-2.7l0,0c0-1.5,1-2.7,2.3-2.7h155.3
			C291.9,211.5,292.9,212.7,292.9,214.2L292.9,214.2z"/>
	</g>
	<g>
		<path class="st2" d="M185.6,255.7c0,1.5-0.8,2.7-1.7,2.7h-49.5c-1,0-1.7-1.2-1.7-2.7l0,0c0-1.5,0.8-2.7,1.7-2.7h49.5
			C184.8,253,185.6,254.2,185.6,255.7L185.6,255.7z"/>
		<path class="st2" d="M292.9,272.8c0,1.5-1,2.7-2.3,2.7H134.9c-1.3,0-2.3-1.2-2.3-2.7l0,0c0-1.5,1-2.7,2.3-2.7h155.7
			C291.9,270.1,292.9,271.3,292.9,272.8L292.9,272.8z"/>
	</g>
</g>
<g>
	<path class="st3" d="M14.3,269.9c-7.9,0-14.3-6.4-14.3-14.3c0-7.9,6.4-14.3,14.3-14.3c7.9,0,14.3,6.4,14.3,14.3
		C28.6,263.5,22.2,269.9,14.3,269.9z M14.3,245.3c-5.7,0-10.3,4.6-10.3,10.3c0,5.7,4.6,10.3,10.3,10.3s10.3-4.6,10.3-10.3
		C24.6,249.9,20,245.3,14.3,245.3z"/>
</g>
<path class="st3" d="M87,147.9h-5.6v-5.6c0-2-1.7-3.7-3.7-3.7c-2,0-3.7,1.7-3.7,3.7v5.6h-5.6c-2,0-3.7,1.7-3.7,3.7
	c0,2,1.7,3.7,3.7,3.7h5.6v5.6c0,2,1.7,3.7,3.7,3.7c2,0,3.7-1.7,3.7-3.7v-5.6H87c2,0,3.7-1.7,3.7-3.7C90.7,149.6,89,147.9,87,147.9z"
	/>
<path class="st3" d="M47.6,41h-3.6v-3.6c0-1.3-1.1-2.4-2.4-2.4c-1.3,0-2.4,1.1-2.4,2.4V41h-3.6c-1.3,0-2.4,1.1-2.4,2.4
	c0,1.3,1.1,2.4,2.4,2.4h3.6v3.6c0,1.3,1.1,2.4,2.4,2.4c1.3,0,2.4-1.1,2.4-2.4v-3.6h3.6c1.3,0,2.4-1.1,2.4-2.4
	C50,42.1,48.9,41,47.6,41z"/>
<g>
	<path class="st3" d="M419.1,150.7c-4.7,0-8.5-3.8-8.5-8.5c0-4.7,3.8-8.5,8.5-8.5c4.7,0,8.5,3.8,8.5,8.5
		C427.7,146.9,423.8,150.7,419.1,150.7z M419.1,136c-3.4,0-6.2,2.8-6.2,6.2s2.8,6.2,6.2,6.2c3.4,0,6.2-2.8,6.2-6.2
		S422.5,136,419.1,136z"/>
</g>
<path class="st4" d="M434.2,50.7c-0.6,0.8-1.1,2-1.9,2.3c-0.9,0.3-2.4,0.3-3.1-0.3c-2.4-2.1-4.6-4.4-6.8-6.7
	c-1.2-1.3-1.2-2.9,0.1-4.1c1.3-1.2,2.8-1.2,4.1,0.1c2.2,2.1,4.3,4.2,6.4,6.4C433.5,49,433.7,49.8,434.2,50.7z"/>
<path class="st4" d="M454.7,71.5c-0.6,0.7-1.1,1.8-1.9,2c-1.1,0.3-2.7,0.2-3.4-0.4c-2.3-1.9-4.3-4.1-6.3-6.2c-1-1.1-1-3.3,0-4.2
	c1.3-1.1,2.8-1.2,4-0.1c2.3,2.1,4.4,4.3,6.6,6.5C454.2,69.6,454.3,70.4,454.7,71.5z"/>
<path class="st4" d="M425,73.9c-2.8,0-4.3-2.5-2.9-4.2c2.1-2.7,4.6-5.1,7.1-7.4c1.1-1,2.9-0.8,3.9,0.5c1.1,1.3,0.9,2.7-0.2,3.9
	c-2,2.1-4.1,4.2-6.2,6.2C426.2,73.5,425.3,73.7,425,73.9z"/>
<path class="st4" d="M454.8,43.8c-0.6,1.1-0.9,2-1.5,2.6c-2,2.1-4,4.1-6,6.1c-1.3,1.3-2.6,1.4-4,0.1c-1.2-1.2-1.3-3-0.1-4.3
	c2-2.1,3.9-4.3,6.1-6.1c0.8-0.7,2.3-1,3.4-0.7C453.5,41.6,454.1,42.9,454.8,43.8z"/>
<path class="st4" d="M402,269.3c-0.5,0.7-0.9,1.6-1.5,1.8c-0.7,0.3-2,0.2-2.5-0.2c-1.9-1.7-3.7-3.5-5.5-5.4c-1-1.1-0.9-2.3,0.1-3.3
	c1.1-1,2.2-1,3.3,0.1c1.8,1.7,3.5,3.4,5.2,5.2C401.5,267.9,401.6,268.5,402,269.3z"/>
<path class="st4" d="M418.7,286.1c-0.5,0.5-0.9,1.5-1.5,1.6c-0.9,0.2-2.1,0.2-2.8-0.4c-1.8-1.5-3.5-3.3-5.1-5
	c-0.8-0.9-0.8-2.7,0-3.4c1-0.9,2.3-1,3.3-0.1c1.9,1.7,3.6,3.5,5.3,5.3C418.2,284.5,418.3,285.2,418.7,286.1z"/>
<path class="st4" d="M394.6,288c-2.2,0-3.5-2-2.4-3.4c1.7-2.2,3.7-4.1,5.8-6c0.9-0.8,2.3-0.7,3.2,0.4c0.9,1,0.8,2.2-0.2,3.2
	c-1.6,1.7-3.3,3.4-5,5C395.5,287.7,394.9,287.9,394.6,288z"/>
<path class="st4" d="M418.8,263.6c-0.5,0.9-0.7,1.6-1.2,2.1c-1.6,1.7-3.2,3.3-4.9,4.9c-1,1-2.1,1.2-3.3,0.1c-1-0.9-1.1-2.4-0.1-3.5
	c1.6-1.7,3.2-3.4,4.9-5c0.7-0.6,1.9-0.8,2.8-0.6C417.6,261.9,418.1,262.9,418.8,263.6z"/>
<g>
	<g>
		<g>
			<circle class="st5" cx="362.7" cy="122.9" r="40.5"/>
		</g>
		<g>
			<circle class="st6" cx="362.7" cy="122.9" r="34.4"/>
		</g>
		<g>
			<path class="st7" d="M380.7,93.5c3.4,5.3,5.4,11.7,5.4,18.5c0,19-15.4,34.4-34.4,34.4c-6.6,0-12.7-1.9-18-5.1
				c6.1,9.5,16.8,15.8,28.9,15.8c19,0,34.4-15.4,34.4-34.4C397,110.4,390.5,99.6,380.7,93.5z"/>
		</g>
		<g>
			<path class="st8" d="M334.3,126c0-16.7,13.6-30.3,30.3-30.3c9.8,0,18.5,4.6,24,11.8c-5.2-9.1-15.1-15.2-26.3-15.2
				c-16.7,0-30.3,13.6-30.3,30.3c0,7,2.3,13.4,6.3,18.5C335.8,136.7,334.3,131.5,334.3,126z"/>
		</g>
	</g>
	<g>
		<path class="st6" d="M319.7,338.7h-15.6c-2.8,0-5.1-2.3-5.1-5.1l-4.3-29.4c0-2.8,2.3-5.1,5.1-5.1H324c2.8,0,5.1,2.3,5.1,5.1
			l-4.3,29.4C324.8,336.5,322.5,338.7,319.7,338.7z"/>
		<path class="st6" d="M425.1,338.7h-15.6c-2.8,0-5.1-2.3-5.1-5.1l-4.3-29.4c0-2.8,2.3-5.1,5.1-5.1h24.2c2.8,0,5.1,2.3,5.1,5.1
			l-4.3,29.4C430.2,336.5,427.9,338.7,425.1,338.7z"/>
		<path class="st5" d="M455.9,254.7c0,43.8-41.8,79.3-93.3,79.3c-51.5,0-93.3-35.5-93.3-79.3s31.9-81.9,93.3-81.9
			C424.1,172.9,455.9,210.9,455.9,254.7z"/>
		<path class="st5" d="M294.7,295.2l-14.4-0.1c-12.4,0.6-17.9-2.8-20.3-11.6l-7.9-28.9c-1.6-5.9,1.9-12,7.8-13.6l17.8-4.9
			c8.8-2.4,17.9,2.8,20.3,11.6l7.3,25.4C307.8,281.9,303.5,292.8,294.7,295.2z"/>
		<path class="st5" d="M324.6,188.8c-0.2-0.2-25.2-20.7-53.5-10.4c-0.3,0.1-0.5,0.4-0.6,0.7c0,0.3-3.3,32.5,27.8,48.7
			c0.1,0.1,0.3,0.1,0.4,0.1c0.3,0,0.6-0.1,0.7-0.4l25.3-37.6C325.1,189.6,325,189.1,324.6,188.8z"/>
		<path class="st6" d="M467,216.2c-2-0.6-4,0.2-5.1,1.9c-5.5,9-15.2,10.8-19.3,11.5c-1.5,0.3-2.2,0.4-2.9,1
			c-0.8,0.7-1.1,1.8-0.8,2.8l6.8,19.9c0.2,0.7,0.7,1.2,1.4,1.5c0.3,0.2,0.7,0.2,1.1,0.2c0.3,0,0.7-0.1,1-0.2
			c16.8-6.8,20.3-24.4,20.9-34.3C470.2,218.6,469,216.8,467,216.2z"/>
		<circle class="st8" cx="302.9" cy="236.1" r="5.6"/>
		<g>
			<path class="st8" d="M389.6,195.5c-27.7-9.4-52.7-0.1-53,0l-2.7-7.3c1.1-0.4,27.9-10.3,58.2,0L389.6,195.5z"/>
		</g>
		<path class="st6" d="M295.8,310c16.9,14.8,40.6,24,66.8,24c50.6,0,91.7-34.2,93.2-76.9C404.8,325.5,329.1,317.1,295.8,310z"/>
		<path class="st6" d="M255.6,257.1c0,0-5.1-12.7,14.9-16C270.4,241.1,259,246.7,255.6,257.1z"/>
		<path class="st6" d="M273.4,181.3c0,0,7.3-4.1,13.3-3c0,0-9.2,7.6-5.4,30.3C281.3,208.7,273.4,196.2,273.4,181.3z"/>
	</g>
</g>
</svg>
