<!-- Generator: Adobe Illustrator 21.0.0, SVG Export Plug-In  -->
<svg version="1.1"
	 xmlns="http://www.w3.org/2000/svg" xmlns:xlink="http://www.w3.org/1999/xlink" xmlns:a="http://ns.adobe.com/AdobeSVGViewerExtensions/3.0/"
	 x="0px" y="0px" width="706.2px" height="95.9px" viewBox="0 0 706.2 95.9" style="enable-background:new 0 0 706.2 95.9;"
	 xml:space="preserve">
<style type="text/css">
	.st0{fill:#666766;}
	.st1{fill:#229FDA;}
	.st2{fill:#229FDA;stroke:#229FDA;stroke-miterlimit:10;}
	.st3{fill:#209FDA;}
	.st4{fill:#22B892;}
	.st5{fill:#F37458;}
	.st6{fill:#F2CD18;}
</style>
<defs>
</defs>
<g>
	<path class="st0" d="M169,43.5c0.1,0.2,0.1,0.3,0.1,0.4v21.8c0,2.5-2.1,4.5-4.5,4.5c-2.4,0-4.4-2-4.4-4.5V44c0-0.2,0-0.3,0-0.4
		c0-0.1,0-0.2,0-0.4c0-5-4.1-9.1-9.2-9.1s-9.2,4-9.2,9.1v22.6c0,2.5-2,4.5-4.4,4.5s-4.5-2-4.5-4.5V43.2c0-5-4-9.1-9.1-9.1
		c-5,0-9.2,4-9.2,9.1v22.6c0,2.5-2,4.5-4.4,4.5c-2.5,0-4.5-2-4.5-4.5V43.2c0-9.9,8.1-18,18.1-18c5.4,0,10.2,2.3,13.6,6.2
		c3.3-3.9,8.2-6.2,13.6-6.2c10,0,18.1,8.1,18.1,18C169,43.3,169,43.4,169,43.5z"/>
	<path class="st0" d="M174.1,47.6c0-12.5,10.2-22.6,22.6-22.6c12.5,0,22.6,10.1,22.6,22.6c0,12.4-10.1,22.6-22.6,22.6
		C184.2,70.1,174.1,60,174.1,47.6z M183,47.6c0,7.5,6.1,13.7,13.7,13.7c7.5,0,13.7-6.2,13.7-13.7c0-7.5-6.1-13.7-13.7-13.7
		C189.1,33.9,183,40,183,47.6z"/>
	<path class="st0" d="M251.5,29.5c0,2.4-2,4.5-4.5,4.5c-7.5,0-13.7,6.1-13.7,13.7v18.1c0,2.4-2,4.5-4.4,4.5c-2.5,0-4.5-2.1-4.5-4.5
		V47.7c0-12.5,10.2-22.6,22.6-22.6C249.6,25.1,251.5,27.1,251.5,29.5z"/>
	<path class="st0" d="M296.4,47.6c0,2.4-2,4.4-4.5,4.4h-31c1.9,5.4,6.9,9.3,12.9,9.3c2.1,0,5.8-0.2,10.1-3c2.1-1.3,4.9-0.1,5.9,2.1
		c1.1,2.2-0.1,4.6-2.2,5.9c-5.9,4-10.5,3.9-13.8,3.9c-12.5,0-22.6-10.2-22.6-22.6c0-12.5,10.1-22.6,22.6-22.6
		C284.7,25,296.4,32.9,296.4,47.6z M260.9,43.1h26c-1.9-6.3-7.6-9.2-13-9.2C267.8,33.9,262.8,37.8,260.9,43.1z"/>
	<path class="st0" d="M338,29.8v44.3c0,10.2-8.4,18.5-18.6,18.5c-7.1,0-13.5-4-16.6-10.4c-1.1-2.2-0.2-4.9,2.1-5.9
		c2.2-1.1,4.9-0.1,5.8,2.1c1.7,3.3,5,5.4,8.7,5.4c5.4,0,9.7-4.3,9.7-9.6v-6.5c-2.7,1.6-5.8,2.5-9.3,2.5c-9.9,0-18-8-18.1-17.9
		c0-0.1,0-0.1,0-0.1V29.8c0-2.4,2-4.4,4.4-4.4c2.4,0,4.4,2,4.4,4.4v22.3c0,5.1,4.2,9.3,9.3,9.3c5.1,0,9.3-4.1,9.3-9.3V29.8
		c0-2.4,2-4.4,4.4-4.4C336,25.4,338,27.3,338,29.8z"/>
	<path class="st0" d="M343.3,47.6c0-12.5,10.2-22.6,22.6-22.6c12.5,0,22.6,10.1,22.6,22.6c0,12.4-10.1,22.6-22.6,22.6
		C353.4,70.1,343.3,60,343.3,47.6z M352.2,47.6c0,7.5,6.1,13.7,13.7,13.7c7.5,0,13.7-6.2,13.7-13.7c0-7.5-6.1-13.7-13.7-13.7
		C358.3,33.9,352.2,40,352.2,47.6z"/>
	<path class="st0" d="M429.9,29.5v22.6v0.1c-0.1,10-8.2,18.1-18.2,18.1c-10,0-18.1-8.1-18.2-18.1v-0.1V29.5c0-2.4,2-4.4,4.4-4.4
		c2.5,0,4.5,2,4.5,4.4V52c0,5.1,4.1,9.3,9.3,9.3c5.2,0,9.3-4.2,9.3-9.3V29.5c0-2.4,2-4.4,4.5-4.4C427.9,25.1,429.9,27.1,429.9,29.5z
		"/>
	<path class="st0" d="M437,68.8c-0.8-0.8-1.3-2-1.3-3.1c0-1.2,0.4-2.2,1.3-3.1c0.9-0.8,2-1.3,3.1-1.3s2.3,0.4,3.1,1.3
		c0.9,0.9,1.3,2,1.3,3.1c0,1.2-0.4,2.3-1.3,3.1c-0.8,0.9-2,1.3-3.1,1.3S437.9,69.7,437,68.8z"/>
	<path class="st1" d="M513.6,43.5c0.1,0.2,0.1,0.3,0.1,0.4v21.8c0,2.5-2.1,4.5-4.5,4.5c-2.4,0-4.4-2-4.4-4.5V44c0-0.2,0-0.3,0-0.4
		c0-0.1,0-0.2,0-0.4c0-5-4.1-9.1-9.2-9.1s-9.2,4-9.2,9.1v22.6c0,2.5-2,4.5-4.4,4.5s-4.5-2-4.5-4.5V43.2c0-5-4-9.1-9.1-9.1
		c-5,0-9.2,4-9.2,9.1v22.6c0,2.5-2,4.5-4.4,4.5c-2.5,0-4.5-2-4.5-4.5V43.2c0-9.9,8.1-18,18.1-18c5.4,0,10.2,2.3,13.6,6.2
		c3.3-3.9,8.2-6.2,13.6-6.2c10,0,18.1,8.1,18.1,18C513.7,43.3,513.7,43.4,513.6,43.5z"/>
	<path class="st1" d="M518.7,47.6c0-12.5,10.2-22.6,22.6-22.6c12.5,0,22.6,10.1,22.6,22.6c0,12.4-10.1,22.6-22.6,22.6
		C528.9,70.1,518.7,60,518.7,47.6z M527.6,47.6c0,7.5,6.1,13.7,13.7,13.7c7.5,0,13.7-6.2,13.7-13.7c0-7.5-6.1-13.7-13.7-13.7
		C533.7,33.9,527.6,40,527.6,47.6z"/>
	<path class="st1" d="M614.2,47.6v18.1c0,2.5-2,4.5-4.5,4.5c-2.4,0-4.4-2-4.4-4.5V47.6c0-7.5-6.1-13.7-13.7-13.7
		c-7.5,0-13.7,6.1-13.7,13.7v18.1c0,2.5-2,4.5-4.5,4.5c-2.4,0-4.4-2-4.4-4.5V47.6c0-12.5,10.2-22.6,22.6-22.6S614.2,35.1,614.2,47.6
		z"/>
	<path class="st1" d="M664.6,47.6c0,2.4-2,4.4-4.5,4.4h-31c1.9,5.4,6.9,9.3,12.9,9.3c2.1,0,5.8-0.2,10.1-3c2.1-1.3,4.9-0.1,5.9,2.1
		c1.1,2.2-0.1,4.6-2.2,5.9c-5.9,4-10.5,3.9-13.8,3.9c-12.5,0-22.6-10.2-22.6-22.6c0-12.5,10.1-22.6,22.6-22.6
		C653,25,664.6,32.9,664.6,47.6z M629.1,43.1h26c-1.9-6.3-7.6-9.2-13-9.2C636.1,33.9,631,37.8,629.1,43.1z"/>
	<path class="st1" d="M706.2,29.8v44.3c0,10.2-8.4,18.5-18.6,18.5c-7.1,0-13.5-4-16.6-10.4c-1.1-2.2-0.2-4.9,2.1-5.9
		c2.2-1.1,4.9-0.1,5.8,2.1c1.7,3.3,5,5.4,8.7,5.4c5.4,0,9.7-4.3,9.7-9.6v-6.5c-2.7,1.6-5.8,2.5-9.3,2.5c-9.9,0-18-8-18.1-17.9
		c0-0.1,0-0.1,0-0.1V29.8c0-2.4,2-4.4,4.4-4.4c2.4,0,4.4,2,4.4,4.4v22.3c0,5.1,4.2,9.3,9.3,9.3c5.1,0,9.3-4.1,9.3-9.3V29.8
		c0-2.4,2-4.4,4.4-4.4C704.3,25.4,706.2,27.3,706.2,29.8z"/>
</g>
<g>
	<path class="st2" d="M55.5,46.8c0,0,0,0.1,0,0.1v5.6c0,0.6-0.5,1.2-1.2,1.2c-0.6,0-1.1-0.5-1.1-1.2v-5.6c0,0,0-0.1,0-0.1
		c0,0,0,0,0-0.1c0-1.3-1.1-2.3-2.4-2.3c-1.3,0-2.4,1-2.4,2.3v5.8c0,0.6-0.5,1.2-1.1,1.2c-0.6,0-1.2-0.5-1.2-1.2v-5.8
		c0-1.3-1-2.3-2.3-2.3c-1.3,0-2.4,1-2.4,2.3v5.8c0,0.6-0.5,1.2-1.1,1.2c-0.6,0-1.2-0.5-1.2-1.2v-5.8c0-2.5,2.1-4.6,4.6-4.6
		c1.4,0,2.6,0.6,3.5,1.6c0.9-1,2.1-1.6,3.5-1.6C53.4,42.1,55.5,44.2,55.5,46.8C55.5,46.8,55.5,46.8,55.5,46.8z"/>
</g>
<g>
	<g>
		<path class="st3" d="M48.2,16.5C48.2,16.5,48.2,16.5,48.2,16.5c0.2,8,3.1,15.7,8.9,21.8c6.1,6.3,14.2,9.6,22.7,9.9
			c0-0.1,0-0.2,0-0.2C79.7,30.6,65.6,16.5,48.2,16.5z"/>
	</g>
	<g>
		<path class="st4" d="M79.7,48.2C79.7,48.1,79.7,48.1,79.7,48.2c-8,0.2-15.8,3.1-21.8,8.9c-6.3,6.1-9.6,14.3-9.9,22.7
			c0.1,0,0.2,0,0.2,0C65.6,79.8,79.7,65.6,79.7,48.2z"/>
	</g>
	<g>
		<path class="st5" d="M48.2,79.8C48.2,79.8,48.2,79.8,48.2,79.8c-0.2-8-3.1-15.8-8.9-21.8c-6.1-6.3-14.2-9.6-22.6-9.9
			c0,0.1,0,0.2,0,0.2C16.7,65.6,30.8,79.8,48.2,79.8z"/>
	</g>
	<g>
		<path class="st6" d="M16.7,48C16.7,48,16.7,48,16.7,48c8-0.2,15.8-3.1,21.8-8.9c6.3-6.1,9.6-14.2,9.9-22.6c-0.1,0-0.2,0-0.2,0
			C30.8,16.5,16.7,30.6,16.7,48z"/>
	</g>
	<path class="st3" d="M48,12.5c1.2,0,2.1-0.9,2.1-2.1V2.1C50,0.9,49.1,0,48,0s-2.1,0.9-2.1,2.1v8.3C45.9,11.6,46.8,12.5,48,12.5z"/>
	<path class="st5" d="M48,83.4c-1.2,0-2.1,0.9-2.1,2.1v8.3c0,1.2,0.9,2.1,2.1,2.1c1.2,0,2.1-0.9,2.1-2.1v-8.3
		C50,84.3,49.1,83.4,48,83.4z"/>
	<path class="st4" d="M93.8,45.9h-8.3c-1.2,0-2.1,0.9-2.1,2.1s0.9,2.1,2.1,2.1h8.3c1.2,0,2.1-0.9,2.1-2.1
		C95.9,46.8,95,45.9,93.8,45.9z"/>
	<path class="st6" d="M12.5,48c0-1.2-0.9-2.1-2.1-2.1H2.1C0.9,45.9,0,46.8,0,48C0,49.1,0.9,50,2.1,50h8.3C11.6,50,12.5,49.1,12.5,48
		z"/>
	<path class="st6" d="M27.4,16.5c0.4,0.6,1.1,1,1.8,1c0.4,0,0.7-0.1,1-0.3c1-0.6,1.3-1.9,0.8-2.8l-4.2-7.2c-0.6-1-1.9-1.3-2.9-0.7
		c-1,0.6-1.3,1.8-0.8,2.8L27.4,16.5z"/>
	<path class="st4" d="M68.5,79.4c-0.6-1-1.9-1.3-2.9-0.7c-1,0.6-1.3,1.8-0.8,2.8l4.2,7.2c0.4,0.6,1.1,1,1.8,1c0.4,0,0.7-0.1,1-0.3
		c1-0.6,1.3-1.9,0.8-2.8L68.5,79.4z"/>
	<path class="st3" d="M80.5,31.3c0.4,0,0.7-0.1,1-0.3l7.2-4.2c1-0.5,1.4-1.8,0.9-2.8c-0.5-1-1.8-1.4-2.8-0.9c-0.1,0-0.1,0.1-0.2,0.1
		l-7.2,4.2c-1,0.6-1.3,1.9-0.8,2.8C79,30.9,79.7,31.3,80.5,31.3L80.5,31.3L80.5,31.3z"/>
	<path class="st5" d="M14.4,64.9l-7.2,4.2c-1,0.6-1.3,1.9-0.8,2.8c0.4,0.6,1.1,1,1.8,1c0.4,0,0.7-0.1,1-0.3l7.2-4.2
		c1-0.5,1.4-1.8,0.9-2.8c-0.5-1-1.8-1.4-2.8-0.9C14.5,64.9,14.5,64.9,14.4,64.9L14.4,64.9z"/>
	<path class="st6" d="M7.2,26.8l7.2,4.2c0.3,0.2,0.7,0.3,1,0.3c1.2,0,2.1-0.9,2.1-2.1c0-0.7-0.4-1.4-1-1.8l-7.2-4.2
		c-1-0.6-2.3-0.3-2.9,0.6c-0.6,1-0.3,2.3,0.6,2.9C7.1,26.8,7.1,26.8,7.2,26.8L7.2,26.8z"/>
	<path class="st4" d="M88.7,69.1l-7.2-4.2c-1-0.6-2.3-0.3-2.9,0.6c-0.6,1-0.3,2.3,0.6,2.9c0,0,0.1,0.1,0.2,0.1l7.2,4.2
		c0.3,0.2,0.7,0.3,1,0.3c1.2,0,2.1-0.9,2.1-2.1C89.8,70.1,89.4,69.5,88.7,69.1L88.7,69.1L88.7,69.1z"/>
	<path class="st3" d="M65.7,17.3c0.3,0.2,0.7,0.3,1,0.3c0.7,0,1.4-0.4,1.8-1l4.2-7.2c0.6-1,0.2-2.3-0.8-2.8c-1-0.6-2.3-0.2-2.8,0.8
		l-4.2,7.2C64.3,15.4,64.7,16.7,65.7,17.3z"/>
	<path class="st5" d="M30.2,78.7c-1-0.6-2.3-0.2-2.8,0.8l-4.2,7.2c-0.6,1-0.2,2.3,0.8,2.8c0.3,0.2,0.7,0.3,1,0.3
		c0.7,0,1.4-0.4,1.8-1l4.2-7.2C31.6,80.5,31.2,79.2,30.2,78.7C30.2,78.7,30.2,78.7,30.2,78.7z"/>
</g>
</svg>
